%TF.GenerationSoftware,KiCad,Pcbnew,9.0.7*%
%TF.CreationDate,2026-02-26T22:54:02+05:30*%
%TF.ProjectId,Distortion Pedal,44697374-6f72-4746-996f-6e2050656461,rev?*%
%TF.SameCoordinates,Original*%
%TF.FileFunction,Legend,Top*%
%TF.FilePolarity,Positive*%
%FSLAX46Y46*%
G04 Gerber Fmt 4.6, Leading zero omitted, Abs format (unit mm)*
G04 Created by KiCad (PCBNEW 9.0.7) date 2026-02-26 22:54:02*
%MOMM*%
%LPD*%
G01*
G04 APERTURE LIST*
%ADD10C,0.100000*%
%ADD11C,0.150000*%
%ADD12C,0.300000*%
%ADD13C,0.400000*%
%ADD14C,0.120000*%
G04 APERTURE END LIST*
D10*
D11*
X177002200Y-166007200D02*
X285002200Y-166007200D01*
X285002200Y-198007200D01*
X177002200Y-198007200D01*
X177002200Y-166007200D01*
D10*
D11*
X10000000Y-10000000D02*
X287002200Y-10000000D01*
X287002200Y-200007200D01*
X10000000Y-200007200D01*
X10000000Y-10000000D01*
D10*
D11*
X12000000Y-12000000D02*
X285002200Y-12000000D01*
X285002200Y-198007200D01*
X12000000Y-198007200D01*
X12000000Y-12000000D01*
D10*
D11*
X60000000Y-12000000D02*
X60000000Y-10000000D01*
D10*
D11*
X110000000Y-12000000D02*
X110000000Y-10000000D01*
D10*
D11*
X160000000Y-12000000D02*
X160000000Y-10000000D01*
D10*
D11*
X210000000Y-12000000D02*
X210000000Y-10000000D01*
D10*
D11*
X260000000Y-12000000D02*
X260000000Y-10000000D01*
D10*
D11*
X36089160Y-11593604D02*
X35346303Y-11593604D01*
X35717731Y-11593604D02*
X35717731Y-10293604D01*
X35717731Y-10293604D02*
X35593922Y-10479319D01*
X35593922Y-10479319D02*
X35470112Y-10603128D01*
X35470112Y-10603128D02*
X35346303Y-10665033D01*
D10*
D11*
X85346303Y-10417414D02*
X85408207Y-10355509D01*
X85408207Y-10355509D02*
X85532017Y-10293604D01*
X85532017Y-10293604D02*
X85841541Y-10293604D01*
X85841541Y-10293604D02*
X85965350Y-10355509D01*
X85965350Y-10355509D02*
X86027255Y-10417414D01*
X86027255Y-10417414D02*
X86089160Y-10541223D01*
X86089160Y-10541223D02*
X86089160Y-10665033D01*
X86089160Y-10665033D02*
X86027255Y-10850747D01*
X86027255Y-10850747D02*
X85284398Y-11593604D01*
X85284398Y-11593604D02*
X86089160Y-11593604D01*
D10*
D11*
X135284398Y-10293604D02*
X136089160Y-10293604D01*
X136089160Y-10293604D02*
X135655826Y-10788842D01*
X135655826Y-10788842D02*
X135841541Y-10788842D01*
X135841541Y-10788842D02*
X135965350Y-10850747D01*
X135965350Y-10850747D02*
X136027255Y-10912652D01*
X136027255Y-10912652D02*
X136089160Y-11036461D01*
X136089160Y-11036461D02*
X136089160Y-11345985D01*
X136089160Y-11345985D02*
X136027255Y-11469795D01*
X136027255Y-11469795D02*
X135965350Y-11531700D01*
X135965350Y-11531700D02*
X135841541Y-11593604D01*
X135841541Y-11593604D02*
X135470112Y-11593604D01*
X135470112Y-11593604D02*
X135346303Y-11531700D01*
X135346303Y-11531700D02*
X135284398Y-11469795D01*
D10*
D11*
X185965350Y-10726938D02*
X185965350Y-11593604D01*
X185655826Y-10231700D02*
X185346303Y-11160271D01*
X185346303Y-11160271D02*
X186151064Y-11160271D01*
D10*
D11*
X236027255Y-10293604D02*
X235408207Y-10293604D01*
X235408207Y-10293604D02*
X235346303Y-10912652D01*
X235346303Y-10912652D02*
X235408207Y-10850747D01*
X235408207Y-10850747D02*
X235532017Y-10788842D01*
X235532017Y-10788842D02*
X235841541Y-10788842D01*
X235841541Y-10788842D02*
X235965350Y-10850747D01*
X235965350Y-10850747D02*
X236027255Y-10912652D01*
X236027255Y-10912652D02*
X236089160Y-11036461D01*
X236089160Y-11036461D02*
X236089160Y-11345985D01*
X236089160Y-11345985D02*
X236027255Y-11469795D01*
X236027255Y-11469795D02*
X235965350Y-11531700D01*
X235965350Y-11531700D02*
X235841541Y-11593604D01*
X235841541Y-11593604D02*
X235532017Y-11593604D01*
X235532017Y-11593604D02*
X235408207Y-11531700D01*
X235408207Y-11531700D02*
X235346303Y-11469795D01*
D10*
D11*
X285965350Y-10293604D02*
X285717731Y-10293604D01*
X285717731Y-10293604D02*
X285593922Y-10355509D01*
X285593922Y-10355509D02*
X285532017Y-10417414D01*
X285532017Y-10417414D02*
X285408207Y-10603128D01*
X285408207Y-10603128D02*
X285346303Y-10850747D01*
X285346303Y-10850747D02*
X285346303Y-11345985D01*
X285346303Y-11345985D02*
X285408207Y-11469795D01*
X285408207Y-11469795D02*
X285470112Y-11531700D01*
X285470112Y-11531700D02*
X285593922Y-11593604D01*
X285593922Y-11593604D02*
X285841541Y-11593604D01*
X285841541Y-11593604D02*
X285965350Y-11531700D01*
X285965350Y-11531700D02*
X286027255Y-11469795D01*
X286027255Y-11469795D02*
X286089160Y-11345985D01*
X286089160Y-11345985D02*
X286089160Y-11036461D01*
X286089160Y-11036461D02*
X286027255Y-10912652D01*
X286027255Y-10912652D02*
X285965350Y-10850747D01*
X285965350Y-10850747D02*
X285841541Y-10788842D01*
X285841541Y-10788842D02*
X285593922Y-10788842D01*
X285593922Y-10788842D02*
X285470112Y-10850747D01*
X285470112Y-10850747D02*
X285408207Y-10912652D01*
X285408207Y-10912652D02*
X285346303Y-11036461D01*
D10*
D11*
X60000000Y-198007200D02*
X60000000Y-200007200D01*
D10*
D11*
X110000000Y-198007200D02*
X110000000Y-200007200D01*
D10*
D11*
X160000000Y-198007200D02*
X160000000Y-200007200D01*
D10*
D11*
X210000000Y-198007200D02*
X210000000Y-200007200D01*
D10*
D11*
X260000000Y-198007200D02*
X260000000Y-200007200D01*
D10*
D11*
X36089160Y-199600804D02*
X35346303Y-199600804D01*
X35717731Y-199600804D02*
X35717731Y-198300804D01*
X35717731Y-198300804D02*
X35593922Y-198486519D01*
X35593922Y-198486519D02*
X35470112Y-198610328D01*
X35470112Y-198610328D02*
X35346303Y-198672233D01*
D10*
D11*
X85346303Y-198424614D02*
X85408207Y-198362709D01*
X85408207Y-198362709D02*
X85532017Y-198300804D01*
X85532017Y-198300804D02*
X85841541Y-198300804D01*
X85841541Y-198300804D02*
X85965350Y-198362709D01*
X85965350Y-198362709D02*
X86027255Y-198424614D01*
X86027255Y-198424614D02*
X86089160Y-198548423D01*
X86089160Y-198548423D02*
X86089160Y-198672233D01*
X86089160Y-198672233D02*
X86027255Y-198857947D01*
X86027255Y-198857947D02*
X85284398Y-199600804D01*
X85284398Y-199600804D02*
X86089160Y-199600804D01*
D10*
D11*
X135284398Y-198300804D02*
X136089160Y-198300804D01*
X136089160Y-198300804D02*
X135655826Y-198796042D01*
X135655826Y-198796042D02*
X135841541Y-198796042D01*
X135841541Y-198796042D02*
X135965350Y-198857947D01*
X135965350Y-198857947D02*
X136027255Y-198919852D01*
X136027255Y-198919852D02*
X136089160Y-199043661D01*
X136089160Y-199043661D02*
X136089160Y-199353185D01*
X136089160Y-199353185D02*
X136027255Y-199476995D01*
X136027255Y-199476995D02*
X135965350Y-199538900D01*
X135965350Y-199538900D02*
X135841541Y-199600804D01*
X135841541Y-199600804D02*
X135470112Y-199600804D01*
X135470112Y-199600804D02*
X135346303Y-199538900D01*
X135346303Y-199538900D02*
X135284398Y-199476995D01*
D10*
D11*
X185965350Y-198734138D02*
X185965350Y-199600804D01*
X185655826Y-198238900D02*
X185346303Y-199167471D01*
X185346303Y-199167471D02*
X186151064Y-199167471D01*
D10*
D11*
X236027255Y-198300804D02*
X235408207Y-198300804D01*
X235408207Y-198300804D02*
X235346303Y-198919852D01*
X235346303Y-198919852D02*
X235408207Y-198857947D01*
X235408207Y-198857947D02*
X235532017Y-198796042D01*
X235532017Y-198796042D02*
X235841541Y-198796042D01*
X235841541Y-198796042D02*
X235965350Y-198857947D01*
X235965350Y-198857947D02*
X236027255Y-198919852D01*
X236027255Y-198919852D02*
X236089160Y-199043661D01*
X236089160Y-199043661D02*
X236089160Y-199353185D01*
X236089160Y-199353185D02*
X236027255Y-199476995D01*
X236027255Y-199476995D02*
X235965350Y-199538900D01*
X235965350Y-199538900D02*
X235841541Y-199600804D01*
X235841541Y-199600804D02*
X235532017Y-199600804D01*
X235532017Y-199600804D02*
X235408207Y-199538900D01*
X235408207Y-199538900D02*
X235346303Y-199476995D01*
D10*
D11*
X285965350Y-198300804D02*
X285717731Y-198300804D01*
X285717731Y-198300804D02*
X285593922Y-198362709D01*
X285593922Y-198362709D02*
X285532017Y-198424614D01*
X285532017Y-198424614D02*
X285408207Y-198610328D01*
X285408207Y-198610328D02*
X285346303Y-198857947D01*
X285346303Y-198857947D02*
X285346303Y-199353185D01*
X285346303Y-199353185D02*
X285408207Y-199476995D01*
X285408207Y-199476995D02*
X285470112Y-199538900D01*
X285470112Y-199538900D02*
X285593922Y-199600804D01*
X285593922Y-199600804D02*
X285841541Y-199600804D01*
X285841541Y-199600804D02*
X285965350Y-199538900D01*
X285965350Y-199538900D02*
X286027255Y-199476995D01*
X286027255Y-199476995D02*
X286089160Y-199353185D01*
X286089160Y-199353185D02*
X286089160Y-199043661D01*
X286089160Y-199043661D02*
X286027255Y-198919852D01*
X286027255Y-198919852D02*
X285965350Y-198857947D01*
X285965350Y-198857947D02*
X285841541Y-198796042D01*
X285841541Y-198796042D02*
X285593922Y-198796042D01*
X285593922Y-198796042D02*
X285470112Y-198857947D01*
X285470112Y-198857947D02*
X285408207Y-198919852D01*
X285408207Y-198919852D02*
X285346303Y-199043661D01*
D10*
D11*
X10000000Y-60000000D02*
X12000000Y-60000000D01*
D10*
D11*
X10000000Y-110000000D02*
X12000000Y-110000000D01*
D10*
D11*
X10000000Y-160000000D02*
X12000000Y-160000000D01*
D10*
D11*
X10690476Y-35222176D02*
X11309523Y-35222176D01*
X10566666Y-35593604D02*
X10999999Y-34293604D01*
X10999999Y-34293604D02*
X11433333Y-35593604D01*
D10*
D11*
X11092857Y-84912652D02*
X11278571Y-84974557D01*
X11278571Y-84974557D02*
X11340476Y-85036461D01*
X11340476Y-85036461D02*
X11402380Y-85160271D01*
X11402380Y-85160271D02*
X11402380Y-85345985D01*
X11402380Y-85345985D02*
X11340476Y-85469795D01*
X11340476Y-85469795D02*
X11278571Y-85531700D01*
X11278571Y-85531700D02*
X11154761Y-85593604D01*
X11154761Y-85593604D02*
X10659523Y-85593604D01*
X10659523Y-85593604D02*
X10659523Y-84293604D01*
X10659523Y-84293604D02*
X11092857Y-84293604D01*
X11092857Y-84293604D02*
X11216666Y-84355509D01*
X11216666Y-84355509D02*
X11278571Y-84417414D01*
X11278571Y-84417414D02*
X11340476Y-84541223D01*
X11340476Y-84541223D02*
X11340476Y-84665033D01*
X11340476Y-84665033D02*
X11278571Y-84788842D01*
X11278571Y-84788842D02*
X11216666Y-84850747D01*
X11216666Y-84850747D02*
X11092857Y-84912652D01*
X11092857Y-84912652D02*
X10659523Y-84912652D01*
D10*
D11*
X11402380Y-135469795D02*
X11340476Y-135531700D01*
X11340476Y-135531700D02*
X11154761Y-135593604D01*
X11154761Y-135593604D02*
X11030952Y-135593604D01*
X11030952Y-135593604D02*
X10845238Y-135531700D01*
X10845238Y-135531700D02*
X10721428Y-135407890D01*
X10721428Y-135407890D02*
X10659523Y-135284080D01*
X10659523Y-135284080D02*
X10597619Y-135036461D01*
X10597619Y-135036461D02*
X10597619Y-134850747D01*
X10597619Y-134850747D02*
X10659523Y-134603128D01*
X10659523Y-134603128D02*
X10721428Y-134479319D01*
X10721428Y-134479319D02*
X10845238Y-134355509D01*
X10845238Y-134355509D02*
X11030952Y-134293604D01*
X11030952Y-134293604D02*
X11154761Y-134293604D01*
X11154761Y-134293604D02*
X11340476Y-134355509D01*
X11340476Y-134355509D02*
X11402380Y-134417414D01*
D10*
D11*
X10659523Y-185593604D02*
X10659523Y-184293604D01*
X10659523Y-184293604D02*
X10969047Y-184293604D01*
X10969047Y-184293604D02*
X11154761Y-184355509D01*
X11154761Y-184355509D02*
X11278571Y-184479319D01*
X11278571Y-184479319D02*
X11340476Y-184603128D01*
X11340476Y-184603128D02*
X11402380Y-184850747D01*
X11402380Y-184850747D02*
X11402380Y-185036461D01*
X11402380Y-185036461D02*
X11340476Y-185284080D01*
X11340476Y-185284080D02*
X11278571Y-185407890D01*
X11278571Y-185407890D02*
X11154761Y-185531700D01*
X11154761Y-185531700D02*
X10969047Y-185593604D01*
X10969047Y-185593604D02*
X10659523Y-185593604D01*
D10*
D11*
X287002200Y-60000000D02*
X285002200Y-60000000D01*
D10*
D11*
X287002200Y-110000000D02*
X285002200Y-110000000D01*
D10*
D11*
X287002200Y-160000000D02*
X285002200Y-160000000D01*
D10*
D11*
X285692676Y-35222176D02*
X286311723Y-35222176D01*
X285568866Y-35593604D02*
X286002199Y-34293604D01*
X286002199Y-34293604D02*
X286435533Y-35593604D01*
D10*
D11*
X286095057Y-84912652D02*
X286280771Y-84974557D01*
X286280771Y-84974557D02*
X286342676Y-85036461D01*
X286342676Y-85036461D02*
X286404580Y-85160271D01*
X286404580Y-85160271D02*
X286404580Y-85345985D01*
X286404580Y-85345985D02*
X286342676Y-85469795D01*
X286342676Y-85469795D02*
X286280771Y-85531700D01*
X286280771Y-85531700D02*
X286156961Y-85593604D01*
X286156961Y-85593604D02*
X285661723Y-85593604D01*
X285661723Y-85593604D02*
X285661723Y-84293604D01*
X285661723Y-84293604D02*
X286095057Y-84293604D01*
X286095057Y-84293604D02*
X286218866Y-84355509D01*
X286218866Y-84355509D02*
X286280771Y-84417414D01*
X286280771Y-84417414D02*
X286342676Y-84541223D01*
X286342676Y-84541223D02*
X286342676Y-84665033D01*
X286342676Y-84665033D02*
X286280771Y-84788842D01*
X286280771Y-84788842D02*
X286218866Y-84850747D01*
X286218866Y-84850747D02*
X286095057Y-84912652D01*
X286095057Y-84912652D02*
X285661723Y-84912652D01*
D10*
D11*
X286404580Y-135469795D02*
X286342676Y-135531700D01*
X286342676Y-135531700D02*
X286156961Y-135593604D01*
X286156961Y-135593604D02*
X286033152Y-135593604D01*
X286033152Y-135593604D02*
X285847438Y-135531700D01*
X285847438Y-135531700D02*
X285723628Y-135407890D01*
X285723628Y-135407890D02*
X285661723Y-135284080D01*
X285661723Y-135284080D02*
X285599819Y-135036461D01*
X285599819Y-135036461D02*
X285599819Y-134850747D01*
X285599819Y-134850747D02*
X285661723Y-134603128D01*
X285661723Y-134603128D02*
X285723628Y-134479319D01*
X285723628Y-134479319D02*
X285847438Y-134355509D01*
X285847438Y-134355509D02*
X286033152Y-134293604D01*
X286033152Y-134293604D02*
X286156961Y-134293604D01*
X286156961Y-134293604D02*
X286342676Y-134355509D01*
X286342676Y-134355509D02*
X286404580Y-134417414D01*
D10*
D11*
X285661723Y-185593604D02*
X285661723Y-184293604D01*
X285661723Y-184293604D02*
X285971247Y-184293604D01*
X285971247Y-184293604D02*
X286156961Y-184355509D01*
X286156961Y-184355509D02*
X286280771Y-184479319D01*
X286280771Y-184479319D02*
X286342676Y-184603128D01*
X286342676Y-184603128D02*
X286404580Y-184850747D01*
X286404580Y-184850747D02*
X286404580Y-185036461D01*
X286404580Y-185036461D02*
X286342676Y-185284080D01*
X286342676Y-185284080D02*
X286280771Y-185407890D01*
X286280771Y-185407890D02*
X286156961Y-185531700D01*
X286156961Y-185531700D02*
X285971247Y-185593604D01*
X285971247Y-185593604D02*
X285661723Y-185593604D01*
D10*
D11*
X200458026Y-193793328D02*
X200458026Y-192293328D01*
X200458026Y-192293328D02*
X200815169Y-192293328D01*
X200815169Y-192293328D02*
X201029455Y-192364757D01*
X201029455Y-192364757D02*
X201172312Y-192507614D01*
X201172312Y-192507614D02*
X201243741Y-192650471D01*
X201243741Y-192650471D02*
X201315169Y-192936185D01*
X201315169Y-192936185D02*
X201315169Y-193150471D01*
X201315169Y-193150471D02*
X201243741Y-193436185D01*
X201243741Y-193436185D02*
X201172312Y-193579042D01*
X201172312Y-193579042D02*
X201029455Y-193721900D01*
X201029455Y-193721900D02*
X200815169Y-193793328D01*
X200815169Y-193793328D02*
X200458026Y-193793328D01*
X202600884Y-193793328D02*
X202600884Y-193007614D01*
X202600884Y-193007614D02*
X202529455Y-192864757D01*
X202529455Y-192864757D02*
X202386598Y-192793328D01*
X202386598Y-192793328D02*
X202100884Y-192793328D01*
X202100884Y-192793328D02*
X201958026Y-192864757D01*
X202600884Y-193721900D02*
X202458026Y-193793328D01*
X202458026Y-193793328D02*
X202100884Y-193793328D01*
X202100884Y-193793328D02*
X201958026Y-193721900D01*
X201958026Y-193721900D02*
X201886598Y-193579042D01*
X201886598Y-193579042D02*
X201886598Y-193436185D01*
X201886598Y-193436185D02*
X201958026Y-193293328D01*
X201958026Y-193293328D02*
X202100884Y-193221900D01*
X202100884Y-193221900D02*
X202458026Y-193221900D01*
X202458026Y-193221900D02*
X202600884Y-193150471D01*
X203100884Y-192793328D02*
X203672312Y-192793328D01*
X203315169Y-192293328D02*
X203315169Y-193579042D01*
X203315169Y-193579042D02*
X203386598Y-193721900D01*
X203386598Y-193721900D02*
X203529455Y-193793328D01*
X203529455Y-193793328D02*
X203672312Y-193793328D01*
X204743741Y-193721900D02*
X204600884Y-193793328D01*
X204600884Y-193793328D02*
X204315170Y-193793328D01*
X204315170Y-193793328D02*
X204172312Y-193721900D01*
X204172312Y-193721900D02*
X204100884Y-193579042D01*
X204100884Y-193579042D02*
X204100884Y-193007614D01*
X204100884Y-193007614D02*
X204172312Y-192864757D01*
X204172312Y-192864757D02*
X204315170Y-192793328D01*
X204315170Y-192793328D02*
X204600884Y-192793328D01*
X204600884Y-192793328D02*
X204743741Y-192864757D01*
X204743741Y-192864757D02*
X204815170Y-193007614D01*
X204815170Y-193007614D02*
X204815170Y-193150471D01*
X204815170Y-193150471D02*
X204100884Y-193293328D01*
X205458026Y-193650471D02*
X205529455Y-193721900D01*
X205529455Y-193721900D02*
X205458026Y-193793328D01*
X205458026Y-193793328D02*
X205386598Y-193721900D01*
X205386598Y-193721900D02*
X205458026Y-193650471D01*
X205458026Y-193650471D02*
X205458026Y-193793328D01*
X205458026Y-192864757D02*
X205529455Y-192936185D01*
X205529455Y-192936185D02*
X205458026Y-193007614D01*
X205458026Y-193007614D02*
X205386598Y-192936185D01*
X205386598Y-192936185D02*
X205458026Y-192864757D01*
X205458026Y-192864757D02*
X205458026Y-193007614D01*
D10*
D11*
X177002200Y-194507200D02*
X285002200Y-194507200D01*
D10*
D11*
X178458026Y-196593328D02*
X178458026Y-195093328D01*
X179315169Y-196593328D02*
X178672312Y-195736185D01*
X179315169Y-195093328D02*
X178458026Y-195950471D01*
X179958026Y-196593328D02*
X179958026Y-195593328D01*
X179958026Y-195093328D02*
X179886598Y-195164757D01*
X179886598Y-195164757D02*
X179958026Y-195236185D01*
X179958026Y-195236185D02*
X180029455Y-195164757D01*
X180029455Y-195164757D02*
X179958026Y-195093328D01*
X179958026Y-195093328D02*
X179958026Y-195236185D01*
X181529455Y-196450471D02*
X181458027Y-196521900D01*
X181458027Y-196521900D02*
X181243741Y-196593328D01*
X181243741Y-196593328D02*
X181100884Y-196593328D01*
X181100884Y-196593328D02*
X180886598Y-196521900D01*
X180886598Y-196521900D02*
X180743741Y-196379042D01*
X180743741Y-196379042D02*
X180672312Y-196236185D01*
X180672312Y-196236185D02*
X180600884Y-195950471D01*
X180600884Y-195950471D02*
X180600884Y-195736185D01*
X180600884Y-195736185D02*
X180672312Y-195450471D01*
X180672312Y-195450471D02*
X180743741Y-195307614D01*
X180743741Y-195307614D02*
X180886598Y-195164757D01*
X180886598Y-195164757D02*
X181100884Y-195093328D01*
X181100884Y-195093328D02*
X181243741Y-195093328D01*
X181243741Y-195093328D02*
X181458027Y-195164757D01*
X181458027Y-195164757D02*
X181529455Y-195236185D01*
X182815170Y-196593328D02*
X182815170Y-195807614D01*
X182815170Y-195807614D02*
X182743741Y-195664757D01*
X182743741Y-195664757D02*
X182600884Y-195593328D01*
X182600884Y-195593328D02*
X182315170Y-195593328D01*
X182315170Y-195593328D02*
X182172312Y-195664757D01*
X182815170Y-196521900D02*
X182672312Y-196593328D01*
X182672312Y-196593328D02*
X182315170Y-196593328D01*
X182315170Y-196593328D02*
X182172312Y-196521900D01*
X182172312Y-196521900D02*
X182100884Y-196379042D01*
X182100884Y-196379042D02*
X182100884Y-196236185D01*
X182100884Y-196236185D02*
X182172312Y-196093328D01*
X182172312Y-196093328D02*
X182315170Y-196021900D01*
X182315170Y-196021900D02*
X182672312Y-196021900D01*
X182672312Y-196021900D02*
X182815170Y-195950471D01*
X184172313Y-196593328D02*
X184172313Y-195093328D01*
X184172313Y-196521900D02*
X184029455Y-196593328D01*
X184029455Y-196593328D02*
X183743741Y-196593328D01*
X183743741Y-196593328D02*
X183600884Y-196521900D01*
X183600884Y-196521900D02*
X183529455Y-196450471D01*
X183529455Y-196450471D02*
X183458027Y-196307614D01*
X183458027Y-196307614D02*
X183458027Y-195879042D01*
X183458027Y-195879042D02*
X183529455Y-195736185D01*
X183529455Y-195736185D02*
X183600884Y-195664757D01*
X183600884Y-195664757D02*
X183743741Y-195593328D01*
X183743741Y-195593328D02*
X184029455Y-195593328D01*
X184029455Y-195593328D02*
X184172313Y-195664757D01*
X186029455Y-195807614D02*
X186529455Y-195807614D01*
X186743741Y-196593328D02*
X186029455Y-196593328D01*
X186029455Y-196593328D02*
X186029455Y-195093328D01*
X186029455Y-195093328D02*
X186743741Y-195093328D01*
X187386598Y-196450471D02*
X187458027Y-196521900D01*
X187458027Y-196521900D02*
X187386598Y-196593328D01*
X187386598Y-196593328D02*
X187315170Y-196521900D01*
X187315170Y-196521900D02*
X187386598Y-196450471D01*
X187386598Y-196450471D02*
X187386598Y-196593328D01*
X188100884Y-196593328D02*
X188100884Y-195093328D01*
X188100884Y-195093328D02*
X188458027Y-195093328D01*
X188458027Y-195093328D02*
X188672313Y-195164757D01*
X188672313Y-195164757D02*
X188815170Y-195307614D01*
X188815170Y-195307614D02*
X188886599Y-195450471D01*
X188886599Y-195450471D02*
X188958027Y-195736185D01*
X188958027Y-195736185D02*
X188958027Y-195950471D01*
X188958027Y-195950471D02*
X188886599Y-196236185D01*
X188886599Y-196236185D02*
X188815170Y-196379042D01*
X188815170Y-196379042D02*
X188672313Y-196521900D01*
X188672313Y-196521900D02*
X188458027Y-196593328D01*
X188458027Y-196593328D02*
X188100884Y-196593328D01*
X189600884Y-196450471D02*
X189672313Y-196521900D01*
X189672313Y-196521900D02*
X189600884Y-196593328D01*
X189600884Y-196593328D02*
X189529456Y-196521900D01*
X189529456Y-196521900D02*
X189600884Y-196450471D01*
X189600884Y-196450471D02*
X189600884Y-196593328D01*
X190243742Y-196164757D02*
X190958028Y-196164757D01*
X190100885Y-196593328D02*
X190600885Y-195093328D01*
X190600885Y-195093328D02*
X191100885Y-196593328D01*
X191600884Y-196450471D02*
X191672313Y-196521900D01*
X191672313Y-196521900D02*
X191600884Y-196593328D01*
X191600884Y-196593328D02*
X191529456Y-196521900D01*
X191529456Y-196521900D02*
X191600884Y-196450471D01*
X191600884Y-196450471D02*
X191600884Y-196593328D01*
X193529456Y-196593328D02*
X193815170Y-196593328D01*
X193815170Y-196593328D02*
X193958027Y-196521900D01*
X193958027Y-196521900D02*
X194029456Y-196450471D01*
X194029456Y-196450471D02*
X194172313Y-196236185D01*
X194172313Y-196236185D02*
X194243742Y-195950471D01*
X194243742Y-195950471D02*
X194243742Y-195379042D01*
X194243742Y-195379042D02*
X194172313Y-195236185D01*
X194172313Y-195236185D02*
X194100885Y-195164757D01*
X194100885Y-195164757D02*
X193958027Y-195093328D01*
X193958027Y-195093328D02*
X193672313Y-195093328D01*
X193672313Y-195093328D02*
X193529456Y-195164757D01*
X193529456Y-195164757D02*
X193458027Y-195236185D01*
X193458027Y-195236185D02*
X193386599Y-195379042D01*
X193386599Y-195379042D02*
X193386599Y-195736185D01*
X193386599Y-195736185D02*
X193458027Y-195879042D01*
X193458027Y-195879042D02*
X193529456Y-195950471D01*
X193529456Y-195950471D02*
X193672313Y-196021900D01*
X193672313Y-196021900D02*
X193958027Y-196021900D01*
X193958027Y-196021900D02*
X194100885Y-195950471D01*
X194100885Y-195950471D02*
X194172313Y-195879042D01*
X194172313Y-195879042D02*
X194243742Y-195736185D01*
X194886598Y-196450471D02*
X194958027Y-196521900D01*
X194958027Y-196521900D02*
X194886598Y-196593328D01*
X194886598Y-196593328D02*
X194815170Y-196521900D01*
X194815170Y-196521900D02*
X194886598Y-196450471D01*
X194886598Y-196450471D02*
X194886598Y-196593328D01*
X195886599Y-195093328D02*
X196029456Y-195093328D01*
X196029456Y-195093328D02*
X196172313Y-195164757D01*
X196172313Y-195164757D02*
X196243742Y-195236185D01*
X196243742Y-195236185D02*
X196315170Y-195379042D01*
X196315170Y-195379042D02*
X196386599Y-195664757D01*
X196386599Y-195664757D02*
X196386599Y-196021900D01*
X196386599Y-196021900D02*
X196315170Y-196307614D01*
X196315170Y-196307614D02*
X196243742Y-196450471D01*
X196243742Y-196450471D02*
X196172313Y-196521900D01*
X196172313Y-196521900D02*
X196029456Y-196593328D01*
X196029456Y-196593328D02*
X195886599Y-196593328D01*
X195886599Y-196593328D02*
X195743742Y-196521900D01*
X195743742Y-196521900D02*
X195672313Y-196450471D01*
X195672313Y-196450471D02*
X195600884Y-196307614D01*
X195600884Y-196307614D02*
X195529456Y-196021900D01*
X195529456Y-196021900D02*
X195529456Y-195664757D01*
X195529456Y-195664757D02*
X195600884Y-195379042D01*
X195600884Y-195379042D02*
X195672313Y-195236185D01*
X195672313Y-195236185D02*
X195743742Y-195164757D01*
X195743742Y-195164757D02*
X195886599Y-195093328D01*
X197029455Y-196450471D02*
X197100884Y-196521900D01*
X197100884Y-196521900D02*
X197029455Y-196593328D01*
X197029455Y-196593328D02*
X196958027Y-196521900D01*
X196958027Y-196521900D02*
X197029455Y-196450471D01*
X197029455Y-196450471D02*
X197029455Y-196593328D01*
X197600884Y-195093328D02*
X198600884Y-195093328D01*
X198600884Y-195093328D02*
X197958027Y-196593328D01*
D10*
D11*
X177002200Y-191507200D02*
X285002200Y-191507200D01*
D10*
D12*
X264413853Y-193785528D02*
X263913853Y-193071242D01*
X263556710Y-193785528D02*
X263556710Y-192285528D01*
X263556710Y-192285528D02*
X264128139Y-192285528D01*
X264128139Y-192285528D02*
X264270996Y-192356957D01*
X264270996Y-192356957D02*
X264342425Y-192428385D01*
X264342425Y-192428385D02*
X264413853Y-192571242D01*
X264413853Y-192571242D02*
X264413853Y-192785528D01*
X264413853Y-192785528D02*
X264342425Y-192928385D01*
X264342425Y-192928385D02*
X264270996Y-192999814D01*
X264270996Y-192999814D02*
X264128139Y-193071242D01*
X264128139Y-193071242D02*
X263556710Y-193071242D01*
X265628139Y-193714100D02*
X265485282Y-193785528D01*
X265485282Y-193785528D02*
X265199568Y-193785528D01*
X265199568Y-193785528D02*
X265056710Y-193714100D01*
X265056710Y-193714100D02*
X264985282Y-193571242D01*
X264985282Y-193571242D02*
X264985282Y-192999814D01*
X264985282Y-192999814D02*
X265056710Y-192856957D01*
X265056710Y-192856957D02*
X265199568Y-192785528D01*
X265199568Y-192785528D02*
X265485282Y-192785528D01*
X265485282Y-192785528D02*
X265628139Y-192856957D01*
X265628139Y-192856957D02*
X265699568Y-192999814D01*
X265699568Y-192999814D02*
X265699568Y-193142671D01*
X265699568Y-193142671D02*
X264985282Y-193285528D01*
X266199567Y-192785528D02*
X266556710Y-193785528D01*
X266556710Y-193785528D02*
X266913853Y-192785528D01*
X267485281Y-193642671D02*
X267556710Y-193714100D01*
X267556710Y-193714100D02*
X267485281Y-193785528D01*
X267485281Y-193785528D02*
X267413853Y-193714100D01*
X267413853Y-193714100D02*
X267485281Y-193642671D01*
X267485281Y-193642671D02*
X267485281Y-193785528D01*
X267485281Y-192856957D02*
X267556710Y-192928385D01*
X267556710Y-192928385D02*
X267485281Y-192999814D01*
X267485281Y-192999814D02*
X267413853Y-192928385D01*
X267413853Y-192928385D02*
X267485281Y-192856957D01*
X267485281Y-192856957D02*
X267485281Y-192999814D01*
D10*
D11*
X178386598Y-193721900D02*
X178600884Y-193793328D01*
X178600884Y-193793328D02*
X178958026Y-193793328D01*
X178958026Y-193793328D02*
X179100884Y-193721900D01*
X179100884Y-193721900D02*
X179172312Y-193650471D01*
X179172312Y-193650471D02*
X179243741Y-193507614D01*
X179243741Y-193507614D02*
X179243741Y-193364757D01*
X179243741Y-193364757D02*
X179172312Y-193221900D01*
X179172312Y-193221900D02*
X179100884Y-193150471D01*
X179100884Y-193150471D02*
X178958026Y-193079042D01*
X178958026Y-193079042D02*
X178672312Y-193007614D01*
X178672312Y-193007614D02*
X178529455Y-192936185D01*
X178529455Y-192936185D02*
X178458026Y-192864757D01*
X178458026Y-192864757D02*
X178386598Y-192721900D01*
X178386598Y-192721900D02*
X178386598Y-192579042D01*
X178386598Y-192579042D02*
X178458026Y-192436185D01*
X178458026Y-192436185D02*
X178529455Y-192364757D01*
X178529455Y-192364757D02*
X178672312Y-192293328D01*
X178672312Y-192293328D02*
X179029455Y-192293328D01*
X179029455Y-192293328D02*
X179243741Y-192364757D01*
X179886597Y-193793328D02*
X179886597Y-192793328D01*
X179886597Y-192293328D02*
X179815169Y-192364757D01*
X179815169Y-192364757D02*
X179886597Y-192436185D01*
X179886597Y-192436185D02*
X179958026Y-192364757D01*
X179958026Y-192364757D02*
X179886597Y-192293328D01*
X179886597Y-192293328D02*
X179886597Y-192436185D01*
X180458026Y-192793328D02*
X181243741Y-192793328D01*
X181243741Y-192793328D02*
X180458026Y-193793328D01*
X180458026Y-193793328D02*
X181243741Y-193793328D01*
X182386598Y-193721900D02*
X182243741Y-193793328D01*
X182243741Y-193793328D02*
X181958027Y-193793328D01*
X181958027Y-193793328D02*
X181815169Y-193721900D01*
X181815169Y-193721900D02*
X181743741Y-193579042D01*
X181743741Y-193579042D02*
X181743741Y-193007614D01*
X181743741Y-193007614D02*
X181815169Y-192864757D01*
X181815169Y-192864757D02*
X181958027Y-192793328D01*
X181958027Y-192793328D02*
X182243741Y-192793328D01*
X182243741Y-192793328D02*
X182386598Y-192864757D01*
X182386598Y-192864757D02*
X182458027Y-193007614D01*
X182458027Y-193007614D02*
X182458027Y-193150471D01*
X182458027Y-193150471D02*
X181743741Y-193293328D01*
X183100883Y-193650471D02*
X183172312Y-193721900D01*
X183172312Y-193721900D02*
X183100883Y-193793328D01*
X183100883Y-193793328D02*
X183029455Y-193721900D01*
X183029455Y-193721900D02*
X183100883Y-193650471D01*
X183100883Y-193650471D02*
X183100883Y-193793328D01*
X183100883Y-192864757D02*
X183172312Y-192936185D01*
X183172312Y-192936185D02*
X183100883Y-193007614D01*
X183100883Y-193007614D02*
X183029455Y-192936185D01*
X183029455Y-192936185D02*
X183100883Y-192864757D01*
X183100883Y-192864757D02*
X183100883Y-193007614D01*
X184886598Y-193364757D02*
X185600884Y-193364757D01*
X184743741Y-193793328D02*
X185243741Y-192293328D01*
X185243741Y-192293328D02*
X185743741Y-193793328D01*
X186886598Y-192793328D02*
X186886598Y-193793328D01*
X186529455Y-192221900D02*
X186172312Y-193293328D01*
X186172312Y-193293328D02*
X187100883Y-193293328D01*
D10*
D11*
X263458026Y-196593328D02*
X263458026Y-195093328D01*
X264815170Y-196593328D02*
X264815170Y-195093328D01*
X264815170Y-196521900D02*
X264672312Y-196593328D01*
X264672312Y-196593328D02*
X264386598Y-196593328D01*
X264386598Y-196593328D02*
X264243741Y-196521900D01*
X264243741Y-196521900D02*
X264172312Y-196450471D01*
X264172312Y-196450471D02*
X264100884Y-196307614D01*
X264100884Y-196307614D02*
X264100884Y-195879042D01*
X264100884Y-195879042D02*
X264172312Y-195736185D01*
X264172312Y-195736185D02*
X264243741Y-195664757D01*
X264243741Y-195664757D02*
X264386598Y-195593328D01*
X264386598Y-195593328D02*
X264672312Y-195593328D01*
X264672312Y-195593328D02*
X264815170Y-195664757D01*
X265529455Y-196450471D02*
X265600884Y-196521900D01*
X265600884Y-196521900D02*
X265529455Y-196593328D01*
X265529455Y-196593328D02*
X265458027Y-196521900D01*
X265458027Y-196521900D02*
X265529455Y-196450471D01*
X265529455Y-196450471D02*
X265529455Y-196593328D01*
X265529455Y-195664757D02*
X265600884Y-195736185D01*
X265600884Y-195736185D02*
X265529455Y-195807614D01*
X265529455Y-195807614D02*
X265458027Y-195736185D01*
X265458027Y-195736185D02*
X265529455Y-195664757D01*
X265529455Y-195664757D02*
X265529455Y-195807614D01*
X268100884Y-195093328D02*
X267386598Y-195093328D01*
X267386598Y-195093328D02*
X267315170Y-195807614D01*
X267315170Y-195807614D02*
X267386598Y-195736185D01*
X267386598Y-195736185D02*
X267529456Y-195664757D01*
X267529456Y-195664757D02*
X267886598Y-195664757D01*
X267886598Y-195664757D02*
X268029456Y-195736185D01*
X268029456Y-195736185D02*
X268100884Y-195807614D01*
X268100884Y-195807614D02*
X268172313Y-195950471D01*
X268172313Y-195950471D02*
X268172313Y-196307614D01*
X268172313Y-196307614D02*
X268100884Y-196450471D01*
X268100884Y-196450471D02*
X268029456Y-196521900D01*
X268029456Y-196521900D02*
X267886598Y-196593328D01*
X267886598Y-196593328D02*
X267529456Y-196593328D01*
X267529456Y-196593328D02*
X267386598Y-196521900D01*
X267386598Y-196521900D02*
X267315170Y-196450471D01*
X269886598Y-195021900D02*
X268600884Y-196950471D01*
X270600884Y-195736185D02*
X270458027Y-195664757D01*
X270458027Y-195664757D02*
X270386598Y-195593328D01*
X270386598Y-195593328D02*
X270315170Y-195450471D01*
X270315170Y-195450471D02*
X270315170Y-195379042D01*
X270315170Y-195379042D02*
X270386598Y-195236185D01*
X270386598Y-195236185D02*
X270458027Y-195164757D01*
X270458027Y-195164757D02*
X270600884Y-195093328D01*
X270600884Y-195093328D02*
X270886598Y-195093328D01*
X270886598Y-195093328D02*
X271029456Y-195164757D01*
X271029456Y-195164757D02*
X271100884Y-195236185D01*
X271100884Y-195236185D02*
X271172313Y-195379042D01*
X271172313Y-195379042D02*
X271172313Y-195450471D01*
X271172313Y-195450471D02*
X271100884Y-195593328D01*
X271100884Y-195593328D02*
X271029456Y-195664757D01*
X271029456Y-195664757D02*
X270886598Y-195736185D01*
X270886598Y-195736185D02*
X270600884Y-195736185D01*
X270600884Y-195736185D02*
X270458027Y-195807614D01*
X270458027Y-195807614D02*
X270386598Y-195879042D01*
X270386598Y-195879042D02*
X270315170Y-196021900D01*
X270315170Y-196021900D02*
X270315170Y-196307614D01*
X270315170Y-196307614D02*
X270386598Y-196450471D01*
X270386598Y-196450471D02*
X270458027Y-196521900D01*
X270458027Y-196521900D02*
X270600884Y-196593328D01*
X270600884Y-196593328D02*
X270886598Y-196593328D01*
X270886598Y-196593328D02*
X271029456Y-196521900D01*
X271029456Y-196521900D02*
X271100884Y-196450471D01*
X271100884Y-196450471D02*
X271172313Y-196307614D01*
X271172313Y-196307614D02*
X271172313Y-196021900D01*
X271172313Y-196021900D02*
X271100884Y-195879042D01*
X271100884Y-195879042D02*
X271029456Y-195807614D01*
X271029456Y-195807614D02*
X270886598Y-195736185D01*
D10*
D11*
X177002200Y-187507200D02*
X285002200Y-187507200D01*
D10*
D13*
X178693928Y-188211638D02*
X179836785Y-188211638D01*
X179015357Y-190211638D02*
X179265357Y-188211638D01*
X180253452Y-190211638D02*
X180420119Y-188878304D01*
X180503452Y-188211638D02*
X180396309Y-188306876D01*
X180396309Y-188306876D02*
X180479643Y-188402114D01*
X180479643Y-188402114D02*
X180586786Y-188306876D01*
X180586786Y-188306876D02*
X180503452Y-188211638D01*
X180503452Y-188211638D02*
X180479643Y-188402114D01*
X181086786Y-188878304D02*
X181848690Y-188878304D01*
X181455833Y-188211638D02*
X181241548Y-189925923D01*
X181241548Y-189925923D02*
X181312976Y-190116400D01*
X181312976Y-190116400D02*
X181491548Y-190211638D01*
X181491548Y-190211638D02*
X181682024Y-190211638D01*
X182634405Y-190211638D02*
X182455833Y-190116400D01*
X182455833Y-190116400D02*
X182384405Y-189925923D01*
X182384405Y-189925923D02*
X182598690Y-188211638D01*
X184170119Y-190116400D02*
X183967738Y-190211638D01*
X183967738Y-190211638D02*
X183586785Y-190211638D01*
X183586785Y-190211638D02*
X183408214Y-190116400D01*
X183408214Y-190116400D02*
X183336785Y-189925923D01*
X183336785Y-189925923D02*
X183432024Y-189164019D01*
X183432024Y-189164019D02*
X183551071Y-188973542D01*
X183551071Y-188973542D02*
X183753452Y-188878304D01*
X183753452Y-188878304D02*
X184134404Y-188878304D01*
X184134404Y-188878304D02*
X184312976Y-188973542D01*
X184312976Y-188973542D02*
X184384404Y-189164019D01*
X184384404Y-189164019D02*
X184360595Y-189354495D01*
X184360595Y-189354495D02*
X183384404Y-189544971D01*
X185134405Y-190021161D02*
X185217738Y-190116400D01*
X185217738Y-190116400D02*
X185110595Y-190211638D01*
X185110595Y-190211638D02*
X185027262Y-190116400D01*
X185027262Y-190116400D02*
X185134405Y-190021161D01*
X185134405Y-190021161D02*
X185110595Y-190211638D01*
X185265357Y-188973542D02*
X185348690Y-189068780D01*
X185348690Y-189068780D02*
X185241548Y-189164019D01*
X185241548Y-189164019D02*
X185158214Y-189068780D01*
X185158214Y-189068780D02*
X185265357Y-188973542D01*
X185265357Y-188973542D02*
X185241548Y-189164019D01*
D10*
D11*
X178958026Y-185607614D02*
X178458026Y-185607614D01*
X178458026Y-186393328D02*
X178458026Y-184893328D01*
X178458026Y-184893328D02*
X179172312Y-184893328D01*
X179743740Y-186393328D02*
X179743740Y-185393328D01*
X179743740Y-184893328D02*
X179672312Y-184964757D01*
X179672312Y-184964757D02*
X179743740Y-185036185D01*
X179743740Y-185036185D02*
X179815169Y-184964757D01*
X179815169Y-184964757D02*
X179743740Y-184893328D01*
X179743740Y-184893328D02*
X179743740Y-185036185D01*
X180672312Y-186393328D02*
X180529455Y-186321900D01*
X180529455Y-186321900D02*
X180458026Y-186179042D01*
X180458026Y-186179042D02*
X180458026Y-184893328D01*
X181815169Y-186321900D02*
X181672312Y-186393328D01*
X181672312Y-186393328D02*
X181386598Y-186393328D01*
X181386598Y-186393328D02*
X181243740Y-186321900D01*
X181243740Y-186321900D02*
X181172312Y-186179042D01*
X181172312Y-186179042D02*
X181172312Y-185607614D01*
X181172312Y-185607614D02*
X181243740Y-185464757D01*
X181243740Y-185464757D02*
X181386598Y-185393328D01*
X181386598Y-185393328D02*
X181672312Y-185393328D01*
X181672312Y-185393328D02*
X181815169Y-185464757D01*
X181815169Y-185464757D02*
X181886598Y-185607614D01*
X181886598Y-185607614D02*
X181886598Y-185750471D01*
X181886598Y-185750471D02*
X181172312Y-185893328D01*
X182529454Y-186250471D02*
X182600883Y-186321900D01*
X182600883Y-186321900D02*
X182529454Y-186393328D01*
X182529454Y-186393328D02*
X182458026Y-186321900D01*
X182458026Y-186321900D02*
X182529454Y-186250471D01*
X182529454Y-186250471D02*
X182529454Y-186393328D01*
X182529454Y-185464757D02*
X182600883Y-185536185D01*
X182600883Y-185536185D02*
X182529454Y-185607614D01*
X182529454Y-185607614D02*
X182458026Y-185536185D01*
X182458026Y-185536185D02*
X182529454Y-185464757D01*
X182529454Y-185464757D02*
X182529454Y-185607614D01*
X184386597Y-186393328D02*
X184386597Y-184893328D01*
X184386597Y-184893328D02*
X184743740Y-184893328D01*
X184743740Y-184893328D02*
X184958026Y-184964757D01*
X184958026Y-184964757D02*
X185100883Y-185107614D01*
X185100883Y-185107614D02*
X185172312Y-185250471D01*
X185172312Y-185250471D02*
X185243740Y-185536185D01*
X185243740Y-185536185D02*
X185243740Y-185750471D01*
X185243740Y-185750471D02*
X185172312Y-186036185D01*
X185172312Y-186036185D02*
X185100883Y-186179042D01*
X185100883Y-186179042D02*
X184958026Y-186321900D01*
X184958026Y-186321900D02*
X184743740Y-186393328D01*
X184743740Y-186393328D02*
X184386597Y-186393328D01*
X185886597Y-186393328D02*
X185886597Y-185393328D01*
X185886597Y-184893328D02*
X185815169Y-184964757D01*
X185815169Y-184964757D02*
X185886597Y-185036185D01*
X185886597Y-185036185D02*
X185958026Y-184964757D01*
X185958026Y-184964757D02*
X185886597Y-184893328D01*
X185886597Y-184893328D02*
X185886597Y-185036185D01*
X186529455Y-186321900D02*
X186672312Y-186393328D01*
X186672312Y-186393328D02*
X186958026Y-186393328D01*
X186958026Y-186393328D02*
X187100883Y-186321900D01*
X187100883Y-186321900D02*
X187172312Y-186179042D01*
X187172312Y-186179042D02*
X187172312Y-186107614D01*
X187172312Y-186107614D02*
X187100883Y-185964757D01*
X187100883Y-185964757D02*
X186958026Y-185893328D01*
X186958026Y-185893328D02*
X186743741Y-185893328D01*
X186743741Y-185893328D02*
X186600883Y-185821900D01*
X186600883Y-185821900D02*
X186529455Y-185679042D01*
X186529455Y-185679042D02*
X186529455Y-185607614D01*
X186529455Y-185607614D02*
X186600883Y-185464757D01*
X186600883Y-185464757D02*
X186743741Y-185393328D01*
X186743741Y-185393328D02*
X186958026Y-185393328D01*
X186958026Y-185393328D02*
X187100883Y-185464757D01*
X187600884Y-185393328D02*
X188172312Y-185393328D01*
X187815169Y-184893328D02*
X187815169Y-186179042D01*
X187815169Y-186179042D02*
X187886598Y-186321900D01*
X187886598Y-186321900D02*
X188029455Y-186393328D01*
X188029455Y-186393328D02*
X188172312Y-186393328D01*
X188886598Y-186393328D02*
X188743741Y-186321900D01*
X188743741Y-186321900D02*
X188672312Y-186250471D01*
X188672312Y-186250471D02*
X188600884Y-186107614D01*
X188600884Y-186107614D02*
X188600884Y-185679042D01*
X188600884Y-185679042D02*
X188672312Y-185536185D01*
X188672312Y-185536185D02*
X188743741Y-185464757D01*
X188743741Y-185464757D02*
X188886598Y-185393328D01*
X188886598Y-185393328D02*
X189100884Y-185393328D01*
X189100884Y-185393328D02*
X189243741Y-185464757D01*
X189243741Y-185464757D02*
X189315170Y-185536185D01*
X189315170Y-185536185D02*
X189386598Y-185679042D01*
X189386598Y-185679042D02*
X189386598Y-186107614D01*
X189386598Y-186107614D02*
X189315170Y-186250471D01*
X189315170Y-186250471D02*
X189243741Y-186321900D01*
X189243741Y-186321900D02*
X189100884Y-186393328D01*
X189100884Y-186393328D02*
X188886598Y-186393328D01*
X190029455Y-186393328D02*
X190029455Y-185393328D01*
X190029455Y-185679042D02*
X190100884Y-185536185D01*
X190100884Y-185536185D02*
X190172313Y-185464757D01*
X190172313Y-185464757D02*
X190315170Y-185393328D01*
X190315170Y-185393328D02*
X190458027Y-185393328D01*
X190743741Y-185393328D02*
X191315169Y-185393328D01*
X190958026Y-184893328D02*
X190958026Y-186179042D01*
X190958026Y-186179042D02*
X191029455Y-186321900D01*
X191029455Y-186321900D02*
X191172312Y-186393328D01*
X191172312Y-186393328D02*
X191315169Y-186393328D01*
X191815169Y-186393328D02*
X191815169Y-185393328D01*
X191815169Y-184893328D02*
X191743741Y-184964757D01*
X191743741Y-184964757D02*
X191815169Y-185036185D01*
X191815169Y-185036185D02*
X191886598Y-184964757D01*
X191886598Y-184964757D02*
X191815169Y-184893328D01*
X191815169Y-184893328D02*
X191815169Y-185036185D01*
X192743741Y-186393328D02*
X192600884Y-186321900D01*
X192600884Y-186321900D02*
X192529455Y-186250471D01*
X192529455Y-186250471D02*
X192458027Y-186107614D01*
X192458027Y-186107614D02*
X192458027Y-185679042D01*
X192458027Y-185679042D02*
X192529455Y-185536185D01*
X192529455Y-185536185D02*
X192600884Y-185464757D01*
X192600884Y-185464757D02*
X192743741Y-185393328D01*
X192743741Y-185393328D02*
X192958027Y-185393328D01*
X192958027Y-185393328D02*
X193100884Y-185464757D01*
X193100884Y-185464757D02*
X193172313Y-185536185D01*
X193172313Y-185536185D02*
X193243741Y-185679042D01*
X193243741Y-185679042D02*
X193243741Y-186107614D01*
X193243741Y-186107614D02*
X193172313Y-186250471D01*
X193172313Y-186250471D02*
X193100884Y-186321900D01*
X193100884Y-186321900D02*
X192958027Y-186393328D01*
X192958027Y-186393328D02*
X192743741Y-186393328D01*
X193886598Y-185393328D02*
X193886598Y-186393328D01*
X193886598Y-185536185D02*
X193958027Y-185464757D01*
X193958027Y-185464757D02*
X194100884Y-185393328D01*
X194100884Y-185393328D02*
X194315170Y-185393328D01*
X194315170Y-185393328D02*
X194458027Y-185464757D01*
X194458027Y-185464757D02*
X194529456Y-185607614D01*
X194529456Y-185607614D02*
X194529456Y-186393328D01*
X196386598Y-186393328D02*
X196386598Y-184893328D01*
X196386598Y-184893328D02*
X196958027Y-184893328D01*
X196958027Y-184893328D02*
X197100884Y-184964757D01*
X197100884Y-184964757D02*
X197172313Y-185036185D01*
X197172313Y-185036185D02*
X197243741Y-185179042D01*
X197243741Y-185179042D02*
X197243741Y-185393328D01*
X197243741Y-185393328D02*
X197172313Y-185536185D01*
X197172313Y-185536185D02*
X197100884Y-185607614D01*
X197100884Y-185607614D02*
X196958027Y-185679042D01*
X196958027Y-185679042D02*
X196386598Y-185679042D01*
X198458027Y-186321900D02*
X198315170Y-186393328D01*
X198315170Y-186393328D02*
X198029456Y-186393328D01*
X198029456Y-186393328D02*
X197886598Y-186321900D01*
X197886598Y-186321900D02*
X197815170Y-186179042D01*
X197815170Y-186179042D02*
X197815170Y-185607614D01*
X197815170Y-185607614D02*
X197886598Y-185464757D01*
X197886598Y-185464757D02*
X198029456Y-185393328D01*
X198029456Y-185393328D02*
X198315170Y-185393328D01*
X198315170Y-185393328D02*
X198458027Y-185464757D01*
X198458027Y-185464757D02*
X198529456Y-185607614D01*
X198529456Y-185607614D02*
X198529456Y-185750471D01*
X198529456Y-185750471D02*
X197815170Y-185893328D01*
X199815170Y-186393328D02*
X199815170Y-184893328D01*
X199815170Y-186321900D02*
X199672312Y-186393328D01*
X199672312Y-186393328D02*
X199386598Y-186393328D01*
X199386598Y-186393328D02*
X199243741Y-186321900D01*
X199243741Y-186321900D02*
X199172312Y-186250471D01*
X199172312Y-186250471D02*
X199100884Y-186107614D01*
X199100884Y-186107614D02*
X199100884Y-185679042D01*
X199100884Y-185679042D02*
X199172312Y-185536185D01*
X199172312Y-185536185D02*
X199243741Y-185464757D01*
X199243741Y-185464757D02*
X199386598Y-185393328D01*
X199386598Y-185393328D02*
X199672312Y-185393328D01*
X199672312Y-185393328D02*
X199815170Y-185464757D01*
X201172313Y-186393328D02*
X201172313Y-185607614D01*
X201172313Y-185607614D02*
X201100884Y-185464757D01*
X201100884Y-185464757D02*
X200958027Y-185393328D01*
X200958027Y-185393328D02*
X200672313Y-185393328D01*
X200672313Y-185393328D02*
X200529455Y-185464757D01*
X201172313Y-186321900D02*
X201029455Y-186393328D01*
X201029455Y-186393328D02*
X200672313Y-186393328D01*
X200672313Y-186393328D02*
X200529455Y-186321900D01*
X200529455Y-186321900D02*
X200458027Y-186179042D01*
X200458027Y-186179042D02*
X200458027Y-186036185D01*
X200458027Y-186036185D02*
X200529455Y-185893328D01*
X200529455Y-185893328D02*
X200672313Y-185821900D01*
X200672313Y-185821900D02*
X201029455Y-185821900D01*
X201029455Y-185821900D02*
X201172313Y-185750471D01*
X202100884Y-186393328D02*
X201958027Y-186321900D01*
X201958027Y-186321900D02*
X201886598Y-186179042D01*
X201886598Y-186179042D02*
X201886598Y-184893328D01*
X202672312Y-186250471D02*
X202743741Y-186321900D01*
X202743741Y-186321900D02*
X202672312Y-186393328D01*
X202672312Y-186393328D02*
X202600884Y-186321900D01*
X202600884Y-186321900D02*
X202672312Y-186250471D01*
X202672312Y-186250471D02*
X202672312Y-186393328D01*
X203386598Y-186393328D02*
X203386598Y-184893328D01*
X203529456Y-185821900D02*
X203958027Y-186393328D01*
X203958027Y-185393328D02*
X203386598Y-185964757D01*
X204600884Y-186393328D02*
X204600884Y-185393328D01*
X204600884Y-184893328D02*
X204529456Y-184964757D01*
X204529456Y-184964757D02*
X204600884Y-185036185D01*
X204600884Y-185036185D02*
X204672313Y-184964757D01*
X204672313Y-184964757D02*
X204600884Y-184893328D01*
X204600884Y-184893328D02*
X204600884Y-185036185D01*
X205958028Y-186321900D02*
X205815170Y-186393328D01*
X205815170Y-186393328D02*
X205529456Y-186393328D01*
X205529456Y-186393328D02*
X205386599Y-186321900D01*
X205386599Y-186321900D02*
X205315170Y-186250471D01*
X205315170Y-186250471D02*
X205243742Y-186107614D01*
X205243742Y-186107614D02*
X205243742Y-185679042D01*
X205243742Y-185679042D02*
X205315170Y-185536185D01*
X205315170Y-185536185D02*
X205386599Y-185464757D01*
X205386599Y-185464757D02*
X205529456Y-185393328D01*
X205529456Y-185393328D02*
X205815170Y-185393328D01*
X205815170Y-185393328D02*
X205958028Y-185464757D01*
X207243742Y-186393328D02*
X207243742Y-185607614D01*
X207243742Y-185607614D02*
X207172313Y-185464757D01*
X207172313Y-185464757D02*
X207029456Y-185393328D01*
X207029456Y-185393328D02*
X206743742Y-185393328D01*
X206743742Y-185393328D02*
X206600884Y-185464757D01*
X207243742Y-186321900D02*
X207100884Y-186393328D01*
X207100884Y-186393328D02*
X206743742Y-186393328D01*
X206743742Y-186393328D02*
X206600884Y-186321900D01*
X206600884Y-186321900D02*
X206529456Y-186179042D01*
X206529456Y-186179042D02*
X206529456Y-186036185D01*
X206529456Y-186036185D02*
X206600884Y-185893328D01*
X206600884Y-185893328D02*
X206743742Y-185821900D01*
X206743742Y-185821900D02*
X207100884Y-185821900D01*
X207100884Y-185821900D02*
X207243742Y-185750471D01*
X208600885Y-186393328D02*
X208600885Y-184893328D01*
X208600885Y-186321900D02*
X208458027Y-186393328D01*
X208458027Y-186393328D02*
X208172313Y-186393328D01*
X208172313Y-186393328D02*
X208029456Y-186321900D01*
X208029456Y-186321900D02*
X207958027Y-186250471D01*
X207958027Y-186250471D02*
X207886599Y-186107614D01*
X207886599Y-186107614D02*
X207886599Y-185679042D01*
X207886599Y-185679042D02*
X207958027Y-185536185D01*
X207958027Y-185536185D02*
X208029456Y-185464757D01*
X208029456Y-185464757D02*
X208172313Y-185393328D01*
X208172313Y-185393328D02*
X208458027Y-185393328D01*
X208458027Y-185393328D02*
X208600885Y-185464757D01*
X208958028Y-186536185D02*
X210100885Y-186536185D01*
X210458027Y-185393328D02*
X210458027Y-186893328D01*
X210458027Y-185464757D02*
X210600885Y-185393328D01*
X210600885Y-185393328D02*
X210886599Y-185393328D01*
X210886599Y-185393328D02*
X211029456Y-185464757D01*
X211029456Y-185464757D02*
X211100885Y-185536185D01*
X211100885Y-185536185D02*
X211172313Y-185679042D01*
X211172313Y-185679042D02*
X211172313Y-186107614D01*
X211172313Y-186107614D02*
X211100885Y-186250471D01*
X211100885Y-186250471D02*
X211029456Y-186321900D01*
X211029456Y-186321900D02*
X210886599Y-186393328D01*
X210886599Y-186393328D02*
X210600885Y-186393328D01*
X210600885Y-186393328D02*
X210458027Y-186321900D01*
X212458028Y-186321900D02*
X212315170Y-186393328D01*
X212315170Y-186393328D02*
X212029456Y-186393328D01*
X212029456Y-186393328D02*
X211886599Y-186321900D01*
X211886599Y-186321900D02*
X211815170Y-186250471D01*
X211815170Y-186250471D02*
X211743742Y-186107614D01*
X211743742Y-186107614D02*
X211743742Y-185679042D01*
X211743742Y-185679042D02*
X211815170Y-185536185D01*
X211815170Y-185536185D02*
X211886599Y-185464757D01*
X211886599Y-185464757D02*
X212029456Y-185393328D01*
X212029456Y-185393328D02*
X212315170Y-185393328D01*
X212315170Y-185393328D02*
X212458028Y-185464757D01*
X213100884Y-186393328D02*
X213100884Y-184893328D01*
X213100884Y-185464757D02*
X213243742Y-185393328D01*
X213243742Y-185393328D02*
X213529456Y-185393328D01*
X213529456Y-185393328D02*
X213672313Y-185464757D01*
X213672313Y-185464757D02*
X213743742Y-185536185D01*
X213743742Y-185536185D02*
X213815170Y-185679042D01*
X213815170Y-185679042D02*
X213815170Y-186107614D01*
X213815170Y-186107614D02*
X213743742Y-186250471D01*
X213743742Y-186250471D02*
X213672313Y-186321900D01*
X213672313Y-186321900D02*
X213529456Y-186393328D01*
X213529456Y-186393328D02*
X213243742Y-186393328D01*
X213243742Y-186393328D02*
X213100884Y-186321900D01*
D10*
D11*
X177002200Y-181507200D02*
X285002200Y-181507200D01*
D10*
D11*
X178386598Y-183621900D02*
X178600884Y-183693328D01*
X178600884Y-183693328D02*
X178958026Y-183693328D01*
X178958026Y-183693328D02*
X179100884Y-183621900D01*
X179100884Y-183621900D02*
X179172312Y-183550471D01*
X179172312Y-183550471D02*
X179243741Y-183407614D01*
X179243741Y-183407614D02*
X179243741Y-183264757D01*
X179243741Y-183264757D02*
X179172312Y-183121900D01*
X179172312Y-183121900D02*
X179100884Y-183050471D01*
X179100884Y-183050471D02*
X178958026Y-182979042D01*
X178958026Y-182979042D02*
X178672312Y-182907614D01*
X178672312Y-182907614D02*
X178529455Y-182836185D01*
X178529455Y-182836185D02*
X178458026Y-182764757D01*
X178458026Y-182764757D02*
X178386598Y-182621900D01*
X178386598Y-182621900D02*
X178386598Y-182479042D01*
X178386598Y-182479042D02*
X178458026Y-182336185D01*
X178458026Y-182336185D02*
X178529455Y-182264757D01*
X178529455Y-182264757D02*
X178672312Y-182193328D01*
X178672312Y-182193328D02*
X179029455Y-182193328D01*
X179029455Y-182193328D02*
X179243741Y-182264757D01*
X179886597Y-183693328D02*
X179886597Y-182193328D01*
X180529455Y-183693328D02*
X180529455Y-182907614D01*
X180529455Y-182907614D02*
X180458026Y-182764757D01*
X180458026Y-182764757D02*
X180315169Y-182693328D01*
X180315169Y-182693328D02*
X180100883Y-182693328D01*
X180100883Y-182693328D02*
X179958026Y-182764757D01*
X179958026Y-182764757D02*
X179886597Y-182836185D01*
X181815169Y-183621900D02*
X181672312Y-183693328D01*
X181672312Y-183693328D02*
X181386598Y-183693328D01*
X181386598Y-183693328D02*
X181243740Y-183621900D01*
X181243740Y-183621900D02*
X181172312Y-183479042D01*
X181172312Y-183479042D02*
X181172312Y-182907614D01*
X181172312Y-182907614D02*
X181243740Y-182764757D01*
X181243740Y-182764757D02*
X181386598Y-182693328D01*
X181386598Y-182693328D02*
X181672312Y-182693328D01*
X181672312Y-182693328D02*
X181815169Y-182764757D01*
X181815169Y-182764757D02*
X181886598Y-182907614D01*
X181886598Y-182907614D02*
X181886598Y-183050471D01*
X181886598Y-183050471D02*
X181172312Y-183193328D01*
X183100883Y-183621900D02*
X182958026Y-183693328D01*
X182958026Y-183693328D02*
X182672312Y-183693328D01*
X182672312Y-183693328D02*
X182529454Y-183621900D01*
X182529454Y-183621900D02*
X182458026Y-183479042D01*
X182458026Y-183479042D02*
X182458026Y-182907614D01*
X182458026Y-182907614D02*
X182529454Y-182764757D01*
X182529454Y-182764757D02*
X182672312Y-182693328D01*
X182672312Y-182693328D02*
X182958026Y-182693328D01*
X182958026Y-182693328D02*
X183100883Y-182764757D01*
X183100883Y-182764757D02*
X183172312Y-182907614D01*
X183172312Y-182907614D02*
X183172312Y-183050471D01*
X183172312Y-183050471D02*
X182458026Y-183193328D01*
X183600883Y-182693328D02*
X184172311Y-182693328D01*
X183815168Y-182193328D02*
X183815168Y-183479042D01*
X183815168Y-183479042D02*
X183886597Y-183621900D01*
X183886597Y-183621900D02*
X184029454Y-183693328D01*
X184029454Y-183693328D02*
X184172311Y-183693328D01*
X184672311Y-183550471D02*
X184743740Y-183621900D01*
X184743740Y-183621900D02*
X184672311Y-183693328D01*
X184672311Y-183693328D02*
X184600883Y-183621900D01*
X184600883Y-183621900D02*
X184672311Y-183550471D01*
X184672311Y-183550471D02*
X184672311Y-183693328D01*
X184672311Y-182764757D02*
X184743740Y-182836185D01*
X184743740Y-182836185D02*
X184672311Y-182907614D01*
X184672311Y-182907614D02*
X184600883Y-182836185D01*
X184600883Y-182836185D02*
X184672311Y-182764757D01*
X184672311Y-182764757D02*
X184672311Y-182907614D01*
D10*
D11*
X197002200Y-191507200D02*
X197002200Y-194507200D01*
D10*
D11*
X261002200Y-191507200D02*
X261002200Y-198007200D01*
X167505142Y-93702438D02*
X167409904Y-93654819D01*
X167409904Y-93654819D02*
X167267047Y-93654819D01*
X167267047Y-93654819D02*
X167124190Y-93702438D01*
X167124190Y-93702438D02*
X167028952Y-93797676D01*
X167028952Y-93797676D02*
X166981333Y-93892914D01*
X166981333Y-93892914D02*
X166933714Y-94083390D01*
X166933714Y-94083390D02*
X166933714Y-94226247D01*
X166933714Y-94226247D02*
X166981333Y-94416723D01*
X166981333Y-94416723D02*
X167028952Y-94511961D01*
X167028952Y-94511961D02*
X167124190Y-94607200D01*
X167124190Y-94607200D02*
X167267047Y-94654819D01*
X167267047Y-94654819D02*
X167362285Y-94654819D01*
X167362285Y-94654819D02*
X167505142Y-94607200D01*
X167505142Y-94607200D02*
X167552761Y-94559580D01*
X167552761Y-94559580D02*
X167552761Y-94226247D01*
X167552761Y-94226247D02*
X167362285Y-94226247D01*
X167981333Y-93988152D02*
X167981333Y-94654819D01*
X167981333Y-94083390D02*
X168028952Y-94035771D01*
X168028952Y-94035771D02*
X168124190Y-93988152D01*
X168124190Y-93988152D02*
X168267047Y-93988152D01*
X168267047Y-93988152D02*
X168362285Y-94035771D01*
X168362285Y-94035771D02*
X168409904Y-94131009D01*
X168409904Y-94131009D02*
X168409904Y-94654819D01*
X169314666Y-94654819D02*
X169314666Y-93654819D01*
X169314666Y-94607200D02*
X169219428Y-94654819D01*
X169219428Y-94654819D02*
X169028952Y-94654819D01*
X169028952Y-94654819D02*
X168933714Y-94607200D01*
X168933714Y-94607200D02*
X168886095Y-94559580D01*
X168886095Y-94559580D02*
X168838476Y-94464342D01*
X168838476Y-94464342D02*
X168838476Y-94178628D01*
X168838476Y-94178628D02*
X168886095Y-94083390D01*
X168886095Y-94083390D02*
X168933714Y-94035771D01*
X168933714Y-94035771D02*
X169028952Y-93988152D01*
X169028952Y-93988152D02*
X169219428Y-93988152D01*
X169219428Y-93988152D02*
X169314666Y-94035771D01*
X165060476Y-111659200D02*
X165203333Y-111706819D01*
X165203333Y-111706819D02*
X165441428Y-111706819D01*
X165441428Y-111706819D02*
X165536666Y-111659200D01*
X165536666Y-111659200D02*
X165584285Y-111611580D01*
X165584285Y-111611580D02*
X165631904Y-111516342D01*
X165631904Y-111516342D02*
X165631904Y-111421104D01*
X165631904Y-111421104D02*
X165584285Y-111325866D01*
X165584285Y-111325866D02*
X165536666Y-111278247D01*
X165536666Y-111278247D02*
X165441428Y-111230628D01*
X165441428Y-111230628D02*
X165250952Y-111183009D01*
X165250952Y-111183009D02*
X165155714Y-111135390D01*
X165155714Y-111135390D02*
X165108095Y-111087771D01*
X165108095Y-111087771D02*
X165060476Y-110992533D01*
X165060476Y-110992533D02*
X165060476Y-110897295D01*
X165060476Y-110897295D02*
X165108095Y-110802057D01*
X165108095Y-110802057D02*
X165155714Y-110754438D01*
X165155714Y-110754438D02*
X165250952Y-110706819D01*
X165250952Y-110706819D02*
X165489047Y-110706819D01*
X165489047Y-110706819D02*
X165631904Y-110754438D01*
X165965238Y-111040152D02*
X166155714Y-111706819D01*
X166155714Y-111706819D02*
X166346190Y-111230628D01*
X166346190Y-111230628D02*
X166536666Y-111706819D01*
X166536666Y-111706819D02*
X166727142Y-111040152D01*
X167631904Y-110754438D02*
X167536666Y-110706819D01*
X167536666Y-110706819D02*
X167393809Y-110706819D01*
X167393809Y-110706819D02*
X167250952Y-110754438D01*
X167250952Y-110754438D02*
X167155714Y-110849676D01*
X167155714Y-110849676D02*
X167108095Y-110944914D01*
X167108095Y-110944914D02*
X167060476Y-111135390D01*
X167060476Y-111135390D02*
X167060476Y-111278247D01*
X167060476Y-111278247D02*
X167108095Y-111468723D01*
X167108095Y-111468723D02*
X167155714Y-111563961D01*
X167155714Y-111563961D02*
X167250952Y-111659200D01*
X167250952Y-111659200D02*
X167393809Y-111706819D01*
X167393809Y-111706819D02*
X167489047Y-111706819D01*
X167489047Y-111706819D02*
X167631904Y-111659200D01*
X167631904Y-111659200D02*
X167679523Y-111611580D01*
X167679523Y-111611580D02*
X167679523Y-111278247D01*
X167679523Y-111278247D02*
X167489047Y-111278247D01*
X169235523Y-104182152D02*
X169235523Y-104848819D01*
X168997428Y-103801200D02*
X168759333Y-104515485D01*
X168759333Y-104515485D02*
X169378380Y-104515485D01*
X169664095Y-103848819D02*
X170283142Y-103848819D01*
X170283142Y-103848819D02*
X169949809Y-104229771D01*
X169949809Y-104229771D02*
X170092666Y-104229771D01*
X170092666Y-104229771D02*
X170187904Y-104277390D01*
X170187904Y-104277390D02*
X170235523Y-104325009D01*
X170235523Y-104325009D02*
X170283142Y-104420247D01*
X170283142Y-104420247D02*
X170283142Y-104658342D01*
X170283142Y-104658342D02*
X170235523Y-104753580D01*
X170235523Y-104753580D02*
X170187904Y-104801200D01*
X170187904Y-104801200D02*
X170092666Y-104848819D01*
X170092666Y-104848819D02*
X169806952Y-104848819D01*
X169806952Y-104848819D02*
X169711714Y-104801200D01*
X169711714Y-104801200D02*
X169664095Y-104753580D01*
X170711714Y-104848819D02*
X170711714Y-103848819D01*
X170806952Y-104467866D02*
X171092666Y-104848819D01*
X171092666Y-104182152D02*
X170711714Y-104563104D01*
X172632762Y-110706819D02*
X172823238Y-110706819D01*
X172823238Y-110706819D02*
X172918476Y-110754438D01*
X172918476Y-110754438D02*
X173013714Y-110849676D01*
X173013714Y-110849676D02*
X173061333Y-111040152D01*
X173061333Y-111040152D02*
X173061333Y-111373485D01*
X173061333Y-111373485D02*
X173013714Y-111563961D01*
X173013714Y-111563961D02*
X172918476Y-111659200D01*
X172918476Y-111659200D02*
X172823238Y-111706819D01*
X172823238Y-111706819D02*
X172632762Y-111706819D01*
X172632762Y-111706819D02*
X172537524Y-111659200D01*
X172537524Y-111659200D02*
X172442286Y-111563961D01*
X172442286Y-111563961D02*
X172394667Y-111373485D01*
X172394667Y-111373485D02*
X172394667Y-111040152D01*
X172394667Y-111040152D02*
X172442286Y-110849676D01*
X172442286Y-110849676D02*
X172537524Y-110754438D01*
X172537524Y-110754438D02*
X172632762Y-110706819D01*
X174013714Y-110754438D02*
X173918476Y-110706819D01*
X173918476Y-110706819D02*
X173775619Y-110706819D01*
X173775619Y-110706819D02*
X173632762Y-110754438D01*
X173632762Y-110754438D02*
X173537524Y-110849676D01*
X173537524Y-110849676D02*
X173489905Y-110944914D01*
X173489905Y-110944914D02*
X173442286Y-111135390D01*
X173442286Y-111135390D02*
X173442286Y-111278247D01*
X173442286Y-111278247D02*
X173489905Y-111468723D01*
X173489905Y-111468723D02*
X173537524Y-111563961D01*
X173537524Y-111563961D02*
X173632762Y-111659200D01*
X173632762Y-111659200D02*
X173775619Y-111706819D01*
X173775619Y-111706819D02*
X173870857Y-111706819D01*
X173870857Y-111706819D02*
X174013714Y-111659200D01*
X174013714Y-111659200D02*
X174061333Y-111611580D01*
X174061333Y-111611580D02*
X174061333Y-111278247D01*
X174061333Y-111278247D02*
X173870857Y-111278247D01*
X157972286Y-96228819D02*
X158591333Y-96228819D01*
X158591333Y-96228819D02*
X158258000Y-96609771D01*
X158258000Y-96609771D02*
X158400857Y-96609771D01*
X158400857Y-96609771D02*
X158496095Y-96657390D01*
X158496095Y-96657390D02*
X158543714Y-96705009D01*
X158543714Y-96705009D02*
X158591333Y-96800247D01*
X158591333Y-96800247D02*
X158591333Y-97038342D01*
X158591333Y-97038342D02*
X158543714Y-97133580D01*
X158543714Y-97133580D02*
X158496095Y-97181200D01*
X158496095Y-97181200D02*
X158400857Y-97228819D01*
X158400857Y-97228819D02*
X158115143Y-97228819D01*
X158115143Y-97228819D02*
X158019905Y-97181200D01*
X158019905Y-97181200D02*
X157972286Y-97133580D01*
X159067524Y-97228819D02*
X159258000Y-97228819D01*
X159258000Y-97228819D02*
X159353238Y-97181200D01*
X159353238Y-97181200D02*
X159400857Y-97133580D01*
X159400857Y-97133580D02*
X159496095Y-96990723D01*
X159496095Y-96990723D02*
X159543714Y-96800247D01*
X159543714Y-96800247D02*
X159543714Y-96419295D01*
X159543714Y-96419295D02*
X159496095Y-96324057D01*
X159496095Y-96324057D02*
X159448476Y-96276438D01*
X159448476Y-96276438D02*
X159353238Y-96228819D01*
X159353238Y-96228819D02*
X159162762Y-96228819D01*
X159162762Y-96228819D02*
X159067524Y-96276438D01*
X159067524Y-96276438D02*
X159019905Y-96324057D01*
X159019905Y-96324057D02*
X158972286Y-96419295D01*
X158972286Y-96419295D02*
X158972286Y-96657390D01*
X158972286Y-96657390D02*
X159019905Y-96752628D01*
X159019905Y-96752628D02*
X159067524Y-96800247D01*
X159067524Y-96800247D02*
X159162762Y-96847866D01*
X159162762Y-96847866D02*
X159353238Y-96847866D01*
X159353238Y-96847866D02*
X159448476Y-96800247D01*
X159448476Y-96800247D02*
X159496095Y-96752628D01*
X159496095Y-96752628D02*
X159543714Y-96657390D01*
X160162762Y-96228819D02*
X160258000Y-96228819D01*
X160258000Y-96228819D02*
X160353238Y-96276438D01*
X160353238Y-96276438D02*
X160400857Y-96324057D01*
X160400857Y-96324057D02*
X160448476Y-96419295D01*
X160448476Y-96419295D02*
X160496095Y-96609771D01*
X160496095Y-96609771D02*
X160496095Y-96847866D01*
X160496095Y-96847866D02*
X160448476Y-97038342D01*
X160448476Y-97038342D02*
X160400857Y-97133580D01*
X160400857Y-97133580D02*
X160353238Y-97181200D01*
X160353238Y-97181200D02*
X160258000Y-97228819D01*
X160258000Y-97228819D02*
X160162762Y-97228819D01*
X160162762Y-97228819D02*
X160067524Y-97181200D01*
X160067524Y-97181200D02*
X160019905Y-97133580D01*
X160019905Y-97133580D02*
X159972286Y-97038342D01*
X159972286Y-97038342D02*
X159924667Y-96847866D01*
X159924667Y-96847866D02*
X159924667Y-96609771D01*
X159924667Y-96609771D02*
X159972286Y-96419295D01*
X159972286Y-96419295D02*
X160019905Y-96324057D01*
X160019905Y-96324057D02*
X160067524Y-96276438D01*
X160067524Y-96276438D02*
X160162762Y-96228819D01*
X158662761Y-93926819D02*
X158091333Y-93926819D01*
X158377047Y-93926819D02*
X158377047Y-92926819D01*
X158377047Y-92926819D02*
X158281809Y-93069676D01*
X158281809Y-93069676D02*
X158186571Y-93164914D01*
X158186571Y-93164914D02*
X158091333Y-93212533D01*
X159281809Y-92926819D02*
X159377047Y-92926819D01*
X159377047Y-92926819D02*
X159472285Y-92974438D01*
X159472285Y-92974438D02*
X159519904Y-93022057D01*
X159519904Y-93022057D02*
X159567523Y-93117295D01*
X159567523Y-93117295D02*
X159615142Y-93307771D01*
X159615142Y-93307771D02*
X159615142Y-93545866D01*
X159615142Y-93545866D02*
X159567523Y-93736342D01*
X159567523Y-93736342D02*
X159519904Y-93831580D01*
X159519904Y-93831580D02*
X159472285Y-93879200D01*
X159472285Y-93879200D02*
X159377047Y-93926819D01*
X159377047Y-93926819D02*
X159281809Y-93926819D01*
X159281809Y-93926819D02*
X159186571Y-93879200D01*
X159186571Y-93879200D02*
X159138952Y-93831580D01*
X159138952Y-93831580D02*
X159091333Y-93736342D01*
X159091333Y-93736342D02*
X159043714Y-93545866D01*
X159043714Y-93545866D02*
X159043714Y-93307771D01*
X159043714Y-93307771D02*
X159091333Y-93117295D01*
X159091333Y-93117295D02*
X159138952Y-93022057D01*
X159138952Y-93022057D02*
X159186571Y-92974438D01*
X159186571Y-92974438D02*
X159281809Y-92926819D01*
X160043714Y-93926819D02*
X160043714Y-92926819D01*
X160138952Y-93545866D02*
X160424666Y-93926819D01*
X160424666Y-93260152D02*
X160043714Y-93641104D01*
X159567619Y-111706819D02*
X159567619Y-110706819D01*
X160043809Y-111040152D02*
X160043809Y-111706819D01*
X160043809Y-111135390D02*
X160091428Y-111087771D01*
X160091428Y-111087771D02*
X160186666Y-111040152D01*
X160186666Y-111040152D02*
X160329523Y-111040152D01*
X160329523Y-111040152D02*
X160424761Y-111087771D01*
X160424761Y-111087771D02*
X160472380Y-111183009D01*
X160472380Y-111183009D02*
X160472380Y-111706819D01*
X149902057Y-93567238D02*
X149854438Y-93662476D01*
X149854438Y-93662476D02*
X149759200Y-93757714D01*
X149759200Y-93757714D02*
X149616342Y-93900571D01*
X149616342Y-93900571D02*
X149568723Y-93995809D01*
X149568723Y-93995809D02*
X149568723Y-94091047D01*
X149806819Y-94043428D02*
X149759200Y-94138666D01*
X149759200Y-94138666D02*
X149663961Y-94233904D01*
X149663961Y-94233904D02*
X149473485Y-94281523D01*
X149473485Y-94281523D02*
X149140152Y-94281523D01*
X149140152Y-94281523D02*
X148949676Y-94233904D01*
X148949676Y-94233904D02*
X148854438Y-94138666D01*
X148854438Y-94138666D02*
X148806819Y-94043428D01*
X148806819Y-94043428D02*
X148806819Y-93852952D01*
X148806819Y-93852952D02*
X148854438Y-93757714D01*
X148854438Y-93757714D02*
X148949676Y-93662476D01*
X148949676Y-93662476D02*
X149140152Y-93614857D01*
X149140152Y-93614857D02*
X149473485Y-93614857D01*
X149473485Y-93614857D02*
X149663961Y-93662476D01*
X149663961Y-93662476D02*
X149759200Y-93757714D01*
X149759200Y-93757714D02*
X149806819Y-93852952D01*
X149806819Y-93852952D02*
X149806819Y-94043428D01*
X148902057Y-93233904D02*
X148854438Y-93186285D01*
X148854438Y-93186285D02*
X148806819Y-93091047D01*
X148806819Y-93091047D02*
X148806819Y-92852952D01*
X148806819Y-92852952D02*
X148854438Y-92757714D01*
X148854438Y-92757714D02*
X148902057Y-92710095D01*
X148902057Y-92710095D02*
X148997295Y-92662476D01*
X148997295Y-92662476D02*
X149092533Y-92662476D01*
X149092533Y-92662476D02*
X149235390Y-92710095D01*
X149235390Y-92710095D02*
X149806819Y-93281523D01*
X149806819Y-93281523D02*
X149806819Y-92662476D01*
X153470057Y-96186285D02*
X153422438Y-96138666D01*
X153422438Y-96138666D02*
X153374819Y-96043428D01*
X153374819Y-96043428D02*
X153374819Y-95805333D01*
X153374819Y-95805333D02*
X153422438Y-95710095D01*
X153422438Y-95710095D02*
X153470057Y-95662476D01*
X153470057Y-95662476D02*
X153565295Y-95614857D01*
X153565295Y-95614857D02*
X153660533Y-95614857D01*
X153660533Y-95614857D02*
X153803390Y-95662476D01*
X153803390Y-95662476D02*
X154374819Y-96233904D01*
X154374819Y-96233904D02*
X154374819Y-95614857D01*
X154374819Y-95186285D02*
X153374819Y-95186285D01*
X153374819Y-95186285D02*
X154374819Y-94614857D01*
X154374819Y-94614857D02*
X153374819Y-94614857D01*
X153374819Y-93662476D02*
X153374819Y-94138666D01*
X153374819Y-94138666D02*
X153851009Y-94186285D01*
X153851009Y-94186285D02*
X153803390Y-94138666D01*
X153803390Y-94138666D02*
X153755771Y-94043428D01*
X153755771Y-94043428D02*
X153755771Y-93805333D01*
X153755771Y-93805333D02*
X153803390Y-93710095D01*
X153803390Y-93710095D02*
X153851009Y-93662476D01*
X153851009Y-93662476D02*
X153946247Y-93614857D01*
X153946247Y-93614857D02*
X154184342Y-93614857D01*
X154184342Y-93614857D02*
X154279580Y-93662476D01*
X154279580Y-93662476D02*
X154327200Y-93710095D01*
X154327200Y-93710095D02*
X154374819Y-93805333D01*
X154374819Y-93805333D02*
X154374819Y-94043428D01*
X154374819Y-94043428D02*
X154327200Y-94138666D01*
X154327200Y-94138666D02*
X154279580Y-94186285D01*
X153374819Y-92995809D02*
X153374819Y-92900571D01*
X153374819Y-92900571D02*
X153422438Y-92805333D01*
X153422438Y-92805333D02*
X153470057Y-92757714D01*
X153470057Y-92757714D02*
X153565295Y-92710095D01*
X153565295Y-92710095D02*
X153755771Y-92662476D01*
X153755771Y-92662476D02*
X153993866Y-92662476D01*
X153993866Y-92662476D02*
X154184342Y-92710095D01*
X154184342Y-92710095D02*
X154279580Y-92757714D01*
X154279580Y-92757714D02*
X154327200Y-92805333D01*
X154327200Y-92805333D02*
X154374819Y-92900571D01*
X154374819Y-92900571D02*
X154374819Y-92995809D01*
X154374819Y-92995809D02*
X154327200Y-93091047D01*
X154327200Y-93091047D02*
X154279580Y-93138666D01*
X154279580Y-93138666D02*
X154184342Y-93186285D01*
X154184342Y-93186285D02*
X153993866Y-93233904D01*
X153993866Y-93233904D02*
X153755771Y-93233904D01*
X153755771Y-93233904D02*
X153565295Y-93186285D01*
X153565295Y-93186285D02*
X153470057Y-93138666D01*
X153470057Y-93138666D02*
X153422438Y-93091047D01*
X153422438Y-93091047D02*
X153374819Y-92995809D01*
X153803390Y-92091047D02*
X153755771Y-92186285D01*
X153755771Y-92186285D02*
X153708152Y-92233904D01*
X153708152Y-92233904D02*
X153612914Y-92281523D01*
X153612914Y-92281523D02*
X153565295Y-92281523D01*
X153565295Y-92281523D02*
X153470057Y-92233904D01*
X153470057Y-92233904D02*
X153422438Y-92186285D01*
X153422438Y-92186285D02*
X153374819Y-92091047D01*
X153374819Y-92091047D02*
X153374819Y-91900571D01*
X153374819Y-91900571D02*
X153422438Y-91805333D01*
X153422438Y-91805333D02*
X153470057Y-91757714D01*
X153470057Y-91757714D02*
X153565295Y-91710095D01*
X153565295Y-91710095D02*
X153612914Y-91710095D01*
X153612914Y-91710095D02*
X153708152Y-91757714D01*
X153708152Y-91757714D02*
X153755771Y-91805333D01*
X153755771Y-91805333D02*
X153803390Y-91900571D01*
X153803390Y-91900571D02*
X153803390Y-92091047D01*
X153803390Y-92091047D02*
X153851009Y-92186285D01*
X153851009Y-92186285D02*
X153898628Y-92233904D01*
X153898628Y-92233904D02*
X153993866Y-92281523D01*
X153993866Y-92281523D02*
X154184342Y-92281523D01*
X154184342Y-92281523D02*
X154279580Y-92233904D01*
X154279580Y-92233904D02*
X154327200Y-92186285D01*
X154327200Y-92186285D02*
X154374819Y-92091047D01*
X154374819Y-92091047D02*
X154374819Y-91900571D01*
X154374819Y-91900571D02*
X154327200Y-91805333D01*
X154327200Y-91805333D02*
X154279580Y-91757714D01*
X154279580Y-91757714D02*
X154184342Y-91710095D01*
X154184342Y-91710095D02*
X153993866Y-91710095D01*
X153993866Y-91710095D02*
X153898628Y-91757714D01*
X153898628Y-91757714D02*
X153851009Y-91805333D01*
X153851009Y-91805333D02*
X153803390Y-91900571D01*
X153803390Y-91138666D02*
X153755771Y-91233904D01*
X153755771Y-91233904D02*
X153708152Y-91281523D01*
X153708152Y-91281523D02*
X153612914Y-91329142D01*
X153612914Y-91329142D02*
X153565295Y-91329142D01*
X153565295Y-91329142D02*
X153470057Y-91281523D01*
X153470057Y-91281523D02*
X153422438Y-91233904D01*
X153422438Y-91233904D02*
X153374819Y-91138666D01*
X153374819Y-91138666D02*
X153374819Y-90948190D01*
X153374819Y-90948190D02*
X153422438Y-90852952D01*
X153422438Y-90852952D02*
X153470057Y-90805333D01*
X153470057Y-90805333D02*
X153565295Y-90757714D01*
X153565295Y-90757714D02*
X153612914Y-90757714D01*
X153612914Y-90757714D02*
X153708152Y-90805333D01*
X153708152Y-90805333D02*
X153755771Y-90852952D01*
X153755771Y-90852952D02*
X153803390Y-90948190D01*
X153803390Y-90948190D02*
X153803390Y-91138666D01*
X153803390Y-91138666D02*
X153851009Y-91233904D01*
X153851009Y-91233904D02*
X153898628Y-91281523D01*
X153898628Y-91281523D02*
X153993866Y-91329142D01*
X153993866Y-91329142D02*
X154184342Y-91329142D01*
X154184342Y-91329142D02*
X154279580Y-91281523D01*
X154279580Y-91281523D02*
X154327200Y-91233904D01*
X154327200Y-91233904D02*
X154374819Y-91138666D01*
X154374819Y-91138666D02*
X154374819Y-90948190D01*
X154374819Y-90948190D02*
X154327200Y-90852952D01*
X154327200Y-90852952D02*
X154279580Y-90805333D01*
X154279580Y-90805333D02*
X154184342Y-90757714D01*
X154184342Y-90757714D02*
X153993866Y-90757714D01*
X153993866Y-90757714D02*
X153898628Y-90805333D01*
X153898628Y-90805333D02*
X153851009Y-90852952D01*
X153851009Y-90852952D02*
X153803390Y-90948190D01*
X155257619Y-111706819D02*
X155257619Y-110706819D01*
X155733809Y-111040152D02*
X155733809Y-111706819D01*
X155733809Y-111135390D02*
X155781428Y-111087771D01*
X155781428Y-111087771D02*
X155876666Y-111040152D01*
X155876666Y-111040152D02*
X156019523Y-111040152D01*
X156019523Y-111040152D02*
X156114761Y-111087771D01*
X156114761Y-111087771D02*
X156162380Y-111183009D01*
X156162380Y-111183009D02*
X156162380Y-111706819D01*
X157162380Y-110754438D02*
X157067142Y-110706819D01*
X157067142Y-110706819D02*
X156924285Y-110706819D01*
X156924285Y-110706819D02*
X156781428Y-110754438D01*
X156781428Y-110754438D02*
X156686190Y-110849676D01*
X156686190Y-110849676D02*
X156638571Y-110944914D01*
X156638571Y-110944914D02*
X156590952Y-111135390D01*
X156590952Y-111135390D02*
X156590952Y-111278247D01*
X156590952Y-111278247D02*
X156638571Y-111468723D01*
X156638571Y-111468723D02*
X156686190Y-111563961D01*
X156686190Y-111563961D02*
X156781428Y-111659200D01*
X156781428Y-111659200D02*
X156924285Y-111706819D01*
X156924285Y-111706819D02*
X157019523Y-111706819D01*
X157019523Y-111706819D02*
X157162380Y-111659200D01*
X157162380Y-111659200D02*
X157209999Y-111611580D01*
X157209999Y-111611580D02*
X157209999Y-111278247D01*
X157209999Y-111278247D02*
X157019523Y-111278247D01*
X171640571Y-94654819D02*
X171831047Y-94654819D01*
X171831047Y-94654819D02*
X171926285Y-94607200D01*
X171926285Y-94607200D02*
X171973904Y-94559580D01*
X171973904Y-94559580D02*
X172069142Y-94416723D01*
X172069142Y-94416723D02*
X172116761Y-94226247D01*
X172116761Y-94226247D02*
X172116761Y-93845295D01*
X172116761Y-93845295D02*
X172069142Y-93750057D01*
X172069142Y-93750057D02*
X172021523Y-93702438D01*
X172021523Y-93702438D02*
X171926285Y-93654819D01*
X171926285Y-93654819D02*
X171735809Y-93654819D01*
X171735809Y-93654819D02*
X171640571Y-93702438D01*
X171640571Y-93702438D02*
X171592952Y-93750057D01*
X171592952Y-93750057D02*
X171545333Y-93845295D01*
X171545333Y-93845295D02*
X171545333Y-94083390D01*
X171545333Y-94083390D02*
X171592952Y-94178628D01*
X171592952Y-94178628D02*
X171640571Y-94226247D01*
X171640571Y-94226247D02*
X171735809Y-94273866D01*
X171735809Y-94273866D02*
X171926285Y-94273866D01*
X171926285Y-94273866D02*
X172021523Y-94226247D01*
X172021523Y-94226247D02*
X172069142Y-94178628D01*
X172069142Y-94178628D02*
X172116761Y-94083390D01*
X172450095Y-93988152D02*
X172688190Y-94654819D01*
X172688190Y-94654819D02*
X172926285Y-93988152D01*
X148425819Y-103060285D02*
X148425819Y-102965047D01*
X148425819Y-102965047D02*
X148473438Y-102869809D01*
X148473438Y-102869809D02*
X148521057Y-102822190D01*
X148521057Y-102822190D02*
X148616295Y-102774571D01*
X148616295Y-102774571D02*
X148806771Y-102726952D01*
X148806771Y-102726952D02*
X149044866Y-102726952D01*
X149044866Y-102726952D02*
X149235342Y-102774571D01*
X149235342Y-102774571D02*
X149330580Y-102822190D01*
X149330580Y-102822190D02*
X149378200Y-102869809D01*
X149378200Y-102869809D02*
X149425819Y-102965047D01*
X149425819Y-102965047D02*
X149425819Y-103060285D01*
X149425819Y-103060285D02*
X149378200Y-103155523D01*
X149378200Y-103155523D02*
X149330580Y-103203142D01*
X149330580Y-103203142D02*
X149235342Y-103250761D01*
X149235342Y-103250761D02*
X149044866Y-103298380D01*
X149044866Y-103298380D02*
X148806771Y-103298380D01*
X148806771Y-103298380D02*
X148616295Y-103250761D01*
X148616295Y-103250761D02*
X148521057Y-103203142D01*
X148521057Y-103203142D02*
X148473438Y-103155523D01*
X148473438Y-103155523D02*
X148425819Y-103060285D01*
X149330580Y-102298380D02*
X149378200Y-102250761D01*
X149378200Y-102250761D02*
X149425819Y-102298380D01*
X149425819Y-102298380D02*
X149378200Y-102345999D01*
X149378200Y-102345999D02*
X149330580Y-102298380D01*
X149330580Y-102298380D02*
X149425819Y-102298380D01*
X149425819Y-101298381D02*
X149425819Y-101869809D01*
X149425819Y-101584095D02*
X148425819Y-101584095D01*
X148425819Y-101584095D02*
X148568676Y-101679333D01*
X148568676Y-101679333D02*
X148663914Y-101774571D01*
X148663914Y-101774571D02*
X148711533Y-101869809D01*
X148425819Y-100869809D02*
X149235342Y-100869809D01*
X149235342Y-100869809D02*
X149330580Y-100822190D01*
X149330580Y-100822190D02*
X149378200Y-100774571D01*
X149378200Y-100774571D02*
X149425819Y-100679333D01*
X149425819Y-100679333D02*
X149425819Y-100488857D01*
X149425819Y-100488857D02*
X149378200Y-100393619D01*
X149378200Y-100393619D02*
X149330580Y-100346000D01*
X149330580Y-100346000D02*
X149235342Y-100298381D01*
X149235342Y-100298381D02*
X148425819Y-100298381D01*
X148902009Y-99488857D02*
X148902009Y-99822190D01*
X149425819Y-99822190D02*
X148425819Y-99822190D01*
X148425819Y-99822190D02*
X148425819Y-99346000D01*
X168759333Y-100880152D02*
X168759333Y-101546819D01*
X168521238Y-100499200D02*
X168283143Y-101213485D01*
X168283143Y-101213485D02*
X168902190Y-101213485D01*
X169187905Y-100546819D02*
X169806952Y-100546819D01*
X169806952Y-100546819D02*
X169473619Y-100927771D01*
X169473619Y-100927771D02*
X169616476Y-100927771D01*
X169616476Y-100927771D02*
X169711714Y-100975390D01*
X169711714Y-100975390D02*
X169759333Y-101023009D01*
X169759333Y-101023009D02*
X169806952Y-101118247D01*
X169806952Y-101118247D02*
X169806952Y-101356342D01*
X169806952Y-101356342D02*
X169759333Y-101451580D01*
X169759333Y-101451580D02*
X169711714Y-101499200D01*
X169711714Y-101499200D02*
X169616476Y-101546819D01*
X169616476Y-101546819D02*
X169330762Y-101546819D01*
X169330762Y-101546819D02*
X169235524Y-101499200D01*
X169235524Y-101499200D02*
X169187905Y-101451580D01*
X170426000Y-100546819D02*
X170521238Y-100546819D01*
X170521238Y-100546819D02*
X170616476Y-100594438D01*
X170616476Y-100594438D02*
X170664095Y-100642057D01*
X170664095Y-100642057D02*
X170711714Y-100737295D01*
X170711714Y-100737295D02*
X170759333Y-100927771D01*
X170759333Y-100927771D02*
X170759333Y-101165866D01*
X170759333Y-101165866D02*
X170711714Y-101356342D01*
X170711714Y-101356342D02*
X170664095Y-101451580D01*
X170664095Y-101451580D02*
X170616476Y-101499200D01*
X170616476Y-101499200D02*
X170521238Y-101546819D01*
X170521238Y-101546819D02*
X170426000Y-101546819D01*
X170426000Y-101546819D02*
X170330762Y-101499200D01*
X170330762Y-101499200D02*
X170283143Y-101451580D01*
X170283143Y-101451580D02*
X170235524Y-101356342D01*
X170235524Y-101356342D02*
X170187905Y-101165866D01*
X170187905Y-101165866D02*
X170187905Y-100927771D01*
X170187905Y-100927771D02*
X170235524Y-100737295D01*
X170235524Y-100737295D02*
X170283143Y-100642057D01*
X170283143Y-100642057D02*
X170330762Y-100594438D01*
X170330762Y-100594438D02*
X170426000Y-100546819D01*
X171187905Y-101546819D02*
X171187905Y-100546819D01*
X171283143Y-101165866D02*
X171568857Y-101546819D01*
X171568857Y-100880152D02*
X171187905Y-101261104D01*
X167783142Y-99094819D02*
X167211714Y-99094819D01*
X167497428Y-99094819D02*
X167497428Y-98094819D01*
X167497428Y-98094819D02*
X167402190Y-98237676D01*
X167402190Y-98237676D02*
X167306952Y-98332914D01*
X167306952Y-98332914D02*
X167211714Y-98380533D01*
X168211714Y-99094819D02*
X168211714Y-98094819D01*
X168211714Y-98094819D02*
X168783142Y-99094819D01*
X168783142Y-99094819D02*
X168783142Y-98094819D01*
X169735523Y-98094819D02*
X169259333Y-98094819D01*
X169259333Y-98094819D02*
X169211714Y-98571009D01*
X169211714Y-98571009D02*
X169259333Y-98523390D01*
X169259333Y-98523390D02*
X169354571Y-98475771D01*
X169354571Y-98475771D02*
X169592666Y-98475771D01*
X169592666Y-98475771D02*
X169687904Y-98523390D01*
X169687904Y-98523390D02*
X169735523Y-98571009D01*
X169735523Y-98571009D02*
X169783142Y-98666247D01*
X169783142Y-98666247D02*
X169783142Y-98904342D01*
X169783142Y-98904342D02*
X169735523Y-98999580D01*
X169735523Y-98999580D02*
X169687904Y-99047200D01*
X169687904Y-99047200D02*
X169592666Y-99094819D01*
X169592666Y-99094819D02*
X169354571Y-99094819D01*
X169354571Y-99094819D02*
X169259333Y-99047200D01*
X169259333Y-99047200D02*
X169211714Y-98999580D01*
X170354571Y-98523390D02*
X170259333Y-98475771D01*
X170259333Y-98475771D02*
X170211714Y-98428152D01*
X170211714Y-98428152D02*
X170164095Y-98332914D01*
X170164095Y-98332914D02*
X170164095Y-98285295D01*
X170164095Y-98285295D02*
X170211714Y-98190057D01*
X170211714Y-98190057D02*
X170259333Y-98142438D01*
X170259333Y-98142438D02*
X170354571Y-98094819D01*
X170354571Y-98094819D02*
X170545047Y-98094819D01*
X170545047Y-98094819D02*
X170640285Y-98142438D01*
X170640285Y-98142438D02*
X170687904Y-98190057D01*
X170687904Y-98190057D02*
X170735523Y-98285295D01*
X170735523Y-98285295D02*
X170735523Y-98332914D01*
X170735523Y-98332914D02*
X170687904Y-98428152D01*
X170687904Y-98428152D02*
X170640285Y-98475771D01*
X170640285Y-98475771D02*
X170545047Y-98523390D01*
X170545047Y-98523390D02*
X170354571Y-98523390D01*
X170354571Y-98523390D02*
X170259333Y-98571009D01*
X170259333Y-98571009D02*
X170211714Y-98618628D01*
X170211714Y-98618628D02*
X170164095Y-98713866D01*
X170164095Y-98713866D02*
X170164095Y-98904342D01*
X170164095Y-98904342D02*
X170211714Y-98999580D01*
X170211714Y-98999580D02*
X170259333Y-99047200D01*
X170259333Y-99047200D02*
X170354571Y-99094819D01*
X170354571Y-99094819D02*
X170545047Y-99094819D01*
X170545047Y-99094819D02*
X170640285Y-99047200D01*
X170640285Y-99047200D02*
X170687904Y-98999580D01*
X170687904Y-98999580D02*
X170735523Y-98904342D01*
X170735523Y-98904342D02*
X170735523Y-98713866D01*
X170735523Y-98713866D02*
X170687904Y-98618628D01*
X170687904Y-98618628D02*
X170640285Y-98571009D01*
X170640285Y-98571009D02*
X170545047Y-98523390D01*
X171687904Y-99094819D02*
X171116476Y-99094819D01*
X171402190Y-99094819D02*
X171402190Y-98094819D01*
X171402190Y-98094819D02*
X171306952Y-98237676D01*
X171306952Y-98237676D02*
X171211714Y-98332914D01*
X171211714Y-98332914D02*
X171116476Y-98380533D01*
X172021238Y-98094819D02*
X172687904Y-98094819D01*
X172687904Y-98094819D02*
X172259333Y-99094819D01*
X157442819Y-105854285D02*
X157442819Y-105759047D01*
X157442819Y-105759047D02*
X157490438Y-105663809D01*
X157490438Y-105663809D02*
X157538057Y-105616190D01*
X157538057Y-105616190D02*
X157633295Y-105568571D01*
X157633295Y-105568571D02*
X157823771Y-105520952D01*
X157823771Y-105520952D02*
X158061866Y-105520952D01*
X158061866Y-105520952D02*
X158252342Y-105568571D01*
X158252342Y-105568571D02*
X158347580Y-105616190D01*
X158347580Y-105616190D02*
X158395200Y-105663809D01*
X158395200Y-105663809D02*
X158442819Y-105759047D01*
X158442819Y-105759047D02*
X158442819Y-105854285D01*
X158442819Y-105854285D02*
X158395200Y-105949523D01*
X158395200Y-105949523D02*
X158347580Y-105997142D01*
X158347580Y-105997142D02*
X158252342Y-106044761D01*
X158252342Y-106044761D02*
X158061866Y-106092380D01*
X158061866Y-106092380D02*
X157823771Y-106092380D01*
X157823771Y-106092380D02*
X157633295Y-106044761D01*
X157633295Y-106044761D02*
X157538057Y-105997142D01*
X157538057Y-105997142D02*
X157490438Y-105949523D01*
X157490438Y-105949523D02*
X157442819Y-105854285D01*
X158347580Y-105092380D02*
X158395200Y-105044761D01*
X158395200Y-105044761D02*
X158442819Y-105092380D01*
X158442819Y-105092380D02*
X158395200Y-105139999D01*
X158395200Y-105139999D02*
X158347580Y-105092380D01*
X158347580Y-105092380D02*
X158442819Y-105092380D01*
X158442819Y-104092381D02*
X158442819Y-104663809D01*
X158442819Y-104378095D02*
X157442819Y-104378095D01*
X157442819Y-104378095D02*
X157585676Y-104473333D01*
X157585676Y-104473333D02*
X157680914Y-104568571D01*
X157680914Y-104568571D02*
X157728533Y-104663809D01*
X157442819Y-103663809D02*
X158252342Y-103663809D01*
X158252342Y-103663809D02*
X158347580Y-103616190D01*
X158347580Y-103616190D02*
X158395200Y-103568571D01*
X158395200Y-103568571D02*
X158442819Y-103473333D01*
X158442819Y-103473333D02*
X158442819Y-103282857D01*
X158442819Y-103282857D02*
X158395200Y-103187619D01*
X158395200Y-103187619D02*
X158347580Y-103140000D01*
X158347580Y-103140000D02*
X158252342Y-103092381D01*
X158252342Y-103092381D02*
X157442819Y-103092381D01*
X157919009Y-102282857D02*
X157919009Y-102616190D01*
X158442819Y-102616190D02*
X157442819Y-102616190D01*
X157442819Y-102616190D02*
X157442819Y-102140000D01*
X158234190Y-100118152D02*
X158234190Y-100784819D01*
X157996095Y-99737200D02*
X157758000Y-100451485D01*
X157758000Y-100451485D02*
X158377047Y-100451485D01*
X158758000Y-100689580D02*
X158805619Y-100737200D01*
X158805619Y-100737200D02*
X158758000Y-100784819D01*
X158758000Y-100784819D02*
X158710381Y-100737200D01*
X158710381Y-100737200D02*
X158758000Y-100689580D01*
X158758000Y-100689580D02*
X158758000Y-100784819D01*
X159138952Y-99784819D02*
X159805618Y-99784819D01*
X159805618Y-99784819D02*
X159377047Y-100784819D01*
X160186571Y-100784819D02*
X160186571Y-99784819D01*
X160757999Y-100784819D02*
X160329428Y-100213390D01*
X160757999Y-99784819D02*
X160186571Y-100356247D01*
X162337857Y-111659200D02*
X162480714Y-111706819D01*
X162480714Y-111706819D02*
X162718809Y-111706819D01*
X162718809Y-111706819D02*
X162814047Y-111659200D01*
X162814047Y-111659200D02*
X162861666Y-111611580D01*
X162861666Y-111611580D02*
X162909285Y-111516342D01*
X162909285Y-111516342D02*
X162909285Y-111421104D01*
X162909285Y-111421104D02*
X162861666Y-111325866D01*
X162861666Y-111325866D02*
X162814047Y-111278247D01*
X162814047Y-111278247D02*
X162718809Y-111230628D01*
X162718809Y-111230628D02*
X162528333Y-111183009D01*
X162528333Y-111183009D02*
X162433095Y-111135390D01*
X162433095Y-111135390D02*
X162385476Y-111087771D01*
X162385476Y-111087771D02*
X162337857Y-110992533D01*
X162337857Y-110992533D02*
X162337857Y-110897295D01*
X162337857Y-110897295D02*
X162385476Y-110802057D01*
X162385476Y-110802057D02*
X162433095Y-110754438D01*
X162433095Y-110754438D02*
X162528333Y-110706819D01*
X162528333Y-110706819D02*
X162766428Y-110706819D01*
X162766428Y-110706819D02*
X162909285Y-110754438D01*
X163242619Y-110706819D02*
X163480714Y-111706819D01*
X163480714Y-111706819D02*
X163671190Y-110992533D01*
X163671190Y-110992533D02*
X163861666Y-111706819D01*
X163861666Y-111706819D02*
X164099762Y-110706819D01*
X169449762Y-110706819D02*
X169640238Y-110706819D01*
X169640238Y-110706819D02*
X169735476Y-110754438D01*
X169735476Y-110754438D02*
X169830714Y-110849676D01*
X169830714Y-110849676D02*
X169878333Y-111040152D01*
X169878333Y-111040152D02*
X169878333Y-111373485D01*
X169878333Y-111373485D02*
X169830714Y-111563961D01*
X169830714Y-111563961D02*
X169735476Y-111659200D01*
X169735476Y-111659200D02*
X169640238Y-111706819D01*
X169640238Y-111706819D02*
X169449762Y-111706819D01*
X169449762Y-111706819D02*
X169354524Y-111659200D01*
X169354524Y-111659200D02*
X169259286Y-111563961D01*
X169259286Y-111563961D02*
X169211667Y-111373485D01*
X169211667Y-111373485D02*
X169211667Y-111040152D01*
X169211667Y-111040152D02*
X169259286Y-110849676D01*
X169259286Y-110849676D02*
X169354524Y-110754438D01*
X169354524Y-110754438D02*
X169449762Y-110706819D01*
X150482142Y-111706819D02*
X150005952Y-111706819D01*
X150005952Y-111706819D02*
X150005952Y-110706819D01*
X150815476Y-111183009D02*
X151148809Y-111183009D01*
X151291666Y-111706819D02*
X150815476Y-111706819D01*
X150815476Y-111706819D02*
X150815476Y-110706819D01*
X150815476Y-110706819D02*
X151291666Y-110706819D01*
X151720238Y-111706819D02*
X151720238Y-110706819D01*
X151720238Y-110706819D02*
X151958333Y-110706819D01*
X151958333Y-110706819D02*
X152101190Y-110754438D01*
X152101190Y-110754438D02*
X152196428Y-110849676D01*
X152196428Y-110849676D02*
X152244047Y-110944914D01*
X152244047Y-110944914D02*
X152291666Y-111135390D01*
X152291666Y-111135390D02*
X152291666Y-111278247D01*
X152291666Y-111278247D02*
X152244047Y-111468723D01*
X152244047Y-111468723D02*
X152196428Y-111563961D01*
X152196428Y-111563961D02*
X152101190Y-111659200D01*
X152101190Y-111659200D02*
X151958333Y-111706819D01*
X151958333Y-111706819D02*
X151720238Y-111706819D01*
D14*
%TO.C,Gnd*%
X169348000Y-92202000D02*
G75*
G02*
X166948000Y-92202000I-1200000J0D01*
G01*
X166948000Y-92202000D02*
G75*
G02*
X169348000Y-92202000I1200000J0D01*
G01*
%TO.C,SwG*%
X167570000Y-113284000D02*
G75*
G02*
X165170000Y-113284000I-1200000J0D01*
G01*
X165170000Y-113284000D02*
G75*
G02*
X167570000Y-113284000I1200000J0D01*
G01*
%TO.C,R2*%
X166656000Y-103024000D02*
X173196000Y-103024000D01*
X166656000Y-103354000D02*
X166656000Y-103024000D01*
X166656000Y-105434000D02*
X166656000Y-105764000D01*
X166656000Y-105764000D02*
X173196000Y-105764000D01*
X173196000Y-103024000D02*
X173196000Y-103354000D01*
X173196000Y-105764000D02*
X173196000Y-105434000D01*
%TO.C,OG*%
X174428000Y-113284000D02*
G75*
G02*
X172028000Y-113284000I-1200000J0D01*
G01*
X172028000Y-113284000D02*
G75*
G02*
X174428000Y-113284000I1200000J0D01*
G01*
%TO.C,R4*%
X155988000Y-95404000D02*
X155988000Y-95734000D01*
X155988000Y-98144000D02*
X155988000Y-97814000D01*
X162528000Y-95404000D02*
X155988000Y-95404000D01*
X162528000Y-95734000D02*
X162528000Y-95404000D01*
X162528000Y-97814000D02*
X162528000Y-98144000D01*
X162528000Y-98144000D02*
X155988000Y-98144000D01*
%TO.C,R3*%
X155988000Y-92102000D02*
X162528000Y-92102000D01*
X155988000Y-92432000D02*
X155988000Y-92102000D01*
X155988000Y-94512000D02*
X155988000Y-94842000D01*
X155988000Y-94842000D02*
X162528000Y-94842000D01*
X162528000Y-92102000D02*
X162528000Y-92432000D01*
X162528000Y-94842000D02*
X162528000Y-94512000D01*
%TO.C,In*%
X161220000Y-113284000D02*
G75*
G02*
X158820000Y-113284000I-1200000J0D01*
G01*
X158820000Y-113284000D02*
G75*
G02*
X161220000Y-113284000I1200000J0D01*
G01*
%TO.C,Q2*%
X152980000Y-95272000D02*
X152980000Y-91672000D01*
X148530000Y-93472000D02*
G75*
G02*
X152968478Y-91633522I2600000J0D01*
G01*
X152968478Y-95310478D02*
G75*
G02*
X148529999Y-93472000I-1838478J1838478D01*
G01*
%TO.C,InG*%
X157410000Y-113284000D02*
G75*
G02*
X155010000Y-113284000I-1200000J0D01*
G01*
X155010000Y-113284000D02*
G75*
G02*
X157410000Y-113284000I1200000J0D01*
G01*
%TO.C,9v*%
X173412000Y-92202000D02*
G75*
G02*
X171012000Y-92202000I-1200000J0D01*
G01*
X171012000Y-92202000D02*
G75*
G02*
X173412000Y-92202000I1200000J0D01*
G01*
%TO.C,C1*%
X149760000Y-97880000D02*
X152500000Y-97880000D01*
X149760000Y-105320000D02*
X149760000Y-97880000D01*
X149760000Y-105320000D02*
X152500000Y-105320000D01*
X152500000Y-105320000D02*
X152500000Y-97880000D01*
%TO.C,R1*%
X166656000Y-99722000D02*
X166656000Y-100052000D01*
X166656000Y-102462000D02*
X166656000Y-102132000D01*
X173196000Y-99722000D02*
X166656000Y-99722000D01*
X173196000Y-100052000D02*
X173196000Y-99722000D01*
X173196000Y-102132000D02*
X173196000Y-102462000D01*
X173196000Y-102462000D02*
X166656000Y-102462000D01*
%TO.C,D1*%
X167156000Y-96520000D02*
X167806000Y-96520000D01*
X167806000Y-95400000D02*
X167806000Y-97640000D01*
X167806000Y-97640000D02*
X172046000Y-97640000D01*
X168406000Y-95400000D02*
X168406000Y-97640000D01*
X168526000Y-95400000D02*
X168526000Y-97640000D01*
X168646000Y-95400000D02*
X168646000Y-97640000D01*
X172046000Y-95400000D02*
X167806000Y-95400000D01*
X172046000Y-97640000D02*
X172046000Y-95400000D01*
X172696000Y-96520000D02*
X172046000Y-96520000D01*
%TO.C,C2*%
X154268000Y-105510000D02*
X154268000Y-102770000D01*
X161708000Y-102770000D02*
X154268000Y-102770000D01*
X161708000Y-105510000D02*
X154268000Y-105510000D01*
X161708000Y-105510000D02*
X161708000Y-102770000D01*
%TO.C,R5*%
X155988000Y-98960000D02*
X162528000Y-98960000D01*
X155988000Y-99290000D02*
X155988000Y-98960000D01*
X155988000Y-101370000D02*
X155988000Y-101700000D01*
X155988000Y-101700000D02*
X162528000Y-101700000D01*
X162528000Y-98960000D02*
X162528000Y-99290000D01*
X162528000Y-101700000D02*
X162528000Y-101370000D01*
%TO.C,SW*%
X164395000Y-113284000D02*
G75*
G02*
X161995000Y-113284000I-1200000J0D01*
G01*
X161995000Y-113284000D02*
G75*
G02*
X164395000Y-113284000I1200000J0D01*
G01*
%TO.C,O*%
X170745000Y-113284000D02*
G75*
G02*
X168345000Y-113284000I-1200000J0D01*
G01*
X168345000Y-113284000D02*
G75*
G02*
X170745000Y-113284000I1200000J0D01*
G01*
%TO.C,LED*%
X148530000Y-111954000D02*
X148530000Y-114614000D01*
X151130000Y-111954000D02*
X148530000Y-111954000D01*
X151130000Y-111954000D02*
X151130000Y-114614000D01*
X151130000Y-114614000D02*
X148530000Y-114614000D01*
X152400000Y-111954000D02*
X153730000Y-111954000D01*
X153730000Y-111954000D02*
X153730000Y-113284000D01*
%TD*%
M02*
