M48
; DRILL file {KiCad 9.0.7} date 2026-02-26T22:54:10+0530
; FORMAT={-:-/ absolute / metric / decimal}
; #@! TF.CreationDate,2026-02-26T22:54:10+05:30
; #@! TF.GenerationSoftware,Kicad,Pcbnew,9.0.7
; #@! TF.FileFunction,Plated,1,2,PTH
FMAT,2
METRIC
; #@! TA.AperFunction,Plated,PTH,ComponentDrill
T1C0.750
; #@! TA.AperFunction,Plated,PTH,ComponentDrill
T2C0.800
; #@! TA.AperFunction,Plated,PTH,ComponentDrill
T3C1.000
; #@! TA.AperFunction,Plated,PTH,ComponentDrill
T4C1.300
%
G90
G05
T1
X151.13Y-91.694
X151.13Y-93.472
X151.13Y-95.25
T2
X151.13Y-99.1
X151.13Y-104.1
X155.448Y-93.472
X155.448Y-96.774
X155.448Y-100.33
X155.488Y-104.14
X160.488Y-104.14
X163.068Y-93.472
X163.068Y-96.774
X163.068Y-100.33
X166.116Y-96.52
X166.116Y-101.092
X166.116Y-104.394
X173.736Y-96.52
X173.736Y-101.092
X173.736Y-104.394
T3
X149.86Y-113.284
X152.4Y-113.284
X156.21Y-113.284
X160.02Y-113.284
X163.195Y-113.284
X166.37Y-113.284
X168.148Y-92.202
X169.545Y-113.284
X172.212Y-92.202
X173.228Y-113.284
T4
X156.595Y-107.95
X161.595Y-107.95
X166.595Y-107.95
M30
