%TF.GenerationSoftware,KiCad,Pcbnew,9.0.7*%
%TF.CreationDate,2026-02-26T22:54:02+05:30*%
%TF.ProjectId,Distortion Pedal,44697374-6f72-4746-996f-6e2050656461,rev?*%
%TF.SameCoordinates,Original*%
%TF.FileFunction,Copper,L2,Bot*%
%TF.FilePolarity,Positive*%
%FSLAX46Y46*%
G04 Gerber Fmt 4.6, Leading zero omitted, Abs format (unit mm)*
G04 Created by KiCad (PCBNEW 9.0.7) date 2026-02-26 22:54:02*
%MOMM*%
%LPD*%
G01*
G04 APERTURE LIST*
%ADD10C,0.100000*%
%ADD11C,0.150000*%
%ADD12C,0.300000*%
%ADD13C,0.400000*%
%TA.AperFunction,ComponentPad*%
%ADD14C,2.000000*%
%TD*%
%TA.AperFunction,ComponentPad*%
%ADD15C,1.600000*%
%TD*%
%TA.AperFunction,ComponentPad*%
%ADD16O,1.600000X1.600000*%
%TD*%
%TA.AperFunction,ComponentPad*%
%ADD17R,1.500000X1.050000*%
%TD*%
%TA.AperFunction,ComponentPad*%
%ADD18O,1.500000X1.050000*%
%TD*%
%TA.AperFunction,ComponentPad*%
%ADD19R,1.600000X1.600000*%
%TD*%
%TA.AperFunction,ComponentPad*%
%ADD20C,2.340000*%
%TD*%
%TA.AperFunction,ComponentPad*%
%ADD21R,1.700000X1.700000*%
%TD*%
%TA.AperFunction,ComponentPad*%
%ADD22O,1.700000X1.700000*%
%TD*%
%TA.AperFunction,Conductor*%
%ADD23C,0.250000*%
%TD*%
G04 APERTURE END LIST*
D10*
D11*
X177002200Y-166007200D02*
X285002200Y-166007200D01*
X285002200Y-198007200D01*
X177002200Y-198007200D01*
X177002200Y-166007200D01*
D10*
D11*
X10000000Y-10000000D02*
X287002200Y-10000000D01*
X287002200Y-200007200D01*
X10000000Y-200007200D01*
X10000000Y-10000000D01*
D10*
D11*
X12000000Y-12000000D02*
X285002200Y-12000000D01*
X285002200Y-198007200D01*
X12000000Y-198007200D01*
X12000000Y-12000000D01*
D10*
D11*
X60000000Y-12000000D02*
X60000000Y-10000000D01*
D10*
D11*
X110000000Y-12000000D02*
X110000000Y-10000000D01*
D10*
D11*
X160000000Y-12000000D02*
X160000000Y-10000000D01*
D10*
D11*
X210000000Y-12000000D02*
X210000000Y-10000000D01*
D10*
D11*
X260000000Y-12000000D02*
X260000000Y-10000000D01*
D10*
D11*
X36089160Y-11593604D02*
X35346303Y-11593604D01*
X35717731Y-11593604D02*
X35717731Y-10293604D01*
X35717731Y-10293604D02*
X35593922Y-10479319D01*
X35593922Y-10479319D02*
X35470112Y-10603128D01*
X35470112Y-10603128D02*
X35346303Y-10665033D01*
D10*
D11*
X85346303Y-10417414D02*
X85408207Y-10355509D01*
X85408207Y-10355509D02*
X85532017Y-10293604D01*
X85532017Y-10293604D02*
X85841541Y-10293604D01*
X85841541Y-10293604D02*
X85965350Y-10355509D01*
X85965350Y-10355509D02*
X86027255Y-10417414D01*
X86027255Y-10417414D02*
X86089160Y-10541223D01*
X86089160Y-10541223D02*
X86089160Y-10665033D01*
X86089160Y-10665033D02*
X86027255Y-10850747D01*
X86027255Y-10850747D02*
X85284398Y-11593604D01*
X85284398Y-11593604D02*
X86089160Y-11593604D01*
D10*
D11*
X135284398Y-10293604D02*
X136089160Y-10293604D01*
X136089160Y-10293604D02*
X135655826Y-10788842D01*
X135655826Y-10788842D02*
X135841541Y-10788842D01*
X135841541Y-10788842D02*
X135965350Y-10850747D01*
X135965350Y-10850747D02*
X136027255Y-10912652D01*
X136027255Y-10912652D02*
X136089160Y-11036461D01*
X136089160Y-11036461D02*
X136089160Y-11345985D01*
X136089160Y-11345985D02*
X136027255Y-11469795D01*
X136027255Y-11469795D02*
X135965350Y-11531700D01*
X135965350Y-11531700D02*
X135841541Y-11593604D01*
X135841541Y-11593604D02*
X135470112Y-11593604D01*
X135470112Y-11593604D02*
X135346303Y-11531700D01*
X135346303Y-11531700D02*
X135284398Y-11469795D01*
D10*
D11*
X185965350Y-10726938D02*
X185965350Y-11593604D01*
X185655826Y-10231700D02*
X185346303Y-11160271D01*
X185346303Y-11160271D02*
X186151064Y-11160271D01*
D10*
D11*
X236027255Y-10293604D02*
X235408207Y-10293604D01*
X235408207Y-10293604D02*
X235346303Y-10912652D01*
X235346303Y-10912652D02*
X235408207Y-10850747D01*
X235408207Y-10850747D02*
X235532017Y-10788842D01*
X235532017Y-10788842D02*
X235841541Y-10788842D01*
X235841541Y-10788842D02*
X235965350Y-10850747D01*
X235965350Y-10850747D02*
X236027255Y-10912652D01*
X236027255Y-10912652D02*
X236089160Y-11036461D01*
X236089160Y-11036461D02*
X236089160Y-11345985D01*
X236089160Y-11345985D02*
X236027255Y-11469795D01*
X236027255Y-11469795D02*
X235965350Y-11531700D01*
X235965350Y-11531700D02*
X235841541Y-11593604D01*
X235841541Y-11593604D02*
X235532017Y-11593604D01*
X235532017Y-11593604D02*
X235408207Y-11531700D01*
X235408207Y-11531700D02*
X235346303Y-11469795D01*
D10*
D11*
X285965350Y-10293604D02*
X285717731Y-10293604D01*
X285717731Y-10293604D02*
X285593922Y-10355509D01*
X285593922Y-10355509D02*
X285532017Y-10417414D01*
X285532017Y-10417414D02*
X285408207Y-10603128D01*
X285408207Y-10603128D02*
X285346303Y-10850747D01*
X285346303Y-10850747D02*
X285346303Y-11345985D01*
X285346303Y-11345985D02*
X285408207Y-11469795D01*
X285408207Y-11469795D02*
X285470112Y-11531700D01*
X285470112Y-11531700D02*
X285593922Y-11593604D01*
X285593922Y-11593604D02*
X285841541Y-11593604D01*
X285841541Y-11593604D02*
X285965350Y-11531700D01*
X285965350Y-11531700D02*
X286027255Y-11469795D01*
X286027255Y-11469795D02*
X286089160Y-11345985D01*
X286089160Y-11345985D02*
X286089160Y-11036461D01*
X286089160Y-11036461D02*
X286027255Y-10912652D01*
X286027255Y-10912652D02*
X285965350Y-10850747D01*
X285965350Y-10850747D02*
X285841541Y-10788842D01*
X285841541Y-10788842D02*
X285593922Y-10788842D01*
X285593922Y-10788842D02*
X285470112Y-10850747D01*
X285470112Y-10850747D02*
X285408207Y-10912652D01*
X285408207Y-10912652D02*
X285346303Y-11036461D01*
D10*
D11*
X60000000Y-198007200D02*
X60000000Y-200007200D01*
D10*
D11*
X110000000Y-198007200D02*
X110000000Y-200007200D01*
D10*
D11*
X160000000Y-198007200D02*
X160000000Y-200007200D01*
D10*
D11*
X210000000Y-198007200D02*
X210000000Y-200007200D01*
D10*
D11*
X260000000Y-198007200D02*
X260000000Y-200007200D01*
D10*
D11*
X36089160Y-199600804D02*
X35346303Y-199600804D01*
X35717731Y-199600804D02*
X35717731Y-198300804D01*
X35717731Y-198300804D02*
X35593922Y-198486519D01*
X35593922Y-198486519D02*
X35470112Y-198610328D01*
X35470112Y-198610328D02*
X35346303Y-198672233D01*
D10*
D11*
X85346303Y-198424614D02*
X85408207Y-198362709D01*
X85408207Y-198362709D02*
X85532017Y-198300804D01*
X85532017Y-198300804D02*
X85841541Y-198300804D01*
X85841541Y-198300804D02*
X85965350Y-198362709D01*
X85965350Y-198362709D02*
X86027255Y-198424614D01*
X86027255Y-198424614D02*
X86089160Y-198548423D01*
X86089160Y-198548423D02*
X86089160Y-198672233D01*
X86089160Y-198672233D02*
X86027255Y-198857947D01*
X86027255Y-198857947D02*
X85284398Y-199600804D01*
X85284398Y-199600804D02*
X86089160Y-199600804D01*
D10*
D11*
X135284398Y-198300804D02*
X136089160Y-198300804D01*
X136089160Y-198300804D02*
X135655826Y-198796042D01*
X135655826Y-198796042D02*
X135841541Y-198796042D01*
X135841541Y-198796042D02*
X135965350Y-198857947D01*
X135965350Y-198857947D02*
X136027255Y-198919852D01*
X136027255Y-198919852D02*
X136089160Y-199043661D01*
X136089160Y-199043661D02*
X136089160Y-199353185D01*
X136089160Y-199353185D02*
X136027255Y-199476995D01*
X136027255Y-199476995D02*
X135965350Y-199538900D01*
X135965350Y-199538900D02*
X135841541Y-199600804D01*
X135841541Y-199600804D02*
X135470112Y-199600804D01*
X135470112Y-199600804D02*
X135346303Y-199538900D01*
X135346303Y-199538900D02*
X135284398Y-199476995D01*
D10*
D11*
X185965350Y-198734138D02*
X185965350Y-199600804D01*
X185655826Y-198238900D02*
X185346303Y-199167471D01*
X185346303Y-199167471D02*
X186151064Y-199167471D01*
D10*
D11*
X236027255Y-198300804D02*
X235408207Y-198300804D01*
X235408207Y-198300804D02*
X235346303Y-198919852D01*
X235346303Y-198919852D02*
X235408207Y-198857947D01*
X235408207Y-198857947D02*
X235532017Y-198796042D01*
X235532017Y-198796042D02*
X235841541Y-198796042D01*
X235841541Y-198796042D02*
X235965350Y-198857947D01*
X235965350Y-198857947D02*
X236027255Y-198919852D01*
X236027255Y-198919852D02*
X236089160Y-199043661D01*
X236089160Y-199043661D02*
X236089160Y-199353185D01*
X236089160Y-199353185D02*
X236027255Y-199476995D01*
X236027255Y-199476995D02*
X235965350Y-199538900D01*
X235965350Y-199538900D02*
X235841541Y-199600804D01*
X235841541Y-199600804D02*
X235532017Y-199600804D01*
X235532017Y-199600804D02*
X235408207Y-199538900D01*
X235408207Y-199538900D02*
X235346303Y-199476995D01*
D10*
D11*
X285965350Y-198300804D02*
X285717731Y-198300804D01*
X285717731Y-198300804D02*
X285593922Y-198362709D01*
X285593922Y-198362709D02*
X285532017Y-198424614D01*
X285532017Y-198424614D02*
X285408207Y-198610328D01*
X285408207Y-198610328D02*
X285346303Y-198857947D01*
X285346303Y-198857947D02*
X285346303Y-199353185D01*
X285346303Y-199353185D02*
X285408207Y-199476995D01*
X285408207Y-199476995D02*
X285470112Y-199538900D01*
X285470112Y-199538900D02*
X285593922Y-199600804D01*
X285593922Y-199600804D02*
X285841541Y-199600804D01*
X285841541Y-199600804D02*
X285965350Y-199538900D01*
X285965350Y-199538900D02*
X286027255Y-199476995D01*
X286027255Y-199476995D02*
X286089160Y-199353185D01*
X286089160Y-199353185D02*
X286089160Y-199043661D01*
X286089160Y-199043661D02*
X286027255Y-198919852D01*
X286027255Y-198919852D02*
X285965350Y-198857947D01*
X285965350Y-198857947D02*
X285841541Y-198796042D01*
X285841541Y-198796042D02*
X285593922Y-198796042D01*
X285593922Y-198796042D02*
X285470112Y-198857947D01*
X285470112Y-198857947D02*
X285408207Y-198919852D01*
X285408207Y-198919852D02*
X285346303Y-199043661D01*
D10*
D11*
X10000000Y-60000000D02*
X12000000Y-60000000D01*
D10*
D11*
X10000000Y-110000000D02*
X12000000Y-110000000D01*
D10*
D11*
X10000000Y-160000000D02*
X12000000Y-160000000D01*
D10*
D11*
X10690476Y-35222176D02*
X11309523Y-35222176D01*
X10566666Y-35593604D02*
X10999999Y-34293604D01*
X10999999Y-34293604D02*
X11433333Y-35593604D01*
D10*
D11*
X11092857Y-84912652D02*
X11278571Y-84974557D01*
X11278571Y-84974557D02*
X11340476Y-85036461D01*
X11340476Y-85036461D02*
X11402380Y-85160271D01*
X11402380Y-85160271D02*
X11402380Y-85345985D01*
X11402380Y-85345985D02*
X11340476Y-85469795D01*
X11340476Y-85469795D02*
X11278571Y-85531700D01*
X11278571Y-85531700D02*
X11154761Y-85593604D01*
X11154761Y-85593604D02*
X10659523Y-85593604D01*
X10659523Y-85593604D02*
X10659523Y-84293604D01*
X10659523Y-84293604D02*
X11092857Y-84293604D01*
X11092857Y-84293604D02*
X11216666Y-84355509D01*
X11216666Y-84355509D02*
X11278571Y-84417414D01*
X11278571Y-84417414D02*
X11340476Y-84541223D01*
X11340476Y-84541223D02*
X11340476Y-84665033D01*
X11340476Y-84665033D02*
X11278571Y-84788842D01*
X11278571Y-84788842D02*
X11216666Y-84850747D01*
X11216666Y-84850747D02*
X11092857Y-84912652D01*
X11092857Y-84912652D02*
X10659523Y-84912652D01*
D10*
D11*
X11402380Y-135469795D02*
X11340476Y-135531700D01*
X11340476Y-135531700D02*
X11154761Y-135593604D01*
X11154761Y-135593604D02*
X11030952Y-135593604D01*
X11030952Y-135593604D02*
X10845238Y-135531700D01*
X10845238Y-135531700D02*
X10721428Y-135407890D01*
X10721428Y-135407890D02*
X10659523Y-135284080D01*
X10659523Y-135284080D02*
X10597619Y-135036461D01*
X10597619Y-135036461D02*
X10597619Y-134850747D01*
X10597619Y-134850747D02*
X10659523Y-134603128D01*
X10659523Y-134603128D02*
X10721428Y-134479319D01*
X10721428Y-134479319D02*
X10845238Y-134355509D01*
X10845238Y-134355509D02*
X11030952Y-134293604D01*
X11030952Y-134293604D02*
X11154761Y-134293604D01*
X11154761Y-134293604D02*
X11340476Y-134355509D01*
X11340476Y-134355509D02*
X11402380Y-134417414D01*
D10*
D11*
X10659523Y-185593604D02*
X10659523Y-184293604D01*
X10659523Y-184293604D02*
X10969047Y-184293604D01*
X10969047Y-184293604D02*
X11154761Y-184355509D01*
X11154761Y-184355509D02*
X11278571Y-184479319D01*
X11278571Y-184479319D02*
X11340476Y-184603128D01*
X11340476Y-184603128D02*
X11402380Y-184850747D01*
X11402380Y-184850747D02*
X11402380Y-185036461D01*
X11402380Y-185036461D02*
X11340476Y-185284080D01*
X11340476Y-185284080D02*
X11278571Y-185407890D01*
X11278571Y-185407890D02*
X11154761Y-185531700D01*
X11154761Y-185531700D02*
X10969047Y-185593604D01*
X10969047Y-185593604D02*
X10659523Y-185593604D01*
D10*
D11*
X287002200Y-60000000D02*
X285002200Y-60000000D01*
D10*
D11*
X287002200Y-110000000D02*
X285002200Y-110000000D01*
D10*
D11*
X287002200Y-160000000D02*
X285002200Y-160000000D01*
D10*
D11*
X285692676Y-35222176D02*
X286311723Y-35222176D01*
X285568866Y-35593604D02*
X286002199Y-34293604D01*
X286002199Y-34293604D02*
X286435533Y-35593604D01*
D10*
D11*
X286095057Y-84912652D02*
X286280771Y-84974557D01*
X286280771Y-84974557D02*
X286342676Y-85036461D01*
X286342676Y-85036461D02*
X286404580Y-85160271D01*
X286404580Y-85160271D02*
X286404580Y-85345985D01*
X286404580Y-85345985D02*
X286342676Y-85469795D01*
X286342676Y-85469795D02*
X286280771Y-85531700D01*
X286280771Y-85531700D02*
X286156961Y-85593604D01*
X286156961Y-85593604D02*
X285661723Y-85593604D01*
X285661723Y-85593604D02*
X285661723Y-84293604D01*
X285661723Y-84293604D02*
X286095057Y-84293604D01*
X286095057Y-84293604D02*
X286218866Y-84355509D01*
X286218866Y-84355509D02*
X286280771Y-84417414D01*
X286280771Y-84417414D02*
X286342676Y-84541223D01*
X286342676Y-84541223D02*
X286342676Y-84665033D01*
X286342676Y-84665033D02*
X286280771Y-84788842D01*
X286280771Y-84788842D02*
X286218866Y-84850747D01*
X286218866Y-84850747D02*
X286095057Y-84912652D01*
X286095057Y-84912652D02*
X285661723Y-84912652D01*
D10*
D11*
X286404580Y-135469795D02*
X286342676Y-135531700D01*
X286342676Y-135531700D02*
X286156961Y-135593604D01*
X286156961Y-135593604D02*
X286033152Y-135593604D01*
X286033152Y-135593604D02*
X285847438Y-135531700D01*
X285847438Y-135531700D02*
X285723628Y-135407890D01*
X285723628Y-135407890D02*
X285661723Y-135284080D01*
X285661723Y-135284080D02*
X285599819Y-135036461D01*
X285599819Y-135036461D02*
X285599819Y-134850747D01*
X285599819Y-134850747D02*
X285661723Y-134603128D01*
X285661723Y-134603128D02*
X285723628Y-134479319D01*
X285723628Y-134479319D02*
X285847438Y-134355509D01*
X285847438Y-134355509D02*
X286033152Y-134293604D01*
X286033152Y-134293604D02*
X286156961Y-134293604D01*
X286156961Y-134293604D02*
X286342676Y-134355509D01*
X286342676Y-134355509D02*
X286404580Y-134417414D01*
D10*
D11*
X285661723Y-185593604D02*
X285661723Y-184293604D01*
X285661723Y-184293604D02*
X285971247Y-184293604D01*
X285971247Y-184293604D02*
X286156961Y-184355509D01*
X286156961Y-184355509D02*
X286280771Y-184479319D01*
X286280771Y-184479319D02*
X286342676Y-184603128D01*
X286342676Y-184603128D02*
X286404580Y-184850747D01*
X286404580Y-184850747D02*
X286404580Y-185036461D01*
X286404580Y-185036461D02*
X286342676Y-185284080D01*
X286342676Y-185284080D02*
X286280771Y-185407890D01*
X286280771Y-185407890D02*
X286156961Y-185531700D01*
X286156961Y-185531700D02*
X285971247Y-185593604D01*
X285971247Y-185593604D02*
X285661723Y-185593604D01*
D10*
D11*
X200458026Y-193793328D02*
X200458026Y-192293328D01*
X200458026Y-192293328D02*
X200815169Y-192293328D01*
X200815169Y-192293328D02*
X201029455Y-192364757D01*
X201029455Y-192364757D02*
X201172312Y-192507614D01*
X201172312Y-192507614D02*
X201243741Y-192650471D01*
X201243741Y-192650471D02*
X201315169Y-192936185D01*
X201315169Y-192936185D02*
X201315169Y-193150471D01*
X201315169Y-193150471D02*
X201243741Y-193436185D01*
X201243741Y-193436185D02*
X201172312Y-193579042D01*
X201172312Y-193579042D02*
X201029455Y-193721900D01*
X201029455Y-193721900D02*
X200815169Y-193793328D01*
X200815169Y-193793328D02*
X200458026Y-193793328D01*
X202600884Y-193793328D02*
X202600884Y-193007614D01*
X202600884Y-193007614D02*
X202529455Y-192864757D01*
X202529455Y-192864757D02*
X202386598Y-192793328D01*
X202386598Y-192793328D02*
X202100884Y-192793328D01*
X202100884Y-192793328D02*
X201958026Y-192864757D01*
X202600884Y-193721900D02*
X202458026Y-193793328D01*
X202458026Y-193793328D02*
X202100884Y-193793328D01*
X202100884Y-193793328D02*
X201958026Y-193721900D01*
X201958026Y-193721900D02*
X201886598Y-193579042D01*
X201886598Y-193579042D02*
X201886598Y-193436185D01*
X201886598Y-193436185D02*
X201958026Y-193293328D01*
X201958026Y-193293328D02*
X202100884Y-193221900D01*
X202100884Y-193221900D02*
X202458026Y-193221900D01*
X202458026Y-193221900D02*
X202600884Y-193150471D01*
X203100884Y-192793328D02*
X203672312Y-192793328D01*
X203315169Y-192293328D02*
X203315169Y-193579042D01*
X203315169Y-193579042D02*
X203386598Y-193721900D01*
X203386598Y-193721900D02*
X203529455Y-193793328D01*
X203529455Y-193793328D02*
X203672312Y-193793328D01*
X204743741Y-193721900D02*
X204600884Y-193793328D01*
X204600884Y-193793328D02*
X204315170Y-193793328D01*
X204315170Y-193793328D02*
X204172312Y-193721900D01*
X204172312Y-193721900D02*
X204100884Y-193579042D01*
X204100884Y-193579042D02*
X204100884Y-193007614D01*
X204100884Y-193007614D02*
X204172312Y-192864757D01*
X204172312Y-192864757D02*
X204315170Y-192793328D01*
X204315170Y-192793328D02*
X204600884Y-192793328D01*
X204600884Y-192793328D02*
X204743741Y-192864757D01*
X204743741Y-192864757D02*
X204815170Y-193007614D01*
X204815170Y-193007614D02*
X204815170Y-193150471D01*
X204815170Y-193150471D02*
X204100884Y-193293328D01*
X205458026Y-193650471D02*
X205529455Y-193721900D01*
X205529455Y-193721900D02*
X205458026Y-193793328D01*
X205458026Y-193793328D02*
X205386598Y-193721900D01*
X205386598Y-193721900D02*
X205458026Y-193650471D01*
X205458026Y-193650471D02*
X205458026Y-193793328D01*
X205458026Y-192864757D02*
X205529455Y-192936185D01*
X205529455Y-192936185D02*
X205458026Y-193007614D01*
X205458026Y-193007614D02*
X205386598Y-192936185D01*
X205386598Y-192936185D02*
X205458026Y-192864757D01*
X205458026Y-192864757D02*
X205458026Y-193007614D01*
D10*
D11*
X177002200Y-194507200D02*
X285002200Y-194507200D01*
D10*
D11*
X178458026Y-196593328D02*
X178458026Y-195093328D01*
X179315169Y-196593328D02*
X178672312Y-195736185D01*
X179315169Y-195093328D02*
X178458026Y-195950471D01*
X179958026Y-196593328D02*
X179958026Y-195593328D01*
X179958026Y-195093328D02*
X179886598Y-195164757D01*
X179886598Y-195164757D02*
X179958026Y-195236185D01*
X179958026Y-195236185D02*
X180029455Y-195164757D01*
X180029455Y-195164757D02*
X179958026Y-195093328D01*
X179958026Y-195093328D02*
X179958026Y-195236185D01*
X181529455Y-196450471D02*
X181458027Y-196521900D01*
X181458027Y-196521900D02*
X181243741Y-196593328D01*
X181243741Y-196593328D02*
X181100884Y-196593328D01*
X181100884Y-196593328D02*
X180886598Y-196521900D01*
X180886598Y-196521900D02*
X180743741Y-196379042D01*
X180743741Y-196379042D02*
X180672312Y-196236185D01*
X180672312Y-196236185D02*
X180600884Y-195950471D01*
X180600884Y-195950471D02*
X180600884Y-195736185D01*
X180600884Y-195736185D02*
X180672312Y-195450471D01*
X180672312Y-195450471D02*
X180743741Y-195307614D01*
X180743741Y-195307614D02*
X180886598Y-195164757D01*
X180886598Y-195164757D02*
X181100884Y-195093328D01*
X181100884Y-195093328D02*
X181243741Y-195093328D01*
X181243741Y-195093328D02*
X181458027Y-195164757D01*
X181458027Y-195164757D02*
X181529455Y-195236185D01*
X182815170Y-196593328D02*
X182815170Y-195807614D01*
X182815170Y-195807614D02*
X182743741Y-195664757D01*
X182743741Y-195664757D02*
X182600884Y-195593328D01*
X182600884Y-195593328D02*
X182315170Y-195593328D01*
X182315170Y-195593328D02*
X182172312Y-195664757D01*
X182815170Y-196521900D02*
X182672312Y-196593328D01*
X182672312Y-196593328D02*
X182315170Y-196593328D01*
X182315170Y-196593328D02*
X182172312Y-196521900D01*
X182172312Y-196521900D02*
X182100884Y-196379042D01*
X182100884Y-196379042D02*
X182100884Y-196236185D01*
X182100884Y-196236185D02*
X182172312Y-196093328D01*
X182172312Y-196093328D02*
X182315170Y-196021900D01*
X182315170Y-196021900D02*
X182672312Y-196021900D01*
X182672312Y-196021900D02*
X182815170Y-195950471D01*
X184172313Y-196593328D02*
X184172313Y-195093328D01*
X184172313Y-196521900D02*
X184029455Y-196593328D01*
X184029455Y-196593328D02*
X183743741Y-196593328D01*
X183743741Y-196593328D02*
X183600884Y-196521900D01*
X183600884Y-196521900D02*
X183529455Y-196450471D01*
X183529455Y-196450471D02*
X183458027Y-196307614D01*
X183458027Y-196307614D02*
X183458027Y-195879042D01*
X183458027Y-195879042D02*
X183529455Y-195736185D01*
X183529455Y-195736185D02*
X183600884Y-195664757D01*
X183600884Y-195664757D02*
X183743741Y-195593328D01*
X183743741Y-195593328D02*
X184029455Y-195593328D01*
X184029455Y-195593328D02*
X184172313Y-195664757D01*
X186029455Y-195807614D02*
X186529455Y-195807614D01*
X186743741Y-196593328D02*
X186029455Y-196593328D01*
X186029455Y-196593328D02*
X186029455Y-195093328D01*
X186029455Y-195093328D02*
X186743741Y-195093328D01*
X187386598Y-196450471D02*
X187458027Y-196521900D01*
X187458027Y-196521900D02*
X187386598Y-196593328D01*
X187386598Y-196593328D02*
X187315170Y-196521900D01*
X187315170Y-196521900D02*
X187386598Y-196450471D01*
X187386598Y-196450471D02*
X187386598Y-196593328D01*
X188100884Y-196593328D02*
X188100884Y-195093328D01*
X188100884Y-195093328D02*
X188458027Y-195093328D01*
X188458027Y-195093328D02*
X188672313Y-195164757D01*
X188672313Y-195164757D02*
X188815170Y-195307614D01*
X188815170Y-195307614D02*
X188886599Y-195450471D01*
X188886599Y-195450471D02*
X188958027Y-195736185D01*
X188958027Y-195736185D02*
X188958027Y-195950471D01*
X188958027Y-195950471D02*
X188886599Y-196236185D01*
X188886599Y-196236185D02*
X188815170Y-196379042D01*
X188815170Y-196379042D02*
X188672313Y-196521900D01*
X188672313Y-196521900D02*
X188458027Y-196593328D01*
X188458027Y-196593328D02*
X188100884Y-196593328D01*
X189600884Y-196450471D02*
X189672313Y-196521900D01*
X189672313Y-196521900D02*
X189600884Y-196593328D01*
X189600884Y-196593328D02*
X189529456Y-196521900D01*
X189529456Y-196521900D02*
X189600884Y-196450471D01*
X189600884Y-196450471D02*
X189600884Y-196593328D01*
X190243742Y-196164757D02*
X190958028Y-196164757D01*
X190100885Y-196593328D02*
X190600885Y-195093328D01*
X190600885Y-195093328D02*
X191100885Y-196593328D01*
X191600884Y-196450471D02*
X191672313Y-196521900D01*
X191672313Y-196521900D02*
X191600884Y-196593328D01*
X191600884Y-196593328D02*
X191529456Y-196521900D01*
X191529456Y-196521900D02*
X191600884Y-196450471D01*
X191600884Y-196450471D02*
X191600884Y-196593328D01*
X193529456Y-196593328D02*
X193815170Y-196593328D01*
X193815170Y-196593328D02*
X193958027Y-196521900D01*
X193958027Y-196521900D02*
X194029456Y-196450471D01*
X194029456Y-196450471D02*
X194172313Y-196236185D01*
X194172313Y-196236185D02*
X194243742Y-195950471D01*
X194243742Y-195950471D02*
X194243742Y-195379042D01*
X194243742Y-195379042D02*
X194172313Y-195236185D01*
X194172313Y-195236185D02*
X194100885Y-195164757D01*
X194100885Y-195164757D02*
X193958027Y-195093328D01*
X193958027Y-195093328D02*
X193672313Y-195093328D01*
X193672313Y-195093328D02*
X193529456Y-195164757D01*
X193529456Y-195164757D02*
X193458027Y-195236185D01*
X193458027Y-195236185D02*
X193386599Y-195379042D01*
X193386599Y-195379042D02*
X193386599Y-195736185D01*
X193386599Y-195736185D02*
X193458027Y-195879042D01*
X193458027Y-195879042D02*
X193529456Y-195950471D01*
X193529456Y-195950471D02*
X193672313Y-196021900D01*
X193672313Y-196021900D02*
X193958027Y-196021900D01*
X193958027Y-196021900D02*
X194100885Y-195950471D01*
X194100885Y-195950471D02*
X194172313Y-195879042D01*
X194172313Y-195879042D02*
X194243742Y-195736185D01*
X194886598Y-196450471D02*
X194958027Y-196521900D01*
X194958027Y-196521900D02*
X194886598Y-196593328D01*
X194886598Y-196593328D02*
X194815170Y-196521900D01*
X194815170Y-196521900D02*
X194886598Y-196450471D01*
X194886598Y-196450471D02*
X194886598Y-196593328D01*
X195886599Y-195093328D02*
X196029456Y-195093328D01*
X196029456Y-195093328D02*
X196172313Y-195164757D01*
X196172313Y-195164757D02*
X196243742Y-195236185D01*
X196243742Y-195236185D02*
X196315170Y-195379042D01*
X196315170Y-195379042D02*
X196386599Y-195664757D01*
X196386599Y-195664757D02*
X196386599Y-196021900D01*
X196386599Y-196021900D02*
X196315170Y-196307614D01*
X196315170Y-196307614D02*
X196243742Y-196450471D01*
X196243742Y-196450471D02*
X196172313Y-196521900D01*
X196172313Y-196521900D02*
X196029456Y-196593328D01*
X196029456Y-196593328D02*
X195886599Y-196593328D01*
X195886599Y-196593328D02*
X195743742Y-196521900D01*
X195743742Y-196521900D02*
X195672313Y-196450471D01*
X195672313Y-196450471D02*
X195600884Y-196307614D01*
X195600884Y-196307614D02*
X195529456Y-196021900D01*
X195529456Y-196021900D02*
X195529456Y-195664757D01*
X195529456Y-195664757D02*
X195600884Y-195379042D01*
X195600884Y-195379042D02*
X195672313Y-195236185D01*
X195672313Y-195236185D02*
X195743742Y-195164757D01*
X195743742Y-195164757D02*
X195886599Y-195093328D01*
X197029455Y-196450471D02*
X197100884Y-196521900D01*
X197100884Y-196521900D02*
X197029455Y-196593328D01*
X197029455Y-196593328D02*
X196958027Y-196521900D01*
X196958027Y-196521900D02*
X197029455Y-196450471D01*
X197029455Y-196450471D02*
X197029455Y-196593328D01*
X197600884Y-195093328D02*
X198600884Y-195093328D01*
X198600884Y-195093328D02*
X197958027Y-196593328D01*
D10*
D11*
X177002200Y-191507200D02*
X285002200Y-191507200D01*
D10*
D12*
X264413853Y-193785528D02*
X263913853Y-193071242D01*
X263556710Y-193785528D02*
X263556710Y-192285528D01*
X263556710Y-192285528D02*
X264128139Y-192285528D01*
X264128139Y-192285528D02*
X264270996Y-192356957D01*
X264270996Y-192356957D02*
X264342425Y-192428385D01*
X264342425Y-192428385D02*
X264413853Y-192571242D01*
X264413853Y-192571242D02*
X264413853Y-192785528D01*
X264413853Y-192785528D02*
X264342425Y-192928385D01*
X264342425Y-192928385D02*
X264270996Y-192999814D01*
X264270996Y-192999814D02*
X264128139Y-193071242D01*
X264128139Y-193071242D02*
X263556710Y-193071242D01*
X265628139Y-193714100D02*
X265485282Y-193785528D01*
X265485282Y-193785528D02*
X265199568Y-193785528D01*
X265199568Y-193785528D02*
X265056710Y-193714100D01*
X265056710Y-193714100D02*
X264985282Y-193571242D01*
X264985282Y-193571242D02*
X264985282Y-192999814D01*
X264985282Y-192999814D02*
X265056710Y-192856957D01*
X265056710Y-192856957D02*
X265199568Y-192785528D01*
X265199568Y-192785528D02*
X265485282Y-192785528D01*
X265485282Y-192785528D02*
X265628139Y-192856957D01*
X265628139Y-192856957D02*
X265699568Y-192999814D01*
X265699568Y-192999814D02*
X265699568Y-193142671D01*
X265699568Y-193142671D02*
X264985282Y-193285528D01*
X266199567Y-192785528D02*
X266556710Y-193785528D01*
X266556710Y-193785528D02*
X266913853Y-192785528D01*
X267485281Y-193642671D02*
X267556710Y-193714100D01*
X267556710Y-193714100D02*
X267485281Y-193785528D01*
X267485281Y-193785528D02*
X267413853Y-193714100D01*
X267413853Y-193714100D02*
X267485281Y-193642671D01*
X267485281Y-193642671D02*
X267485281Y-193785528D01*
X267485281Y-192856957D02*
X267556710Y-192928385D01*
X267556710Y-192928385D02*
X267485281Y-192999814D01*
X267485281Y-192999814D02*
X267413853Y-192928385D01*
X267413853Y-192928385D02*
X267485281Y-192856957D01*
X267485281Y-192856957D02*
X267485281Y-192999814D01*
D10*
D11*
X178386598Y-193721900D02*
X178600884Y-193793328D01*
X178600884Y-193793328D02*
X178958026Y-193793328D01*
X178958026Y-193793328D02*
X179100884Y-193721900D01*
X179100884Y-193721900D02*
X179172312Y-193650471D01*
X179172312Y-193650471D02*
X179243741Y-193507614D01*
X179243741Y-193507614D02*
X179243741Y-193364757D01*
X179243741Y-193364757D02*
X179172312Y-193221900D01*
X179172312Y-193221900D02*
X179100884Y-193150471D01*
X179100884Y-193150471D02*
X178958026Y-193079042D01*
X178958026Y-193079042D02*
X178672312Y-193007614D01*
X178672312Y-193007614D02*
X178529455Y-192936185D01*
X178529455Y-192936185D02*
X178458026Y-192864757D01*
X178458026Y-192864757D02*
X178386598Y-192721900D01*
X178386598Y-192721900D02*
X178386598Y-192579042D01*
X178386598Y-192579042D02*
X178458026Y-192436185D01*
X178458026Y-192436185D02*
X178529455Y-192364757D01*
X178529455Y-192364757D02*
X178672312Y-192293328D01*
X178672312Y-192293328D02*
X179029455Y-192293328D01*
X179029455Y-192293328D02*
X179243741Y-192364757D01*
X179886597Y-193793328D02*
X179886597Y-192793328D01*
X179886597Y-192293328D02*
X179815169Y-192364757D01*
X179815169Y-192364757D02*
X179886597Y-192436185D01*
X179886597Y-192436185D02*
X179958026Y-192364757D01*
X179958026Y-192364757D02*
X179886597Y-192293328D01*
X179886597Y-192293328D02*
X179886597Y-192436185D01*
X180458026Y-192793328D02*
X181243741Y-192793328D01*
X181243741Y-192793328D02*
X180458026Y-193793328D01*
X180458026Y-193793328D02*
X181243741Y-193793328D01*
X182386598Y-193721900D02*
X182243741Y-193793328D01*
X182243741Y-193793328D02*
X181958027Y-193793328D01*
X181958027Y-193793328D02*
X181815169Y-193721900D01*
X181815169Y-193721900D02*
X181743741Y-193579042D01*
X181743741Y-193579042D02*
X181743741Y-193007614D01*
X181743741Y-193007614D02*
X181815169Y-192864757D01*
X181815169Y-192864757D02*
X181958027Y-192793328D01*
X181958027Y-192793328D02*
X182243741Y-192793328D01*
X182243741Y-192793328D02*
X182386598Y-192864757D01*
X182386598Y-192864757D02*
X182458027Y-193007614D01*
X182458027Y-193007614D02*
X182458027Y-193150471D01*
X182458027Y-193150471D02*
X181743741Y-193293328D01*
X183100883Y-193650471D02*
X183172312Y-193721900D01*
X183172312Y-193721900D02*
X183100883Y-193793328D01*
X183100883Y-193793328D02*
X183029455Y-193721900D01*
X183029455Y-193721900D02*
X183100883Y-193650471D01*
X183100883Y-193650471D02*
X183100883Y-193793328D01*
X183100883Y-192864757D02*
X183172312Y-192936185D01*
X183172312Y-192936185D02*
X183100883Y-193007614D01*
X183100883Y-193007614D02*
X183029455Y-192936185D01*
X183029455Y-192936185D02*
X183100883Y-192864757D01*
X183100883Y-192864757D02*
X183100883Y-193007614D01*
X184886598Y-193364757D02*
X185600884Y-193364757D01*
X184743741Y-193793328D02*
X185243741Y-192293328D01*
X185243741Y-192293328D02*
X185743741Y-193793328D01*
X186886598Y-192793328D02*
X186886598Y-193793328D01*
X186529455Y-192221900D02*
X186172312Y-193293328D01*
X186172312Y-193293328D02*
X187100883Y-193293328D01*
D10*
D11*
X263458026Y-196593328D02*
X263458026Y-195093328D01*
X264815170Y-196593328D02*
X264815170Y-195093328D01*
X264815170Y-196521900D02*
X264672312Y-196593328D01*
X264672312Y-196593328D02*
X264386598Y-196593328D01*
X264386598Y-196593328D02*
X264243741Y-196521900D01*
X264243741Y-196521900D02*
X264172312Y-196450471D01*
X264172312Y-196450471D02*
X264100884Y-196307614D01*
X264100884Y-196307614D02*
X264100884Y-195879042D01*
X264100884Y-195879042D02*
X264172312Y-195736185D01*
X264172312Y-195736185D02*
X264243741Y-195664757D01*
X264243741Y-195664757D02*
X264386598Y-195593328D01*
X264386598Y-195593328D02*
X264672312Y-195593328D01*
X264672312Y-195593328D02*
X264815170Y-195664757D01*
X265529455Y-196450471D02*
X265600884Y-196521900D01*
X265600884Y-196521900D02*
X265529455Y-196593328D01*
X265529455Y-196593328D02*
X265458027Y-196521900D01*
X265458027Y-196521900D02*
X265529455Y-196450471D01*
X265529455Y-196450471D02*
X265529455Y-196593328D01*
X265529455Y-195664757D02*
X265600884Y-195736185D01*
X265600884Y-195736185D02*
X265529455Y-195807614D01*
X265529455Y-195807614D02*
X265458027Y-195736185D01*
X265458027Y-195736185D02*
X265529455Y-195664757D01*
X265529455Y-195664757D02*
X265529455Y-195807614D01*
X267315170Y-195236185D02*
X267386598Y-195164757D01*
X267386598Y-195164757D02*
X267529456Y-195093328D01*
X267529456Y-195093328D02*
X267886598Y-195093328D01*
X267886598Y-195093328D02*
X268029456Y-195164757D01*
X268029456Y-195164757D02*
X268100884Y-195236185D01*
X268100884Y-195236185D02*
X268172313Y-195379042D01*
X268172313Y-195379042D02*
X268172313Y-195521900D01*
X268172313Y-195521900D02*
X268100884Y-195736185D01*
X268100884Y-195736185D02*
X267243741Y-196593328D01*
X267243741Y-196593328D02*
X268172313Y-196593328D01*
X269886598Y-195021900D02*
X268600884Y-196950471D01*
X270600884Y-195736185D02*
X270458027Y-195664757D01*
X270458027Y-195664757D02*
X270386598Y-195593328D01*
X270386598Y-195593328D02*
X270315170Y-195450471D01*
X270315170Y-195450471D02*
X270315170Y-195379042D01*
X270315170Y-195379042D02*
X270386598Y-195236185D01*
X270386598Y-195236185D02*
X270458027Y-195164757D01*
X270458027Y-195164757D02*
X270600884Y-195093328D01*
X270600884Y-195093328D02*
X270886598Y-195093328D01*
X270886598Y-195093328D02*
X271029456Y-195164757D01*
X271029456Y-195164757D02*
X271100884Y-195236185D01*
X271100884Y-195236185D02*
X271172313Y-195379042D01*
X271172313Y-195379042D02*
X271172313Y-195450471D01*
X271172313Y-195450471D02*
X271100884Y-195593328D01*
X271100884Y-195593328D02*
X271029456Y-195664757D01*
X271029456Y-195664757D02*
X270886598Y-195736185D01*
X270886598Y-195736185D02*
X270600884Y-195736185D01*
X270600884Y-195736185D02*
X270458027Y-195807614D01*
X270458027Y-195807614D02*
X270386598Y-195879042D01*
X270386598Y-195879042D02*
X270315170Y-196021900D01*
X270315170Y-196021900D02*
X270315170Y-196307614D01*
X270315170Y-196307614D02*
X270386598Y-196450471D01*
X270386598Y-196450471D02*
X270458027Y-196521900D01*
X270458027Y-196521900D02*
X270600884Y-196593328D01*
X270600884Y-196593328D02*
X270886598Y-196593328D01*
X270886598Y-196593328D02*
X271029456Y-196521900D01*
X271029456Y-196521900D02*
X271100884Y-196450471D01*
X271100884Y-196450471D02*
X271172313Y-196307614D01*
X271172313Y-196307614D02*
X271172313Y-196021900D01*
X271172313Y-196021900D02*
X271100884Y-195879042D01*
X271100884Y-195879042D02*
X271029456Y-195807614D01*
X271029456Y-195807614D02*
X270886598Y-195736185D01*
D10*
D11*
X177002200Y-187507200D02*
X285002200Y-187507200D01*
D10*
D13*
X178693928Y-188211638D02*
X179836785Y-188211638D01*
X179015357Y-190211638D02*
X179265357Y-188211638D01*
X180253452Y-190211638D02*
X180420119Y-188878304D01*
X180503452Y-188211638D02*
X180396309Y-188306876D01*
X180396309Y-188306876D02*
X180479643Y-188402114D01*
X180479643Y-188402114D02*
X180586786Y-188306876D01*
X180586786Y-188306876D02*
X180503452Y-188211638D01*
X180503452Y-188211638D02*
X180479643Y-188402114D01*
X181086786Y-188878304D02*
X181848690Y-188878304D01*
X181455833Y-188211638D02*
X181241548Y-189925923D01*
X181241548Y-189925923D02*
X181312976Y-190116400D01*
X181312976Y-190116400D02*
X181491548Y-190211638D01*
X181491548Y-190211638D02*
X181682024Y-190211638D01*
X182634405Y-190211638D02*
X182455833Y-190116400D01*
X182455833Y-190116400D02*
X182384405Y-189925923D01*
X182384405Y-189925923D02*
X182598690Y-188211638D01*
X184170119Y-190116400D02*
X183967738Y-190211638D01*
X183967738Y-190211638D02*
X183586785Y-190211638D01*
X183586785Y-190211638D02*
X183408214Y-190116400D01*
X183408214Y-190116400D02*
X183336785Y-189925923D01*
X183336785Y-189925923D02*
X183432024Y-189164019D01*
X183432024Y-189164019D02*
X183551071Y-188973542D01*
X183551071Y-188973542D02*
X183753452Y-188878304D01*
X183753452Y-188878304D02*
X184134404Y-188878304D01*
X184134404Y-188878304D02*
X184312976Y-188973542D01*
X184312976Y-188973542D02*
X184384404Y-189164019D01*
X184384404Y-189164019D02*
X184360595Y-189354495D01*
X184360595Y-189354495D02*
X183384404Y-189544971D01*
X185134405Y-190021161D02*
X185217738Y-190116400D01*
X185217738Y-190116400D02*
X185110595Y-190211638D01*
X185110595Y-190211638D02*
X185027262Y-190116400D01*
X185027262Y-190116400D02*
X185134405Y-190021161D01*
X185134405Y-190021161D02*
X185110595Y-190211638D01*
X185265357Y-188973542D02*
X185348690Y-189068780D01*
X185348690Y-189068780D02*
X185241548Y-189164019D01*
X185241548Y-189164019D02*
X185158214Y-189068780D01*
X185158214Y-189068780D02*
X185265357Y-188973542D01*
X185265357Y-188973542D02*
X185241548Y-189164019D01*
D10*
D11*
X178958026Y-185607614D02*
X178458026Y-185607614D01*
X178458026Y-186393328D02*
X178458026Y-184893328D01*
X178458026Y-184893328D02*
X179172312Y-184893328D01*
X179743740Y-186393328D02*
X179743740Y-185393328D01*
X179743740Y-184893328D02*
X179672312Y-184964757D01*
X179672312Y-184964757D02*
X179743740Y-185036185D01*
X179743740Y-185036185D02*
X179815169Y-184964757D01*
X179815169Y-184964757D02*
X179743740Y-184893328D01*
X179743740Y-184893328D02*
X179743740Y-185036185D01*
X180672312Y-186393328D02*
X180529455Y-186321900D01*
X180529455Y-186321900D02*
X180458026Y-186179042D01*
X180458026Y-186179042D02*
X180458026Y-184893328D01*
X181815169Y-186321900D02*
X181672312Y-186393328D01*
X181672312Y-186393328D02*
X181386598Y-186393328D01*
X181386598Y-186393328D02*
X181243740Y-186321900D01*
X181243740Y-186321900D02*
X181172312Y-186179042D01*
X181172312Y-186179042D02*
X181172312Y-185607614D01*
X181172312Y-185607614D02*
X181243740Y-185464757D01*
X181243740Y-185464757D02*
X181386598Y-185393328D01*
X181386598Y-185393328D02*
X181672312Y-185393328D01*
X181672312Y-185393328D02*
X181815169Y-185464757D01*
X181815169Y-185464757D02*
X181886598Y-185607614D01*
X181886598Y-185607614D02*
X181886598Y-185750471D01*
X181886598Y-185750471D02*
X181172312Y-185893328D01*
X182529454Y-186250471D02*
X182600883Y-186321900D01*
X182600883Y-186321900D02*
X182529454Y-186393328D01*
X182529454Y-186393328D02*
X182458026Y-186321900D01*
X182458026Y-186321900D02*
X182529454Y-186250471D01*
X182529454Y-186250471D02*
X182529454Y-186393328D01*
X182529454Y-185464757D02*
X182600883Y-185536185D01*
X182600883Y-185536185D02*
X182529454Y-185607614D01*
X182529454Y-185607614D02*
X182458026Y-185536185D01*
X182458026Y-185536185D02*
X182529454Y-185464757D01*
X182529454Y-185464757D02*
X182529454Y-185607614D01*
X184386597Y-186393328D02*
X184386597Y-184893328D01*
X184386597Y-184893328D02*
X184743740Y-184893328D01*
X184743740Y-184893328D02*
X184958026Y-184964757D01*
X184958026Y-184964757D02*
X185100883Y-185107614D01*
X185100883Y-185107614D02*
X185172312Y-185250471D01*
X185172312Y-185250471D02*
X185243740Y-185536185D01*
X185243740Y-185536185D02*
X185243740Y-185750471D01*
X185243740Y-185750471D02*
X185172312Y-186036185D01*
X185172312Y-186036185D02*
X185100883Y-186179042D01*
X185100883Y-186179042D02*
X184958026Y-186321900D01*
X184958026Y-186321900D02*
X184743740Y-186393328D01*
X184743740Y-186393328D02*
X184386597Y-186393328D01*
X185886597Y-186393328D02*
X185886597Y-185393328D01*
X185886597Y-184893328D02*
X185815169Y-184964757D01*
X185815169Y-184964757D02*
X185886597Y-185036185D01*
X185886597Y-185036185D02*
X185958026Y-184964757D01*
X185958026Y-184964757D02*
X185886597Y-184893328D01*
X185886597Y-184893328D02*
X185886597Y-185036185D01*
X186529455Y-186321900D02*
X186672312Y-186393328D01*
X186672312Y-186393328D02*
X186958026Y-186393328D01*
X186958026Y-186393328D02*
X187100883Y-186321900D01*
X187100883Y-186321900D02*
X187172312Y-186179042D01*
X187172312Y-186179042D02*
X187172312Y-186107614D01*
X187172312Y-186107614D02*
X187100883Y-185964757D01*
X187100883Y-185964757D02*
X186958026Y-185893328D01*
X186958026Y-185893328D02*
X186743741Y-185893328D01*
X186743741Y-185893328D02*
X186600883Y-185821900D01*
X186600883Y-185821900D02*
X186529455Y-185679042D01*
X186529455Y-185679042D02*
X186529455Y-185607614D01*
X186529455Y-185607614D02*
X186600883Y-185464757D01*
X186600883Y-185464757D02*
X186743741Y-185393328D01*
X186743741Y-185393328D02*
X186958026Y-185393328D01*
X186958026Y-185393328D02*
X187100883Y-185464757D01*
X187600884Y-185393328D02*
X188172312Y-185393328D01*
X187815169Y-184893328D02*
X187815169Y-186179042D01*
X187815169Y-186179042D02*
X187886598Y-186321900D01*
X187886598Y-186321900D02*
X188029455Y-186393328D01*
X188029455Y-186393328D02*
X188172312Y-186393328D01*
X188886598Y-186393328D02*
X188743741Y-186321900D01*
X188743741Y-186321900D02*
X188672312Y-186250471D01*
X188672312Y-186250471D02*
X188600884Y-186107614D01*
X188600884Y-186107614D02*
X188600884Y-185679042D01*
X188600884Y-185679042D02*
X188672312Y-185536185D01*
X188672312Y-185536185D02*
X188743741Y-185464757D01*
X188743741Y-185464757D02*
X188886598Y-185393328D01*
X188886598Y-185393328D02*
X189100884Y-185393328D01*
X189100884Y-185393328D02*
X189243741Y-185464757D01*
X189243741Y-185464757D02*
X189315170Y-185536185D01*
X189315170Y-185536185D02*
X189386598Y-185679042D01*
X189386598Y-185679042D02*
X189386598Y-186107614D01*
X189386598Y-186107614D02*
X189315170Y-186250471D01*
X189315170Y-186250471D02*
X189243741Y-186321900D01*
X189243741Y-186321900D02*
X189100884Y-186393328D01*
X189100884Y-186393328D02*
X188886598Y-186393328D01*
X190029455Y-186393328D02*
X190029455Y-185393328D01*
X190029455Y-185679042D02*
X190100884Y-185536185D01*
X190100884Y-185536185D02*
X190172313Y-185464757D01*
X190172313Y-185464757D02*
X190315170Y-185393328D01*
X190315170Y-185393328D02*
X190458027Y-185393328D01*
X190743741Y-185393328D02*
X191315169Y-185393328D01*
X190958026Y-184893328D02*
X190958026Y-186179042D01*
X190958026Y-186179042D02*
X191029455Y-186321900D01*
X191029455Y-186321900D02*
X191172312Y-186393328D01*
X191172312Y-186393328D02*
X191315169Y-186393328D01*
X191815169Y-186393328D02*
X191815169Y-185393328D01*
X191815169Y-184893328D02*
X191743741Y-184964757D01*
X191743741Y-184964757D02*
X191815169Y-185036185D01*
X191815169Y-185036185D02*
X191886598Y-184964757D01*
X191886598Y-184964757D02*
X191815169Y-184893328D01*
X191815169Y-184893328D02*
X191815169Y-185036185D01*
X192743741Y-186393328D02*
X192600884Y-186321900D01*
X192600884Y-186321900D02*
X192529455Y-186250471D01*
X192529455Y-186250471D02*
X192458027Y-186107614D01*
X192458027Y-186107614D02*
X192458027Y-185679042D01*
X192458027Y-185679042D02*
X192529455Y-185536185D01*
X192529455Y-185536185D02*
X192600884Y-185464757D01*
X192600884Y-185464757D02*
X192743741Y-185393328D01*
X192743741Y-185393328D02*
X192958027Y-185393328D01*
X192958027Y-185393328D02*
X193100884Y-185464757D01*
X193100884Y-185464757D02*
X193172313Y-185536185D01*
X193172313Y-185536185D02*
X193243741Y-185679042D01*
X193243741Y-185679042D02*
X193243741Y-186107614D01*
X193243741Y-186107614D02*
X193172313Y-186250471D01*
X193172313Y-186250471D02*
X193100884Y-186321900D01*
X193100884Y-186321900D02*
X192958027Y-186393328D01*
X192958027Y-186393328D02*
X192743741Y-186393328D01*
X193886598Y-185393328D02*
X193886598Y-186393328D01*
X193886598Y-185536185D02*
X193958027Y-185464757D01*
X193958027Y-185464757D02*
X194100884Y-185393328D01*
X194100884Y-185393328D02*
X194315170Y-185393328D01*
X194315170Y-185393328D02*
X194458027Y-185464757D01*
X194458027Y-185464757D02*
X194529456Y-185607614D01*
X194529456Y-185607614D02*
X194529456Y-186393328D01*
X196386598Y-186393328D02*
X196386598Y-184893328D01*
X196386598Y-184893328D02*
X196958027Y-184893328D01*
X196958027Y-184893328D02*
X197100884Y-184964757D01*
X197100884Y-184964757D02*
X197172313Y-185036185D01*
X197172313Y-185036185D02*
X197243741Y-185179042D01*
X197243741Y-185179042D02*
X197243741Y-185393328D01*
X197243741Y-185393328D02*
X197172313Y-185536185D01*
X197172313Y-185536185D02*
X197100884Y-185607614D01*
X197100884Y-185607614D02*
X196958027Y-185679042D01*
X196958027Y-185679042D02*
X196386598Y-185679042D01*
X198458027Y-186321900D02*
X198315170Y-186393328D01*
X198315170Y-186393328D02*
X198029456Y-186393328D01*
X198029456Y-186393328D02*
X197886598Y-186321900D01*
X197886598Y-186321900D02*
X197815170Y-186179042D01*
X197815170Y-186179042D02*
X197815170Y-185607614D01*
X197815170Y-185607614D02*
X197886598Y-185464757D01*
X197886598Y-185464757D02*
X198029456Y-185393328D01*
X198029456Y-185393328D02*
X198315170Y-185393328D01*
X198315170Y-185393328D02*
X198458027Y-185464757D01*
X198458027Y-185464757D02*
X198529456Y-185607614D01*
X198529456Y-185607614D02*
X198529456Y-185750471D01*
X198529456Y-185750471D02*
X197815170Y-185893328D01*
X199815170Y-186393328D02*
X199815170Y-184893328D01*
X199815170Y-186321900D02*
X199672312Y-186393328D01*
X199672312Y-186393328D02*
X199386598Y-186393328D01*
X199386598Y-186393328D02*
X199243741Y-186321900D01*
X199243741Y-186321900D02*
X199172312Y-186250471D01*
X199172312Y-186250471D02*
X199100884Y-186107614D01*
X199100884Y-186107614D02*
X199100884Y-185679042D01*
X199100884Y-185679042D02*
X199172312Y-185536185D01*
X199172312Y-185536185D02*
X199243741Y-185464757D01*
X199243741Y-185464757D02*
X199386598Y-185393328D01*
X199386598Y-185393328D02*
X199672312Y-185393328D01*
X199672312Y-185393328D02*
X199815170Y-185464757D01*
X201172313Y-186393328D02*
X201172313Y-185607614D01*
X201172313Y-185607614D02*
X201100884Y-185464757D01*
X201100884Y-185464757D02*
X200958027Y-185393328D01*
X200958027Y-185393328D02*
X200672313Y-185393328D01*
X200672313Y-185393328D02*
X200529455Y-185464757D01*
X201172313Y-186321900D02*
X201029455Y-186393328D01*
X201029455Y-186393328D02*
X200672313Y-186393328D01*
X200672313Y-186393328D02*
X200529455Y-186321900D01*
X200529455Y-186321900D02*
X200458027Y-186179042D01*
X200458027Y-186179042D02*
X200458027Y-186036185D01*
X200458027Y-186036185D02*
X200529455Y-185893328D01*
X200529455Y-185893328D02*
X200672313Y-185821900D01*
X200672313Y-185821900D02*
X201029455Y-185821900D01*
X201029455Y-185821900D02*
X201172313Y-185750471D01*
X202100884Y-186393328D02*
X201958027Y-186321900D01*
X201958027Y-186321900D02*
X201886598Y-186179042D01*
X201886598Y-186179042D02*
X201886598Y-184893328D01*
X202672312Y-186250471D02*
X202743741Y-186321900D01*
X202743741Y-186321900D02*
X202672312Y-186393328D01*
X202672312Y-186393328D02*
X202600884Y-186321900D01*
X202600884Y-186321900D02*
X202672312Y-186250471D01*
X202672312Y-186250471D02*
X202672312Y-186393328D01*
X203386598Y-186393328D02*
X203386598Y-184893328D01*
X203529456Y-185821900D02*
X203958027Y-186393328D01*
X203958027Y-185393328D02*
X203386598Y-185964757D01*
X204600884Y-186393328D02*
X204600884Y-185393328D01*
X204600884Y-184893328D02*
X204529456Y-184964757D01*
X204529456Y-184964757D02*
X204600884Y-185036185D01*
X204600884Y-185036185D02*
X204672313Y-184964757D01*
X204672313Y-184964757D02*
X204600884Y-184893328D01*
X204600884Y-184893328D02*
X204600884Y-185036185D01*
X205958028Y-186321900D02*
X205815170Y-186393328D01*
X205815170Y-186393328D02*
X205529456Y-186393328D01*
X205529456Y-186393328D02*
X205386599Y-186321900D01*
X205386599Y-186321900D02*
X205315170Y-186250471D01*
X205315170Y-186250471D02*
X205243742Y-186107614D01*
X205243742Y-186107614D02*
X205243742Y-185679042D01*
X205243742Y-185679042D02*
X205315170Y-185536185D01*
X205315170Y-185536185D02*
X205386599Y-185464757D01*
X205386599Y-185464757D02*
X205529456Y-185393328D01*
X205529456Y-185393328D02*
X205815170Y-185393328D01*
X205815170Y-185393328D02*
X205958028Y-185464757D01*
X207243742Y-186393328D02*
X207243742Y-185607614D01*
X207243742Y-185607614D02*
X207172313Y-185464757D01*
X207172313Y-185464757D02*
X207029456Y-185393328D01*
X207029456Y-185393328D02*
X206743742Y-185393328D01*
X206743742Y-185393328D02*
X206600884Y-185464757D01*
X207243742Y-186321900D02*
X207100884Y-186393328D01*
X207100884Y-186393328D02*
X206743742Y-186393328D01*
X206743742Y-186393328D02*
X206600884Y-186321900D01*
X206600884Y-186321900D02*
X206529456Y-186179042D01*
X206529456Y-186179042D02*
X206529456Y-186036185D01*
X206529456Y-186036185D02*
X206600884Y-185893328D01*
X206600884Y-185893328D02*
X206743742Y-185821900D01*
X206743742Y-185821900D02*
X207100884Y-185821900D01*
X207100884Y-185821900D02*
X207243742Y-185750471D01*
X208600885Y-186393328D02*
X208600885Y-184893328D01*
X208600885Y-186321900D02*
X208458027Y-186393328D01*
X208458027Y-186393328D02*
X208172313Y-186393328D01*
X208172313Y-186393328D02*
X208029456Y-186321900D01*
X208029456Y-186321900D02*
X207958027Y-186250471D01*
X207958027Y-186250471D02*
X207886599Y-186107614D01*
X207886599Y-186107614D02*
X207886599Y-185679042D01*
X207886599Y-185679042D02*
X207958027Y-185536185D01*
X207958027Y-185536185D02*
X208029456Y-185464757D01*
X208029456Y-185464757D02*
X208172313Y-185393328D01*
X208172313Y-185393328D02*
X208458027Y-185393328D01*
X208458027Y-185393328D02*
X208600885Y-185464757D01*
X208958028Y-186536185D02*
X210100885Y-186536185D01*
X210458027Y-185393328D02*
X210458027Y-186893328D01*
X210458027Y-185464757D02*
X210600885Y-185393328D01*
X210600885Y-185393328D02*
X210886599Y-185393328D01*
X210886599Y-185393328D02*
X211029456Y-185464757D01*
X211029456Y-185464757D02*
X211100885Y-185536185D01*
X211100885Y-185536185D02*
X211172313Y-185679042D01*
X211172313Y-185679042D02*
X211172313Y-186107614D01*
X211172313Y-186107614D02*
X211100885Y-186250471D01*
X211100885Y-186250471D02*
X211029456Y-186321900D01*
X211029456Y-186321900D02*
X210886599Y-186393328D01*
X210886599Y-186393328D02*
X210600885Y-186393328D01*
X210600885Y-186393328D02*
X210458027Y-186321900D01*
X212458028Y-186321900D02*
X212315170Y-186393328D01*
X212315170Y-186393328D02*
X212029456Y-186393328D01*
X212029456Y-186393328D02*
X211886599Y-186321900D01*
X211886599Y-186321900D02*
X211815170Y-186250471D01*
X211815170Y-186250471D02*
X211743742Y-186107614D01*
X211743742Y-186107614D02*
X211743742Y-185679042D01*
X211743742Y-185679042D02*
X211815170Y-185536185D01*
X211815170Y-185536185D02*
X211886599Y-185464757D01*
X211886599Y-185464757D02*
X212029456Y-185393328D01*
X212029456Y-185393328D02*
X212315170Y-185393328D01*
X212315170Y-185393328D02*
X212458028Y-185464757D01*
X213100884Y-186393328D02*
X213100884Y-184893328D01*
X213100884Y-185464757D02*
X213243742Y-185393328D01*
X213243742Y-185393328D02*
X213529456Y-185393328D01*
X213529456Y-185393328D02*
X213672313Y-185464757D01*
X213672313Y-185464757D02*
X213743742Y-185536185D01*
X213743742Y-185536185D02*
X213815170Y-185679042D01*
X213815170Y-185679042D02*
X213815170Y-186107614D01*
X213815170Y-186107614D02*
X213743742Y-186250471D01*
X213743742Y-186250471D02*
X213672313Y-186321900D01*
X213672313Y-186321900D02*
X213529456Y-186393328D01*
X213529456Y-186393328D02*
X213243742Y-186393328D01*
X213243742Y-186393328D02*
X213100884Y-186321900D01*
D10*
D11*
X177002200Y-181507200D02*
X285002200Y-181507200D01*
D10*
D11*
X178386598Y-183621900D02*
X178600884Y-183693328D01*
X178600884Y-183693328D02*
X178958026Y-183693328D01*
X178958026Y-183693328D02*
X179100884Y-183621900D01*
X179100884Y-183621900D02*
X179172312Y-183550471D01*
X179172312Y-183550471D02*
X179243741Y-183407614D01*
X179243741Y-183407614D02*
X179243741Y-183264757D01*
X179243741Y-183264757D02*
X179172312Y-183121900D01*
X179172312Y-183121900D02*
X179100884Y-183050471D01*
X179100884Y-183050471D02*
X178958026Y-182979042D01*
X178958026Y-182979042D02*
X178672312Y-182907614D01*
X178672312Y-182907614D02*
X178529455Y-182836185D01*
X178529455Y-182836185D02*
X178458026Y-182764757D01*
X178458026Y-182764757D02*
X178386598Y-182621900D01*
X178386598Y-182621900D02*
X178386598Y-182479042D01*
X178386598Y-182479042D02*
X178458026Y-182336185D01*
X178458026Y-182336185D02*
X178529455Y-182264757D01*
X178529455Y-182264757D02*
X178672312Y-182193328D01*
X178672312Y-182193328D02*
X179029455Y-182193328D01*
X179029455Y-182193328D02*
X179243741Y-182264757D01*
X179886597Y-183693328D02*
X179886597Y-182193328D01*
X180529455Y-183693328D02*
X180529455Y-182907614D01*
X180529455Y-182907614D02*
X180458026Y-182764757D01*
X180458026Y-182764757D02*
X180315169Y-182693328D01*
X180315169Y-182693328D02*
X180100883Y-182693328D01*
X180100883Y-182693328D02*
X179958026Y-182764757D01*
X179958026Y-182764757D02*
X179886597Y-182836185D01*
X181815169Y-183621900D02*
X181672312Y-183693328D01*
X181672312Y-183693328D02*
X181386598Y-183693328D01*
X181386598Y-183693328D02*
X181243740Y-183621900D01*
X181243740Y-183621900D02*
X181172312Y-183479042D01*
X181172312Y-183479042D02*
X181172312Y-182907614D01*
X181172312Y-182907614D02*
X181243740Y-182764757D01*
X181243740Y-182764757D02*
X181386598Y-182693328D01*
X181386598Y-182693328D02*
X181672312Y-182693328D01*
X181672312Y-182693328D02*
X181815169Y-182764757D01*
X181815169Y-182764757D02*
X181886598Y-182907614D01*
X181886598Y-182907614D02*
X181886598Y-183050471D01*
X181886598Y-183050471D02*
X181172312Y-183193328D01*
X183100883Y-183621900D02*
X182958026Y-183693328D01*
X182958026Y-183693328D02*
X182672312Y-183693328D01*
X182672312Y-183693328D02*
X182529454Y-183621900D01*
X182529454Y-183621900D02*
X182458026Y-183479042D01*
X182458026Y-183479042D02*
X182458026Y-182907614D01*
X182458026Y-182907614D02*
X182529454Y-182764757D01*
X182529454Y-182764757D02*
X182672312Y-182693328D01*
X182672312Y-182693328D02*
X182958026Y-182693328D01*
X182958026Y-182693328D02*
X183100883Y-182764757D01*
X183100883Y-182764757D02*
X183172312Y-182907614D01*
X183172312Y-182907614D02*
X183172312Y-183050471D01*
X183172312Y-183050471D02*
X182458026Y-183193328D01*
X183600883Y-182693328D02*
X184172311Y-182693328D01*
X183815168Y-182193328D02*
X183815168Y-183479042D01*
X183815168Y-183479042D02*
X183886597Y-183621900D01*
X183886597Y-183621900D02*
X184029454Y-183693328D01*
X184029454Y-183693328D02*
X184172311Y-183693328D01*
X184672311Y-183550471D02*
X184743740Y-183621900D01*
X184743740Y-183621900D02*
X184672311Y-183693328D01*
X184672311Y-183693328D02*
X184600883Y-183621900D01*
X184600883Y-183621900D02*
X184672311Y-183550471D01*
X184672311Y-183550471D02*
X184672311Y-183693328D01*
X184672311Y-182764757D02*
X184743740Y-182836185D01*
X184743740Y-182836185D02*
X184672311Y-182907614D01*
X184672311Y-182907614D02*
X184600883Y-182836185D01*
X184600883Y-182836185D02*
X184672311Y-182764757D01*
X184672311Y-182764757D02*
X184672311Y-182907614D01*
D10*
D11*
X197002200Y-191507200D02*
X197002200Y-194507200D01*
D10*
D11*
X261002200Y-191507200D02*
X261002200Y-198007200D01*
D14*
%TO.P,Gnd,1,Pin_1*%
%TO.N,GND*%
X168148000Y-92202000D03*
%TD*%
%TO.P,SwG,1,Pin_1*%
%TO.N,Net-(swGnd1-Pin_1)*%
X166370000Y-113284000D03*
%TD*%
D15*
%TO.P,R2,1*%
%TO.N,GND*%
X166116000Y-104394000D03*
D16*
%TO.P,R2,2*%
%TO.N,Net-(Q2-B)*%
X173736000Y-104394000D03*
%TD*%
D14*
%TO.P,OG,1,Pin_1*%
%TO.N,GND*%
X173228000Y-113284000D03*
%TD*%
D15*
%TO.P,R4,1*%
%TO.N,GND*%
X163068000Y-96774000D03*
D16*
%TO.P,R4,2*%
%TO.N,Net-(Q2-E)*%
X155448000Y-96774000D03*
%TD*%
D15*
%TO.P,R3,1*%
%TO.N,Net-(Q2-C)*%
X155448000Y-93472000D03*
D16*
%TO.P,R3,2*%
%TO.N,Net-(D1-K)*%
X163068000Y-93472000D03*
%TD*%
D14*
%TO.P,In,1,Pin_1*%
%TO.N,Net-(In1-Pin_1)*%
X160020000Y-113284000D03*
%TD*%
D17*
%TO.P,Q2,1,E*%
%TO.N,Net-(Q2-E)*%
X151130000Y-95250000D03*
D18*
%TO.P,Q2,2,B*%
%TO.N,Net-(Q2-B)*%
X151130000Y-93472000D03*
%TO.P,Q2,3,C*%
%TO.N,Net-(Q2-C)*%
X151130000Y-91694000D03*
%TD*%
D14*
%TO.P,InG,1,Pin_1*%
%TO.N,GND*%
X156210000Y-113284000D03*
%TD*%
%TO.P,9v,1,Pin_1*%
%TO.N,Net-(9v1-Pin_1)*%
X172212000Y-92202000D03*
%TD*%
D15*
%TO.P,C1,1*%
%TO.N,Net-(In1-Pin_1)*%
X151130000Y-104100000D03*
%TO.P,C1,2*%
%TO.N,Net-(Q2-B)*%
X151130000Y-99100000D03*
%TD*%
%TO.P,R1,1*%
%TO.N,Net-(Q2-B)*%
X173736000Y-101092000D03*
D16*
%TO.P,R1,2*%
%TO.N,Net-(D1-K)*%
X166116000Y-101092000D03*
%TD*%
D19*
%TO.P,D1,1,K*%
%TO.N,Net-(D1-K)*%
X166116000Y-96520000D03*
D16*
%TO.P,D1,2,A*%
%TO.N,Net-(9v1-Pin_1)*%
X173736000Y-96520000D03*
%TD*%
D15*
%TO.P,C2,1*%
%TO.N,Net-(Q2-C)*%
X160488000Y-104140000D03*
%TO.P,C2,2*%
%TO.N,Net-(C2-Pad2)*%
X155488000Y-104140000D03*
%TD*%
%TO.P,R5,1*%
%TO.N,Net-(LED1-A)*%
X155448000Y-100330000D03*
D16*
%TO.P,R5,2*%
%TO.N,Net-(swGnd1-Pin_1)*%
X163068000Y-100330000D03*
%TD*%
D14*
%TO.P,SW,1,Pin_1*%
%TO.N,Net-(D1-K)*%
X163195000Y-113284000D03*
%TD*%
%TO.P,O,1,Pin_1*%
%TO.N,Net-(Out1-Pin_1)*%
X169545000Y-113284000D03*
%TD*%
D20*
%TO.P,POT1,1,1*%
%TO.N,GND*%
X166594800Y-107950000D03*
%TO.P,POT1,2,2*%
%TO.N,Net-(Out1-Pin_1)*%
X161594800Y-107950000D03*
%TO.P,POT1,3,3*%
%TO.N,Net-(C2-Pad2)*%
X156594800Y-107950000D03*
%TD*%
D21*
%TO.P,LED,1,K*%
%TO.N,GND*%
X152400000Y-113284000D03*
D22*
%TO.P,LED,2,A*%
%TO.N,Net-(LED1-A)*%
X149860000Y-113284000D03*
%TD*%
D23*
%TO.N,Net-(In1-Pin_1)*%
X151130000Y-106330167D02*
X155696233Y-110896400D01*
X155696233Y-110896400D02*
X157632400Y-110896400D01*
X151130000Y-104100000D02*
X151130000Y-106330167D01*
X157632400Y-110896400D02*
X160020000Y-113284000D01*
%TO.N,Net-(Q2-B)*%
X154432000Y-98552000D02*
X153884000Y-99100000D01*
X153884000Y-99100000D02*
X151130000Y-99100000D01*
X173736000Y-101092000D02*
X171196000Y-98552000D01*
X171196000Y-98552000D02*
X154432000Y-98552000D01*
%TO.N,Net-(D1-K)*%
X164185600Y-109016800D02*
X163195000Y-110007400D01*
X163195000Y-110007400D02*
X163195000Y-113284000D01*
X164185600Y-103022400D02*
X164185600Y-109016800D01*
X166116000Y-101092000D02*
X164185600Y-103022400D01*
%TD*%
%TA.AperFunction,Conductor*%
%TO.N,GND*%
G36*
X173992695Y-90399335D02*
G01*
X174159944Y-90413968D01*
X174181225Y-90417720D01*
X174226305Y-90429799D01*
X174281893Y-90461893D01*
X174968105Y-91148105D01*
X175000199Y-91203693D01*
X175012278Y-91248774D01*
X175016031Y-91270059D01*
X175030664Y-91437299D01*
X175030900Y-91442706D01*
X175030900Y-95708678D01*
X175011215Y-95775717D01*
X174958411Y-95821472D01*
X174889253Y-95831416D01*
X174825697Y-95802391D01*
X174805325Y-95779801D01*
X174736045Y-95680858D01*
X174575141Y-95519954D01*
X174388734Y-95389432D01*
X174388732Y-95389431D01*
X174182497Y-95293261D01*
X174182488Y-95293258D01*
X173962697Y-95234366D01*
X173962693Y-95234365D01*
X173962692Y-95234365D01*
X173962691Y-95234364D01*
X173962686Y-95234364D01*
X173736002Y-95214532D01*
X173735998Y-95214532D01*
X173509313Y-95234364D01*
X173509302Y-95234366D01*
X173289511Y-95293258D01*
X173289502Y-95293261D01*
X173083267Y-95389431D01*
X173083265Y-95389432D01*
X172896858Y-95519954D01*
X172735954Y-95680858D01*
X172605432Y-95867265D01*
X172605431Y-95867267D01*
X172509261Y-96073502D01*
X172509258Y-96073511D01*
X172450366Y-96293302D01*
X172450364Y-96293313D01*
X172430532Y-96519998D01*
X172430532Y-96520001D01*
X172450364Y-96746686D01*
X172450366Y-96746697D01*
X172509258Y-96966488D01*
X172509261Y-96966497D01*
X172605431Y-97172732D01*
X172605432Y-97172734D01*
X172735954Y-97359141D01*
X172896858Y-97520045D01*
X172896861Y-97520047D01*
X173083266Y-97650568D01*
X173289504Y-97746739D01*
X173509308Y-97805635D01*
X173671230Y-97819801D01*
X173735998Y-97825468D01*
X173736000Y-97825468D01*
X173736002Y-97825468D01*
X173792796Y-97820499D01*
X173962692Y-97805635D01*
X174182496Y-97746739D01*
X174388734Y-97650568D01*
X174575139Y-97520047D01*
X174736047Y-97359139D01*
X174805326Y-97260197D01*
X174859901Y-97216573D01*
X174929399Y-97209379D01*
X174991754Y-97240901D01*
X175027169Y-97301131D01*
X175030900Y-97331321D01*
X175030900Y-100280678D01*
X175011215Y-100347717D01*
X174958411Y-100393472D01*
X174889253Y-100403416D01*
X174825697Y-100374391D01*
X174805325Y-100351801D01*
X174736045Y-100252858D01*
X174575141Y-100091954D01*
X174388734Y-99961432D01*
X174388732Y-99961431D01*
X174182497Y-99865261D01*
X174182488Y-99865258D01*
X173962697Y-99806366D01*
X173962693Y-99806365D01*
X173962692Y-99806365D01*
X173962691Y-99806364D01*
X173962686Y-99806364D01*
X173736002Y-99786532D01*
X173735999Y-99786532D01*
X173509313Y-99806364D01*
X173509296Y-99806367D01*
X173440949Y-99824680D01*
X173371099Y-99823016D01*
X173321177Y-99792586D01*
X171696803Y-98168212D01*
X171686980Y-98155950D01*
X171686759Y-98156134D01*
X171681786Y-98150122D01*
X171632066Y-98103432D01*
X171630666Y-98102075D01*
X171610476Y-98081884D01*
X171604986Y-98077625D01*
X171600561Y-98073847D01*
X171566582Y-98041938D01*
X171566580Y-98041936D01*
X171566577Y-98041935D01*
X171549029Y-98032288D01*
X171532763Y-98021604D01*
X171516933Y-98009325D01*
X171474168Y-97990818D01*
X171468922Y-97988248D01*
X171428093Y-97965803D01*
X171428092Y-97965802D01*
X171408693Y-97960822D01*
X171390281Y-97954518D01*
X171371898Y-97946562D01*
X171371892Y-97946560D01*
X171325874Y-97939272D01*
X171320152Y-97938087D01*
X171275021Y-97926500D01*
X171275019Y-97926500D01*
X171254984Y-97926500D01*
X171235586Y-97924973D01*
X171227333Y-97923666D01*
X171215805Y-97921840D01*
X171215804Y-97921840D01*
X171169416Y-97926225D01*
X171163578Y-97926500D01*
X167313543Y-97926500D01*
X167246504Y-97906815D01*
X167200749Y-97854011D01*
X167190805Y-97784853D01*
X167219830Y-97721297D01*
X167239232Y-97703234D01*
X167256844Y-97690048D01*
X167273546Y-97677546D01*
X167359796Y-97562331D01*
X167410091Y-97427483D01*
X167416500Y-97367873D01*
X167416499Y-95672128D01*
X167410091Y-95612517D01*
X167375567Y-95519954D01*
X167359797Y-95477671D01*
X167359793Y-95477664D01*
X167273547Y-95362455D01*
X167273544Y-95362452D01*
X167158335Y-95276206D01*
X167158328Y-95276202D01*
X167023482Y-95225908D01*
X167023483Y-95225908D01*
X166963883Y-95219501D01*
X166963881Y-95219500D01*
X166963873Y-95219500D01*
X166963864Y-95219500D01*
X165268129Y-95219500D01*
X165268123Y-95219501D01*
X165208516Y-95225908D01*
X165073671Y-95276202D01*
X165073664Y-95276206D01*
X164958455Y-95362452D01*
X164958452Y-95362455D01*
X164872206Y-95477664D01*
X164872202Y-95477671D01*
X164821908Y-95612517D01*
X164818538Y-95643866D01*
X164815501Y-95672123D01*
X164815500Y-95672135D01*
X164815500Y-97367870D01*
X164815501Y-97367876D01*
X164821908Y-97427483D01*
X164872202Y-97562328D01*
X164872206Y-97562335D01*
X164958452Y-97677544D01*
X164958455Y-97677547D01*
X164992768Y-97703234D01*
X165034639Y-97759168D01*
X165039623Y-97828859D01*
X165006137Y-97890182D01*
X164944814Y-97923666D01*
X164918457Y-97926500D01*
X163918309Y-97926500D01*
X163851270Y-97906815D01*
X163830628Y-97890181D01*
X163112401Y-97171953D01*
X163193148Y-97159165D01*
X163306045Y-97101641D01*
X163395641Y-97012045D01*
X163453165Y-96899148D01*
X163465953Y-96818400D01*
X164147025Y-97499472D01*
X164198136Y-97426478D01*
X164294264Y-97220331D01*
X164294269Y-97220317D01*
X164353139Y-97000610D01*
X164353141Y-97000599D01*
X164372966Y-96774002D01*
X164372966Y-96773997D01*
X164353141Y-96547400D01*
X164353139Y-96547389D01*
X164294269Y-96327682D01*
X164294265Y-96327673D01*
X164198133Y-96121516D01*
X164198131Y-96121512D01*
X164147026Y-96048526D01*
X164147025Y-96048526D01*
X163465953Y-96729598D01*
X163453165Y-96648852D01*
X163395641Y-96535955D01*
X163306045Y-96446359D01*
X163193148Y-96388835D01*
X163112400Y-96376046D01*
X163793472Y-95694974D01*
X163793471Y-95694973D01*
X163720483Y-95643866D01*
X163720481Y-95643865D01*
X163514326Y-95547734D01*
X163514317Y-95547730D01*
X163294610Y-95488860D01*
X163294599Y-95488858D01*
X163068002Y-95469034D01*
X163067998Y-95469034D01*
X162841400Y-95488858D01*
X162841389Y-95488860D01*
X162621682Y-95547730D01*
X162621673Y-95547734D01*
X162415513Y-95643868D01*
X162342527Y-95694972D01*
X162342526Y-95694973D01*
X163023600Y-96376046D01*
X162942852Y-96388835D01*
X162829955Y-96446359D01*
X162740359Y-96535955D01*
X162682835Y-96648852D01*
X162670046Y-96729599D01*
X161988973Y-96048526D01*
X161988972Y-96048527D01*
X161937868Y-96121513D01*
X161841734Y-96327673D01*
X161841730Y-96327682D01*
X161782860Y-96547389D01*
X161782858Y-96547400D01*
X161763034Y-96773997D01*
X161763034Y-96774002D01*
X161782858Y-97000599D01*
X161782860Y-97000610D01*
X161841730Y-97220317D01*
X161841734Y-97220326D01*
X161937865Y-97426481D01*
X161937866Y-97426483D01*
X161988973Y-97499471D01*
X161988974Y-97499472D01*
X162670046Y-96818399D01*
X162682835Y-96899148D01*
X162740359Y-97012045D01*
X162829955Y-97101641D01*
X162942852Y-97159165D01*
X163023599Y-97171953D01*
X162305371Y-97890181D01*
X162244048Y-97923666D01*
X162217690Y-97926500D01*
X156434049Y-97926500D01*
X156367010Y-97906815D01*
X156321255Y-97854011D01*
X156311311Y-97784853D01*
X156340336Y-97721297D01*
X156346368Y-97714819D01*
X156448045Y-97613141D01*
X156448044Y-97613141D01*
X156448047Y-97613139D01*
X156578568Y-97426734D01*
X156674739Y-97220496D01*
X156733635Y-97000692D01*
X156753468Y-96774000D01*
X156733635Y-96547308D01*
X156674739Y-96327504D01*
X156578568Y-96121266D01*
X156448047Y-95934861D01*
X156448045Y-95934858D01*
X156287141Y-95773954D01*
X156100734Y-95643432D01*
X156100732Y-95643431D01*
X155894497Y-95547261D01*
X155894488Y-95547258D01*
X155674697Y-95488366D01*
X155674693Y-95488365D01*
X155674692Y-95488365D01*
X155674691Y-95488364D01*
X155674686Y-95488364D01*
X155448002Y-95468532D01*
X155447998Y-95468532D01*
X155221313Y-95488364D01*
X155221302Y-95488366D01*
X155001511Y-95547258D01*
X155001502Y-95547261D01*
X154795267Y-95643431D01*
X154795265Y-95643432D01*
X154608858Y-95773954D01*
X154447954Y-95934858D01*
X154317432Y-96121265D01*
X154317431Y-96121267D01*
X154221261Y-96327502D01*
X154221258Y-96327511D01*
X154162366Y-96547302D01*
X154162364Y-96547313D01*
X154142532Y-96773998D01*
X154142532Y-96774001D01*
X154162364Y-97000686D01*
X154162366Y-97000697D01*
X154221258Y-97220488D01*
X154221261Y-97220497D01*
X154317431Y-97426732D01*
X154317432Y-97426734D01*
X154447954Y-97613141D01*
X154548360Y-97713547D01*
X154581845Y-97774870D01*
X154576861Y-97844562D01*
X154534989Y-97900495D01*
X154469525Y-97924912D01*
X154464577Y-97925167D01*
X154423156Y-97926469D01*
X154421207Y-97926500D01*
X154392649Y-97926500D01*
X154385766Y-97927369D01*
X154379949Y-97927826D01*
X154333373Y-97929290D01*
X154314129Y-97934881D01*
X154295079Y-97938825D01*
X154275211Y-97941334D01*
X154231884Y-97958488D01*
X154226358Y-97960379D01*
X154181614Y-97973379D01*
X154181610Y-97973381D01*
X154164366Y-97983579D01*
X154146905Y-97992133D01*
X154128274Y-97999510D01*
X154128262Y-97999517D01*
X154090570Y-98026902D01*
X154085687Y-98030109D01*
X154045580Y-98053829D01*
X154031414Y-98067995D01*
X154016624Y-98080627D01*
X154000414Y-98092404D01*
X154000411Y-98092407D01*
X153970710Y-98128309D01*
X153966777Y-98132631D01*
X153661228Y-98438181D01*
X153599905Y-98471666D01*
X153573547Y-98474500D01*
X152344188Y-98474500D01*
X152277149Y-98454815D01*
X152242613Y-98421623D01*
X152130045Y-98260858D01*
X151969141Y-98099954D01*
X151782734Y-97969432D01*
X151782732Y-97969431D01*
X151576497Y-97873261D01*
X151576488Y-97873258D01*
X151356697Y-97814366D01*
X151356693Y-97814365D01*
X151356692Y-97814365D01*
X151356691Y-97814364D01*
X151356686Y-97814364D01*
X151130002Y-97794532D01*
X151129998Y-97794532D01*
X150903313Y-97814364D01*
X150903302Y-97814366D01*
X150683511Y-97873258D01*
X150683502Y-97873261D01*
X150477267Y-97969431D01*
X150477265Y-97969432D01*
X150290858Y-98099954D01*
X150129954Y-98260858D01*
X149999432Y-98447265D01*
X149999431Y-98447267D01*
X149903261Y-98653502D01*
X149903258Y-98653511D01*
X149844366Y-98873302D01*
X149844364Y-98873313D01*
X149824532Y-99099998D01*
X149824532Y-99100001D01*
X149844364Y-99326686D01*
X149844366Y-99326697D01*
X149903258Y-99546488D01*
X149903261Y-99546497D01*
X149999431Y-99752732D01*
X149999432Y-99752734D01*
X150129954Y-99939141D01*
X150290858Y-100100045D01*
X150290861Y-100100047D01*
X150477266Y-100230568D01*
X150683504Y-100326739D01*
X150683509Y-100326740D01*
X150683511Y-100326741D01*
X150695674Y-100330000D01*
X150903308Y-100385635D01*
X151065230Y-100399801D01*
X151129998Y-100405468D01*
X151130000Y-100405468D01*
X151130002Y-100405468D01*
X151186672Y-100400509D01*
X151356692Y-100385635D01*
X151576496Y-100326739D01*
X151782734Y-100230568D01*
X151969139Y-100100047D01*
X152130047Y-99939139D01*
X152242612Y-99778377D01*
X152297189Y-99734752D01*
X152344188Y-99725500D01*
X153801257Y-99725500D01*
X153816877Y-99727224D01*
X153816904Y-99726939D01*
X153824666Y-99727673D01*
X153824666Y-99727672D01*
X153824667Y-99727673D01*
X153827999Y-99727568D01*
X153892847Y-99725531D01*
X153894794Y-99725500D01*
X153923347Y-99725500D01*
X153923350Y-99725500D01*
X153930228Y-99724630D01*
X153936041Y-99724172D01*
X153982627Y-99722709D01*
X154001869Y-99717117D01*
X154020912Y-99713174D01*
X154040792Y-99710664D01*
X154071254Y-99698602D01*
X154140830Y-99692226D01*
X154202811Y-99724477D01*
X154237516Y-99785118D01*
X154233926Y-99854896D01*
X154229284Y-99866297D01*
X154221263Y-99883497D01*
X154221258Y-99883511D01*
X154162366Y-100103302D01*
X154162364Y-100103313D01*
X154142532Y-100329998D01*
X154142532Y-100330001D01*
X154162364Y-100556686D01*
X154162366Y-100556697D01*
X154221258Y-100776488D01*
X154221261Y-100776497D01*
X154317431Y-100982732D01*
X154317432Y-100982734D01*
X154447954Y-101169141D01*
X154608858Y-101330045D01*
X154608861Y-101330047D01*
X154795266Y-101460568D01*
X155001504Y-101556739D01*
X155221308Y-101615635D01*
X155383230Y-101629801D01*
X155447998Y-101635468D01*
X155448000Y-101635468D01*
X155448002Y-101635468D01*
X155504672Y-101630509D01*
X155674692Y-101615635D01*
X155894496Y-101556739D01*
X156100734Y-101460568D01*
X156287139Y-101330047D01*
X156448047Y-101169139D01*
X156578568Y-100982734D01*
X156674739Y-100776496D01*
X156733635Y-100556692D01*
X156753468Y-100330000D01*
X156733635Y-100103308D01*
X156674739Y-99883504D01*
X156578568Y-99677266D01*
X156448047Y-99490861D01*
X156448045Y-99490858D01*
X156346368Y-99389181D01*
X156312883Y-99327858D01*
X156317867Y-99258166D01*
X156359739Y-99202233D01*
X156425203Y-99177816D01*
X156434049Y-99177500D01*
X162081951Y-99177500D01*
X162148990Y-99197185D01*
X162194745Y-99249989D01*
X162204689Y-99319147D01*
X162175664Y-99382703D01*
X162169632Y-99389181D01*
X162067954Y-99490858D01*
X161937432Y-99677265D01*
X161937431Y-99677267D01*
X161841261Y-99883502D01*
X161841258Y-99883511D01*
X161782366Y-100103302D01*
X161782364Y-100103313D01*
X161762532Y-100329998D01*
X161762532Y-100330001D01*
X161782364Y-100556686D01*
X161782366Y-100556697D01*
X161841258Y-100776488D01*
X161841261Y-100776497D01*
X161937431Y-100982732D01*
X161937432Y-100982734D01*
X162067954Y-101169141D01*
X162228858Y-101330045D01*
X162228861Y-101330047D01*
X162415266Y-101460568D01*
X162621504Y-101556739D01*
X162841308Y-101615635D01*
X163003230Y-101629801D01*
X163067998Y-101635468D01*
X163068000Y-101635468D01*
X163068002Y-101635468D01*
X163124673Y-101630509D01*
X163294692Y-101615635D01*
X163514496Y-101556739D01*
X163720734Y-101460568D01*
X163907139Y-101330047D01*
X164068047Y-101169139D01*
X164198568Y-100982734D01*
X164294739Y-100776496D01*
X164353635Y-100556692D01*
X164373468Y-100330000D01*
X164353635Y-100103308D01*
X164294739Y-99883504D01*
X164198568Y-99677266D01*
X164068047Y-99490861D01*
X164068045Y-99490858D01*
X163966368Y-99389181D01*
X163932883Y-99327858D01*
X163937867Y-99258166D01*
X163979739Y-99202233D01*
X164045203Y-99177816D01*
X164054049Y-99177500D01*
X170885548Y-99177500D01*
X170952587Y-99197185D01*
X170973229Y-99213819D01*
X172436586Y-100677177D01*
X172470071Y-100738500D01*
X172468680Y-100796949D01*
X172450367Y-100865296D01*
X172450364Y-100865313D01*
X172430532Y-101091999D01*
X172430532Y-101092001D01*
X172450364Y-101318686D01*
X172450366Y-101318697D01*
X172509258Y-101538488D01*
X172509261Y-101538497D01*
X172605431Y-101744732D01*
X172605432Y-101744734D01*
X172735954Y-101931141D01*
X172896858Y-102092045D01*
X172896861Y-102092047D01*
X173083266Y-102222568D01*
X173289504Y-102318739D01*
X173509308Y-102377635D01*
X173666780Y-102391412D01*
X173735998Y-102397468D01*
X173736000Y-102397468D01*
X173736002Y-102397468D01*
X173805220Y-102391412D01*
X173962692Y-102377635D01*
X174182496Y-102318739D01*
X174388734Y-102222568D01*
X174575139Y-102092047D01*
X174736047Y-101931139D01*
X174805326Y-101832197D01*
X174859901Y-101788573D01*
X174929399Y-101781379D01*
X174991754Y-101812901D01*
X175027169Y-101873131D01*
X175030900Y-101903321D01*
X175030900Y-103582678D01*
X175011215Y-103649717D01*
X174958411Y-103695472D01*
X174889253Y-103705416D01*
X174825697Y-103676391D01*
X174805325Y-103653801D01*
X174736045Y-103554858D01*
X174575141Y-103393954D01*
X174388734Y-103263432D01*
X174388732Y-103263431D01*
X174182497Y-103167261D01*
X174182488Y-103167258D01*
X173962697Y-103108366D01*
X173962693Y-103108365D01*
X173962692Y-103108365D01*
X173962691Y-103108364D01*
X173962686Y-103108364D01*
X173736002Y-103088532D01*
X173735998Y-103088532D01*
X173509313Y-103108364D01*
X173509302Y-103108366D01*
X173289511Y-103167258D01*
X173289502Y-103167261D01*
X173083267Y-103263431D01*
X173083265Y-103263432D01*
X172896858Y-103393954D01*
X172735954Y-103554858D01*
X172605432Y-103741265D01*
X172605431Y-103741267D01*
X172509261Y-103947502D01*
X172509258Y-103947511D01*
X172450366Y-104167302D01*
X172450364Y-104167313D01*
X172430532Y-104393998D01*
X172430532Y-104394001D01*
X172450364Y-104620686D01*
X172450366Y-104620697D01*
X172509258Y-104840488D01*
X172509261Y-104840497D01*
X172605431Y-105046732D01*
X172605432Y-105046734D01*
X172735954Y-105233141D01*
X172896858Y-105394045D01*
X172896861Y-105394047D01*
X173083266Y-105524568D01*
X173289504Y-105620739D01*
X173509308Y-105679635D01*
X173671230Y-105693801D01*
X173735998Y-105699468D01*
X173736000Y-105699468D01*
X173736002Y-105699468D01*
X173792672Y-105694509D01*
X173962692Y-105679635D01*
X174182496Y-105620739D01*
X174388734Y-105524568D01*
X174575139Y-105394047D01*
X174736047Y-105233139D01*
X174805326Y-105134197D01*
X174859901Y-105090573D01*
X174929399Y-105083379D01*
X174991754Y-105114901D01*
X175027169Y-105175131D01*
X175030900Y-105205321D01*
X175030900Y-113662292D01*
X175030664Y-113667699D01*
X175021900Y-113767862D01*
X174996447Y-113832931D01*
X174967155Y-113860228D01*
X174819454Y-113958695D01*
X174752754Y-113979503D01*
X174685394Y-113960948D01*
X174638758Y-113908920D01*
X174627654Y-113839939D01*
X174637116Y-113805709D01*
X174651587Y-113772717D01*
X174712612Y-113531738D01*
X174712614Y-113531729D01*
X174733141Y-113284005D01*
X174733141Y-113283994D01*
X174712614Y-113036270D01*
X174712612Y-113036261D01*
X174651587Y-112795282D01*
X174551731Y-112567630D01*
X174451434Y-112414116D01*
X173711076Y-113154475D01*
X173687493Y-113074156D01*
X173609761Y-112953202D01*
X173501100Y-112859048D01*
X173370315Y-112799320D01*
X173360531Y-112797913D01*
X174098056Y-112060389D01*
X174051229Y-112023943D01*
X173832614Y-111905635D01*
X173832603Y-111905630D01*
X173597493Y-111824916D01*
X173352293Y-111784000D01*
X173103707Y-111784000D01*
X172858506Y-111824916D01*
X172623396Y-111905630D01*
X172623390Y-111905632D01*
X172404761Y-112023949D01*
X172357942Y-112060388D01*
X172357941Y-112060389D01*
X173095466Y-112797913D01*
X173085685Y-112799320D01*
X172954900Y-112859048D01*
X172846239Y-112953202D01*
X172768507Y-113074156D01*
X172744923Y-113154475D01*
X172004564Y-112414116D01*
X171904267Y-112567632D01*
X171804412Y-112795282D01*
X171743387Y-113036261D01*
X171743385Y-113036270D01*
X171722859Y-113283994D01*
X171722859Y-113284005D01*
X171743385Y-113531729D01*
X171743387Y-113531738D01*
X171804412Y-113772717D01*
X171904266Y-114000364D01*
X172004564Y-114153882D01*
X172744923Y-113413523D01*
X172768507Y-113493844D01*
X172846239Y-113614798D01*
X172954900Y-113708952D01*
X173085685Y-113768680D01*
X173095466Y-113770086D01*
X172357942Y-114507609D01*
X172359199Y-114527861D01*
X172368481Y-114540758D01*
X172372154Y-114610531D01*
X172337523Y-114671214D01*
X172275581Y-114703540D01*
X172251505Y-114705900D01*
X170522308Y-114705900D01*
X170455269Y-114686215D01*
X170409514Y-114633411D01*
X170399570Y-114564253D01*
X170428595Y-114500697D01*
X170446142Y-114484049D01*
X170564744Y-114391738D01*
X170733164Y-114208785D01*
X170869173Y-114000607D01*
X170969063Y-113772881D01*
X171030108Y-113531821D01*
X171050643Y-113284000D01*
X171030108Y-113036179D01*
X170970127Y-112799320D01*
X170969063Y-112795118D01*
X170869173Y-112567393D01*
X170733166Y-112359217D01*
X170700258Y-112323470D01*
X170564744Y-112176262D01*
X170368509Y-112023526D01*
X170368507Y-112023525D01*
X170368506Y-112023524D01*
X170149811Y-111905172D01*
X170149802Y-111905169D01*
X169914616Y-111824429D01*
X169669335Y-111783500D01*
X169420665Y-111783500D01*
X169175383Y-111824429D01*
X168940197Y-111905169D01*
X168940188Y-111905172D01*
X168721493Y-112023524D01*
X168525257Y-112176261D01*
X168356833Y-112359217D01*
X168220826Y-112567393D01*
X168120937Y-112795117D01*
X168077706Y-112965833D01*
X168042166Y-113025988D01*
X167979746Y-113057380D01*
X167910262Y-113050042D01*
X167855777Y-113006303D01*
X167837294Y-112965833D01*
X167810252Y-112859048D01*
X167794063Y-112795119D01*
X167694173Y-112567393D01*
X167694173Y-112567392D01*
X167558166Y-112359217D01*
X167525258Y-112323470D01*
X167389744Y-112176262D01*
X167193509Y-112023526D01*
X167193507Y-112023525D01*
X167193506Y-112023524D01*
X166974811Y-111905172D01*
X166974802Y-111905169D01*
X166739616Y-111824429D01*
X166494335Y-111783500D01*
X166245665Y-111783500D01*
X166000383Y-111824429D01*
X165765197Y-111905169D01*
X165765188Y-111905172D01*
X165546493Y-112023524D01*
X165350257Y-112176261D01*
X165181833Y-112359217D01*
X165045826Y-112567393D01*
X164945937Y-112795117D01*
X164902706Y-112965833D01*
X164867166Y-113025988D01*
X164804746Y-113057380D01*
X164735262Y-113050042D01*
X164680777Y-113006303D01*
X164662294Y-112965833D01*
X164635252Y-112859048D01*
X164619063Y-112795119D01*
X164519173Y-112567393D01*
X164519173Y-112567392D01*
X164383166Y-112359217D01*
X164350258Y-112323470D01*
X164214744Y-112176262D01*
X164018509Y-112023526D01*
X164018508Y-112023525D01*
X164018505Y-112023523D01*
X164018503Y-112023522D01*
X163885481Y-111951533D01*
X163835891Y-111902313D01*
X163820500Y-111842479D01*
X163820500Y-110317852D01*
X163840185Y-110250813D01*
X163856819Y-110230171D01*
X164209463Y-109877527D01*
X164569388Y-109517601D01*
X164581642Y-109507786D01*
X164581459Y-109507564D01*
X164587468Y-109502591D01*
X164587477Y-109502586D01*
X164634207Y-109452822D01*
X164635446Y-109451543D01*
X164655720Y-109431271D01*
X164659979Y-109425778D01*
X164663752Y-109421361D01*
X164695662Y-109387382D01*
X164705315Y-109369820D01*
X164715989Y-109353570D01*
X164728273Y-109337736D01*
X164746780Y-109294967D01*
X164749349Y-109289724D01*
X164751553Y-109285713D01*
X164771797Y-109248892D01*
X164776777Y-109229491D01*
X164783078Y-109211088D01*
X164791038Y-109192696D01*
X164798330Y-109146649D01*
X164799511Y-109140952D01*
X164811100Y-109095819D01*
X164811100Y-109075774D01*
X164812625Y-109056391D01*
X164815760Y-109036604D01*
X164811375Y-108990215D01*
X164811100Y-108984377D01*
X164811100Y-108631633D01*
X164830785Y-108564594D01*
X164883589Y-108518839D01*
X164952747Y-108508895D01*
X165016303Y-108537920D01*
X165050528Y-108586331D01*
X165085963Y-108676618D01*
X165211111Y-108893382D01*
X165249600Y-108941645D01*
X165992252Y-108198993D01*
X166001988Y-108228956D01*
X166089986Y-108367619D01*
X166209703Y-108480040D01*
X166344310Y-108554041D01*
X165603202Y-109295148D01*
X165757451Y-109400313D01*
X165757464Y-109400320D01*
X165982967Y-109508916D01*
X165982965Y-109508916D01*
X166222146Y-109582694D01*
X166222152Y-109582696D01*
X166469643Y-109619999D01*
X166469652Y-109620000D01*
X166719948Y-109620000D01*
X166719956Y-109619999D01*
X166967447Y-109582696D01*
X166967453Y-109582694D01*
X167206633Y-109508916D01*
X167432134Y-109400322D01*
X167432135Y-109400321D01*
X167586396Y-109295148D01*
X166842334Y-108551086D01*
X166910429Y-108524126D01*
X167043292Y-108427595D01*
X167147975Y-108301055D01*
X167196431Y-108198079D01*
X167939998Y-108941646D01*
X167939999Y-108941645D01*
X167978481Y-108893392D01*
X167978488Y-108893381D01*
X168103636Y-108676618D01*
X168195079Y-108443626D01*
X168195085Y-108443607D01*
X168250778Y-108199599D01*
X168250778Y-108199597D01*
X168269483Y-107950004D01*
X168269483Y-107949995D01*
X168250778Y-107700402D01*
X168250778Y-107700400D01*
X168195085Y-107456392D01*
X168195079Y-107456373D01*
X168103636Y-107223381D01*
X167978485Y-107006613D01*
X167939999Y-106958352D01*
X167197346Y-107701004D01*
X167187612Y-107671044D01*
X167099614Y-107532381D01*
X166979897Y-107419960D01*
X166845289Y-107345958D01*
X167586396Y-106604850D01*
X167432142Y-106499682D01*
X167432134Y-106499677D01*
X167206632Y-106391083D01*
X167206634Y-106391083D01*
X166967453Y-106317305D01*
X166967447Y-106317303D01*
X166719956Y-106280000D01*
X166469643Y-106280000D01*
X166222152Y-106317303D01*
X166222146Y-106317305D01*
X165982966Y-106391083D01*
X165757461Y-106499680D01*
X165757460Y-106499681D01*
X165603202Y-106604849D01*
X166347266Y-107348913D01*
X166279171Y-107375874D01*
X166146308Y-107472405D01*
X166041625Y-107598945D01*
X165993168Y-107701921D01*
X165249600Y-106958353D01*
X165211108Y-107006621D01*
X165085964Y-107223379D01*
X165050528Y-107313669D01*
X165007712Y-107368882D01*
X164941842Y-107392183D01*
X164873831Y-107376172D01*
X164825273Y-107325934D01*
X164811100Y-107268366D01*
X164811100Y-105190169D01*
X164830785Y-105123130D01*
X164883589Y-105077375D01*
X164952747Y-105067431D01*
X165016303Y-105096456D01*
X165036675Y-105119046D01*
X165036973Y-105119471D01*
X165036974Y-105119472D01*
X165718046Y-104438399D01*
X165730835Y-104519148D01*
X165788359Y-104632045D01*
X165877955Y-104721641D01*
X165990852Y-104779165D01*
X166071599Y-104791953D01*
X165390526Y-105473025D01*
X165390526Y-105473026D01*
X165463512Y-105524131D01*
X165463516Y-105524133D01*
X165669673Y-105620265D01*
X165669682Y-105620269D01*
X165889389Y-105679139D01*
X165889400Y-105679141D01*
X166115998Y-105698966D01*
X166116002Y-105698966D01*
X166342599Y-105679141D01*
X166342610Y-105679139D01*
X166562317Y-105620269D01*
X166562331Y-105620264D01*
X166768478Y-105524136D01*
X166841472Y-105473025D01*
X166160401Y-104791953D01*
X166241148Y-104779165D01*
X166354045Y-104721641D01*
X166443641Y-104632045D01*
X166501165Y-104519148D01*
X166513953Y-104438400D01*
X167195025Y-105119472D01*
X167246136Y-105046478D01*
X167342264Y-104840331D01*
X167342269Y-104840317D01*
X167401139Y-104620610D01*
X167401141Y-104620599D01*
X167420966Y-104394002D01*
X167420966Y-104393997D01*
X167401141Y-104167400D01*
X167401139Y-104167389D01*
X167342269Y-103947682D01*
X167342265Y-103947673D01*
X167246133Y-103741516D01*
X167246131Y-103741512D01*
X167195026Y-103668526D01*
X167195025Y-103668526D01*
X166513953Y-104349598D01*
X166501165Y-104268852D01*
X166443641Y-104155955D01*
X166354045Y-104066359D01*
X166241148Y-104008835D01*
X166160400Y-103996046D01*
X166841472Y-103314974D01*
X166841471Y-103314973D01*
X166768483Y-103263866D01*
X166768481Y-103263865D01*
X166562326Y-103167734D01*
X166562317Y-103167730D01*
X166342610Y-103108860D01*
X166342599Y-103108858D01*
X166116002Y-103089034D01*
X166115998Y-103089034D01*
X165889400Y-103108858D01*
X165889389Y-103108860D01*
X165669682Y-103167730D01*
X165669673Y-103167734D01*
X165463513Y-103263868D01*
X165390527Y-103314972D01*
X165390526Y-103314973D01*
X166071600Y-103996046D01*
X165990852Y-104008835D01*
X165877955Y-104066359D01*
X165788359Y-104155955D01*
X165730835Y-104268852D01*
X165718046Y-104349599D01*
X165036973Y-103668526D01*
X165036973Y-103668527D01*
X165036675Y-103668953D01*
X164982098Y-103712577D01*
X164912599Y-103719770D01*
X164850245Y-103688248D01*
X164814831Y-103628018D01*
X164811100Y-103597829D01*
X164811100Y-103332852D01*
X164830785Y-103265813D01*
X164847419Y-103245171D01*
X165273431Y-102819159D01*
X165701179Y-102391410D01*
X165762500Y-102357927D01*
X165820947Y-102359317D01*
X165889308Y-102377635D01*
X166046780Y-102391412D01*
X166115998Y-102397468D01*
X166116000Y-102397468D01*
X166116002Y-102397468D01*
X166185220Y-102391412D01*
X166342692Y-102377635D01*
X166562496Y-102318739D01*
X166768734Y-102222568D01*
X166955139Y-102092047D01*
X167116047Y-101931139D01*
X167246568Y-101744734D01*
X167342739Y-101538496D01*
X167401635Y-101318692D01*
X167421468Y-101092000D01*
X167401635Y-100865308D01*
X167342739Y-100645504D01*
X167246568Y-100439266D01*
X167148839Y-100299693D01*
X167116045Y-100252858D01*
X166955141Y-100091954D01*
X166768734Y-99961432D01*
X166768732Y-99961431D01*
X166562497Y-99865261D01*
X166562488Y-99865258D01*
X166342697Y-99806366D01*
X166342693Y-99806365D01*
X166342692Y-99806365D01*
X166342691Y-99806364D01*
X166342686Y-99806364D01*
X166116002Y-99786532D01*
X166115998Y-99786532D01*
X165889313Y-99806364D01*
X165889302Y-99806366D01*
X165669511Y-99865258D01*
X165669502Y-99865261D01*
X165463267Y-99961431D01*
X165463265Y-99961432D01*
X165276858Y-100091954D01*
X165115954Y-100252858D01*
X164985432Y-100439265D01*
X164985431Y-100439267D01*
X164889261Y-100645502D01*
X164889258Y-100645511D01*
X164830366Y-100865302D01*
X164830364Y-100865313D01*
X164810532Y-101091998D01*
X164810532Y-101092000D01*
X164830364Y-101318686D01*
X164830365Y-101318691D01*
X164830366Y-101318697D01*
X164848680Y-101387048D01*
X164847017Y-101456897D01*
X164816586Y-101506821D01*
X163801808Y-102521599D01*
X163789551Y-102531420D01*
X163789734Y-102531641D01*
X163783722Y-102536614D01*
X163737032Y-102586332D01*
X163735679Y-102587729D01*
X163715489Y-102607919D01*
X163715477Y-102607932D01*
X163711221Y-102613417D01*
X163707437Y-102617847D01*
X163675537Y-102651818D01*
X163675536Y-102651820D01*
X163665884Y-102669376D01*
X163655210Y-102685626D01*
X163642929Y-102701461D01*
X163642924Y-102701468D01*
X163624415Y-102744238D01*
X163621845Y-102749484D01*
X163599403Y-102790306D01*
X163594422Y-102809707D01*
X163588121Y-102828110D01*
X163580162Y-102846502D01*
X163580161Y-102846505D01*
X163572871Y-102892527D01*
X163571687Y-102898246D01*
X163560101Y-102943372D01*
X163560099Y-102943384D01*
X163560099Y-102963420D01*
X163558573Y-102982811D01*
X163555440Y-103002594D01*
X163555440Y-103002595D01*
X163559825Y-103048983D01*
X163560100Y-103054821D01*
X163560100Y-108706346D01*
X163540415Y-108773385D01*
X163523781Y-108794027D01*
X162811208Y-109506599D01*
X162798951Y-109516420D01*
X162799134Y-109516641D01*
X162793122Y-109521614D01*
X162746432Y-109571332D01*
X162745079Y-109572729D01*
X162724889Y-109592919D01*
X162724877Y-109592932D01*
X162720621Y-109598417D01*
X162716837Y-109602847D01*
X162684937Y-109636818D01*
X162684936Y-109636820D01*
X162675284Y-109654376D01*
X162664610Y-109670626D01*
X162652329Y-109686461D01*
X162652324Y-109686468D01*
X162633815Y-109729238D01*
X162631245Y-109734484D01*
X162608803Y-109775306D01*
X162603822Y-109794707D01*
X162597521Y-109813110D01*
X162589562Y-109831502D01*
X162589561Y-109831505D01*
X162582271Y-109877527D01*
X162581087Y-109883246D01*
X162569501Y-109928372D01*
X162569500Y-109928382D01*
X162569500Y-109948416D01*
X162567973Y-109967815D01*
X162564840Y-109987594D01*
X162564840Y-109987595D01*
X162569225Y-110033983D01*
X162569500Y-110039821D01*
X162569500Y-111842479D01*
X162549815Y-111909518D01*
X162504519Y-111951533D01*
X162371496Y-112023522D01*
X162371494Y-112023523D01*
X162175257Y-112176261D01*
X162006833Y-112359217D01*
X161870826Y-112567393D01*
X161770937Y-112795117D01*
X161727706Y-112965833D01*
X161692166Y-113025988D01*
X161629746Y-113057380D01*
X161560262Y-113050042D01*
X161505777Y-113006303D01*
X161487294Y-112965833D01*
X161460252Y-112859048D01*
X161444063Y-112795119D01*
X161344173Y-112567393D01*
X161344173Y-112567392D01*
X161208166Y-112359217D01*
X161175258Y-112323470D01*
X161039744Y-112176262D01*
X160843509Y-112023526D01*
X160843507Y-112023525D01*
X160843506Y-112023524D01*
X160624811Y-111905172D01*
X160624802Y-111905169D01*
X160389616Y-111824429D01*
X160144335Y-111783500D01*
X159895665Y-111783500D01*
X159650386Y-111824428D01*
X159570713Y-111851780D01*
X159500914Y-111854929D01*
X159442770Y-111822179D01*
X158133203Y-110512612D01*
X158123380Y-110500350D01*
X158123159Y-110500534D01*
X158118186Y-110494522D01*
X158068466Y-110447832D01*
X158067066Y-110446475D01*
X158046876Y-110426284D01*
X158041386Y-110422025D01*
X158036961Y-110418247D01*
X158002982Y-110386338D01*
X158002980Y-110386336D01*
X158002977Y-110386335D01*
X157985429Y-110376688D01*
X157969163Y-110366004D01*
X157953333Y-110353725D01*
X157910568Y-110335218D01*
X157905322Y-110332648D01*
X157864493Y-110310203D01*
X157864492Y-110310202D01*
X157845093Y-110305222D01*
X157826681Y-110298918D01*
X157808298Y-110290962D01*
X157808292Y-110290960D01*
X157762274Y-110283672D01*
X157756552Y-110282487D01*
X157711421Y-110270900D01*
X157711419Y-110270900D01*
X157691384Y-110270900D01*
X157671986Y-110269373D01*
X157664562Y-110268197D01*
X157652205Y-110266240D01*
X157652204Y-110266240D01*
X157605816Y-110270625D01*
X157599978Y-110270900D01*
X156006685Y-110270900D01*
X155939646Y-110251215D01*
X155919004Y-110234581D01*
X153634428Y-107950004D01*
X154919616Y-107950004D01*
X154938324Y-108199663D01*
X154938325Y-108199668D01*
X154994036Y-108443755D01*
X154994038Y-108443764D01*
X154994040Y-108443769D01*
X155085511Y-108676835D01*
X155210698Y-108893665D01*
X155324688Y-109036604D01*
X155366806Y-109089418D01*
X155478114Y-109192696D01*
X155550340Y-109259712D01*
X155757208Y-109400752D01*
X155757213Y-109400754D01*
X155757214Y-109400755D01*
X155757215Y-109400756D01*
X155862544Y-109451479D01*
X155982783Y-109509383D01*
X155982784Y-109509383D01*
X155982787Y-109509385D01*
X156222036Y-109583184D01*
X156222037Y-109583184D01*
X156222040Y-109583185D01*
X156469605Y-109620499D01*
X156469610Y-109620499D01*
X156469613Y-109620500D01*
X156469614Y-109620500D01*
X156719986Y-109620500D01*
X156719987Y-109620500D01*
X156719994Y-109620499D01*
X156967559Y-109583185D01*
X156967560Y-109583184D01*
X156967564Y-109583184D01*
X157206813Y-109509385D01*
X157432392Y-109400752D01*
X157639260Y-109259712D01*
X157822797Y-109089414D01*
X157978902Y-108893665D01*
X158104089Y-108676835D01*
X158195560Y-108443769D01*
X158251274Y-108199673D01*
X158251280Y-108199597D01*
X158269984Y-107950004D01*
X159919616Y-107950004D01*
X159938324Y-108199663D01*
X159938325Y-108199668D01*
X159994036Y-108443755D01*
X159994038Y-108443764D01*
X159994040Y-108443769D01*
X160085511Y-108676835D01*
X160210698Y-108893665D01*
X160324688Y-109036604D01*
X160366806Y-109089418D01*
X160478114Y-109192696D01*
X160550340Y-109259712D01*
X160757208Y-109400752D01*
X160757213Y-109400754D01*
X160757214Y-109400755D01*
X160757215Y-109400756D01*
X160862544Y-109451479D01*
X160982783Y-109509383D01*
X160982784Y-109509383D01*
X160982787Y-109509385D01*
X161222036Y-109583184D01*
X161222037Y-109583184D01*
X161222040Y-109583185D01*
X161469605Y-109620499D01*
X161469610Y-109620499D01*
X161469613Y-109620500D01*
X161469614Y-109620500D01*
X161719986Y-109620500D01*
X161719987Y-109620500D01*
X161719994Y-109620499D01*
X161967559Y-109583185D01*
X161967560Y-109583184D01*
X161967564Y-109583184D01*
X162206813Y-109509385D01*
X162432392Y-109400752D01*
X162639260Y-109259712D01*
X162822797Y-109089414D01*
X162978902Y-108893665D01*
X163104089Y-108676835D01*
X163195560Y-108443769D01*
X163251274Y-108199673D01*
X163251280Y-108199597D01*
X163269984Y-107950004D01*
X163269984Y-107949995D01*
X163251275Y-107700336D01*
X163251274Y-107700331D01*
X163251274Y-107700327D01*
X163195560Y-107456231D01*
X163104089Y-107223165D01*
X162978902Y-107006335D01*
X162822797Y-106810586D01*
X162822796Y-106810585D01*
X162822793Y-106810581D01*
X162639260Y-106640288D01*
X162602565Y-106615270D01*
X162432392Y-106499248D01*
X162432388Y-106499246D01*
X162432385Y-106499244D01*
X162432384Y-106499243D01*
X162206815Y-106390616D01*
X162206817Y-106390616D01*
X161967565Y-106316816D01*
X161967559Y-106316814D01*
X161719994Y-106279500D01*
X161719987Y-106279500D01*
X161469613Y-106279500D01*
X161469605Y-106279500D01*
X161222040Y-106316814D01*
X161222034Y-106316816D01*
X160982783Y-106390616D01*
X160757215Y-106499243D01*
X160757214Y-106499244D01*
X160757208Y-106499247D01*
X160757208Y-106499248D01*
X160732918Y-106515808D01*
X160550339Y-106640288D01*
X160366806Y-106810581D01*
X160210698Y-107006335D01*
X160085511Y-107223164D01*
X159994042Y-107456225D01*
X159994036Y-107456244D01*
X159938325Y-107700331D01*
X159938324Y-107700336D01*
X159919616Y-107949995D01*
X159919616Y-107950004D01*
X158269984Y-107950004D01*
X158269984Y-107949995D01*
X158251275Y-107700336D01*
X158251274Y-107700331D01*
X158251274Y-107700327D01*
X158195560Y-107456231D01*
X158104089Y-107223165D01*
X157978902Y-107006335D01*
X157822797Y-106810586D01*
X157822796Y-106810585D01*
X157822793Y-106810581D01*
X157639260Y-106640288D01*
X157602565Y-106615270D01*
X157432392Y-106499248D01*
X157432388Y-106499246D01*
X157432385Y-106499244D01*
X157432384Y-106499243D01*
X157206815Y-106390616D01*
X157206817Y-106390616D01*
X156967565Y-106316816D01*
X156967559Y-106316814D01*
X156719994Y-106279500D01*
X156719987Y-106279500D01*
X156469613Y-106279500D01*
X156469605Y-106279500D01*
X156222040Y-106316814D01*
X156222034Y-106316816D01*
X155982783Y-106390616D01*
X155757215Y-106499243D01*
X155757214Y-106499244D01*
X155757208Y-106499247D01*
X155757208Y-106499248D01*
X155732918Y-106515808D01*
X155550339Y-106640288D01*
X155366806Y-106810581D01*
X155210698Y-107006335D01*
X155085511Y-107223164D01*
X154994042Y-107456225D01*
X154994036Y-107456244D01*
X154938325Y-107700331D01*
X154938324Y-107700336D01*
X154919616Y-107949995D01*
X154919616Y-107950004D01*
X153634428Y-107950004D01*
X151791819Y-106107395D01*
X151758334Y-106046072D01*
X151755500Y-106019714D01*
X151755500Y-105314188D01*
X151775185Y-105247149D01*
X151808377Y-105212613D01*
X151861907Y-105175131D01*
X151969139Y-105100047D01*
X152130047Y-104939139D01*
X152260568Y-104752734D01*
X152356739Y-104546496D01*
X152415635Y-104326692D01*
X152431968Y-104140001D01*
X154182532Y-104140001D01*
X154202364Y-104366686D01*
X154202366Y-104366697D01*
X154261258Y-104586488D01*
X154261261Y-104586497D01*
X154357431Y-104792732D01*
X154357432Y-104792734D01*
X154487954Y-104979141D01*
X154648858Y-105140045D01*
X154648861Y-105140047D01*
X154835266Y-105270568D01*
X155041504Y-105366739D01*
X155261308Y-105425635D01*
X155423230Y-105439801D01*
X155487998Y-105445468D01*
X155488000Y-105445468D01*
X155488002Y-105445468D01*
X155544672Y-105440509D01*
X155714692Y-105425635D01*
X155934496Y-105366739D01*
X156140734Y-105270568D01*
X156327139Y-105140047D01*
X156488047Y-104979139D01*
X156618568Y-104792734D01*
X156714739Y-104586496D01*
X156773635Y-104366692D01*
X156793468Y-104140001D01*
X159182532Y-104140001D01*
X159202364Y-104366686D01*
X159202366Y-104366697D01*
X159261258Y-104586488D01*
X159261261Y-104586497D01*
X159357431Y-104792732D01*
X159357432Y-104792734D01*
X159487954Y-104979141D01*
X159648858Y-105140045D01*
X159648861Y-105140047D01*
X159835266Y-105270568D01*
X160041504Y-105366739D01*
X160261308Y-105425635D01*
X160423230Y-105439801D01*
X160487998Y-105445468D01*
X160488000Y-105445468D01*
X160488002Y-105445468D01*
X160544673Y-105440509D01*
X160714692Y-105425635D01*
X160934496Y-105366739D01*
X161140734Y-105270568D01*
X161327139Y-105140047D01*
X161488047Y-104979139D01*
X161618568Y-104792734D01*
X161714739Y-104586496D01*
X161773635Y-104366692D01*
X161793468Y-104140000D01*
X161789968Y-104100000D01*
X161784758Y-104040446D01*
X161773635Y-103913308D01*
X161714739Y-103693504D01*
X161618568Y-103487266D01*
X161488047Y-103300861D01*
X161488045Y-103300858D01*
X161327141Y-103139954D01*
X161140734Y-103009432D01*
X161140732Y-103009431D01*
X160934497Y-102913261D01*
X160934488Y-102913258D01*
X160714697Y-102854366D01*
X160714693Y-102854365D01*
X160714692Y-102854365D01*
X160714691Y-102854364D01*
X160714686Y-102854364D01*
X160488002Y-102834532D01*
X160487998Y-102834532D01*
X160261313Y-102854364D01*
X160261302Y-102854366D01*
X160041511Y-102913258D01*
X160041502Y-102913261D01*
X159835267Y-103009431D01*
X159835265Y-103009432D01*
X159648858Y-103139954D01*
X159487954Y-103300858D01*
X159357432Y-103487265D01*
X159357431Y-103487267D01*
X159261261Y-103693502D01*
X159261258Y-103693511D01*
X159202366Y-103913302D01*
X159202364Y-103913313D01*
X159182532Y-104139998D01*
X159182532Y-104140001D01*
X156793468Y-104140001D01*
X156793468Y-104140000D01*
X156789968Y-104100000D01*
X156784758Y-104040446D01*
X156773635Y-103913308D01*
X156714739Y-103693504D01*
X156618568Y-103487266D01*
X156488047Y-103300861D01*
X156488045Y-103300858D01*
X156327141Y-103139954D01*
X156140734Y-103009432D01*
X156140732Y-103009431D01*
X155934497Y-102913261D01*
X155934488Y-102913258D01*
X155714697Y-102854366D01*
X155714693Y-102854365D01*
X155714692Y-102854365D01*
X155714691Y-102854364D01*
X155714686Y-102854364D01*
X155488002Y-102834532D01*
X155487998Y-102834532D01*
X155261313Y-102854364D01*
X155261302Y-102854366D01*
X155041511Y-102913258D01*
X155041502Y-102913261D01*
X154835267Y-103009431D01*
X154835265Y-103009432D01*
X154648858Y-103139954D01*
X154487954Y-103300858D01*
X154357432Y-103487265D01*
X154357431Y-103487267D01*
X154261261Y-103693502D01*
X154261258Y-103693511D01*
X154202366Y-103913302D01*
X154202364Y-103913313D01*
X154182532Y-104139998D01*
X154182532Y-104140001D01*
X152431968Y-104140001D01*
X152435468Y-104100000D01*
X152415635Y-103873308D01*
X152356739Y-103653504D01*
X152260568Y-103447266D01*
X152158053Y-103300858D01*
X152130045Y-103260858D01*
X151969141Y-103099954D01*
X151782734Y-102969432D01*
X151782732Y-102969431D01*
X151576497Y-102873261D01*
X151576488Y-102873258D01*
X151356697Y-102814366D01*
X151356693Y-102814365D01*
X151356692Y-102814365D01*
X151356691Y-102814364D01*
X151356686Y-102814364D01*
X151130002Y-102794532D01*
X151129998Y-102794532D01*
X150903313Y-102814364D01*
X150903302Y-102814366D01*
X150683511Y-102873258D01*
X150683502Y-102873261D01*
X150477267Y-102969431D01*
X150477265Y-102969432D01*
X150290858Y-103099954D01*
X150129954Y-103260858D01*
X149999432Y-103447265D01*
X149999431Y-103447267D01*
X149903261Y-103653502D01*
X149903258Y-103653511D01*
X149844366Y-103873302D01*
X149844364Y-103873313D01*
X149824532Y-104099998D01*
X149824532Y-104100001D01*
X149844364Y-104326686D01*
X149844366Y-104326697D01*
X149903258Y-104546488D01*
X149903261Y-104546497D01*
X149999431Y-104752732D01*
X149999432Y-104752734D01*
X150129954Y-104939141D01*
X150290858Y-105100045D01*
X150451623Y-105212613D01*
X150495248Y-105267189D01*
X150504500Y-105314188D01*
X150504500Y-106247422D01*
X150502775Y-106263039D01*
X150503061Y-106263066D01*
X150502326Y-106270833D01*
X150504469Y-106339013D01*
X150504500Y-106340960D01*
X150504500Y-106369510D01*
X150504501Y-106369527D01*
X150505368Y-106376398D01*
X150505826Y-106382217D01*
X150507290Y-106428791D01*
X150507291Y-106428794D01*
X150512880Y-106448034D01*
X150516824Y-106467078D01*
X150519336Y-106486959D01*
X150536490Y-106530286D01*
X150538382Y-106535814D01*
X150551381Y-106580555D01*
X150561580Y-106597801D01*
X150570138Y-106615270D01*
X150577514Y-106633899D01*
X150604898Y-106671590D01*
X150608106Y-106676474D01*
X150631827Y-106716583D01*
X150631833Y-106716591D01*
X150645990Y-106730747D01*
X150658628Y-106745543D01*
X150670405Y-106761753D01*
X150670406Y-106761754D01*
X150706309Y-106791455D01*
X150710620Y-106795377D01*
X152971621Y-109056378D01*
X155195427Y-111280184D01*
X155205252Y-111292448D01*
X155205473Y-111292266D01*
X155210443Y-111298274D01*
X155260182Y-111344982D01*
X155261549Y-111346306D01*
X155281763Y-111366520D01*
X155287237Y-111370766D01*
X155291675Y-111374556D01*
X155325651Y-111406462D01*
X155325655Y-111406464D01*
X155343206Y-111416113D01*
X155359464Y-111426792D01*
X155375297Y-111439074D01*
X155397248Y-111448572D01*
X155418070Y-111457583D01*
X155423314Y-111460152D01*
X155464141Y-111482597D01*
X155483545Y-111487579D01*
X155501943Y-111493878D01*
X155520338Y-111501838D01*
X155566362Y-111509126D01*
X155572065Y-111510307D01*
X155617214Y-111521900D01*
X155637249Y-111521900D01*
X155656646Y-111523426D01*
X155676429Y-111526560D01*
X155722816Y-111522175D01*
X155728655Y-111521900D01*
X157321948Y-111521900D01*
X157388987Y-111541585D01*
X157409629Y-111558219D01*
X158556338Y-112704928D01*
X158589823Y-112766251D01*
X158588863Y-112823049D01*
X158534892Y-113036174D01*
X158534890Y-113036187D01*
X158514357Y-113283994D01*
X158514357Y-113284005D01*
X158534890Y-113531812D01*
X158534892Y-113531824D01*
X158595936Y-113772881D01*
X158695826Y-114000606D01*
X158831833Y-114208782D01*
X158831836Y-114208785D01*
X159000256Y-114391738D01*
X159118855Y-114484047D01*
X159159667Y-114540757D01*
X159163342Y-114610530D01*
X159128710Y-114671213D01*
X159066769Y-114703540D01*
X159042692Y-114705900D01*
X157186493Y-114705900D01*
X157119454Y-114686215D01*
X157073699Y-114633411D01*
X157063755Y-114564253D01*
X157078551Y-114531853D01*
X157080056Y-114507609D01*
X156342533Y-113770086D01*
X156352315Y-113768680D01*
X156483100Y-113708952D01*
X156591761Y-113614798D01*
X156669493Y-113493844D01*
X156693076Y-113413524D01*
X157433434Y-114153882D01*
X157533731Y-114000369D01*
X157633587Y-113772717D01*
X157694612Y-113531738D01*
X157694614Y-113531729D01*
X157715141Y-113284005D01*
X157715141Y-113283994D01*
X157694614Y-113036270D01*
X157694612Y-113036261D01*
X157633587Y-112795282D01*
X157533731Y-112567630D01*
X157433434Y-112414116D01*
X156693076Y-113154474D01*
X156669493Y-113074156D01*
X156591761Y-112953202D01*
X156483100Y-112859048D01*
X156352315Y-112799320D01*
X156342534Y-112797913D01*
X157080057Y-112060390D01*
X157080056Y-112060389D01*
X157033229Y-112023943D01*
X156814614Y-111905635D01*
X156814603Y-111905630D01*
X156579493Y-111824916D01*
X156334293Y-111784000D01*
X156085707Y-111784000D01*
X155840506Y-111824916D01*
X155605396Y-111905630D01*
X155605390Y-111905632D01*
X155386761Y-112023949D01*
X155339942Y-112060388D01*
X155339942Y-112060390D01*
X156077466Y-112797913D01*
X156067685Y-112799320D01*
X155936900Y-112859048D01*
X155828239Y-112953202D01*
X155750507Y-113074156D01*
X155726923Y-113154475D01*
X154986564Y-112414116D01*
X154886267Y-112567632D01*
X154786412Y-112795282D01*
X154725387Y-113036261D01*
X154725385Y-113036270D01*
X154704859Y-113283994D01*
X154704859Y-113284005D01*
X154725385Y-113531729D01*
X154725387Y-113531738D01*
X154786412Y-113772717D01*
X154886266Y-114000364D01*
X154986564Y-114153882D01*
X155726923Y-113413523D01*
X155750507Y-113493844D01*
X155828239Y-113614798D01*
X155936900Y-113708952D01*
X156067685Y-113768680D01*
X156077466Y-113770086D01*
X155339942Y-114507609D01*
X155341199Y-114527861D01*
X155350481Y-114540758D01*
X155354154Y-114610531D01*
X155319523Y-114671214D01*
X155257581Y-114703540D01*
X155233505Y-114705900D01*
X153691840Y-114705900D01*
X153624801Y-114686215D01*
X153579046Y-114633411D01*
X153569102Y-114564253D01*
X153598127Y-114500697D01*
X153604159Y-114494219D01*
X153607190Y-114491187D01*
X153693350Y-114376093D01*
X153693354Y-114376086D01*
X153743596Y-114241379D01*
X153743598Y-114241372D01*
X153749999Y-114181844D01*
X153750000Y-114181827D01*
X153750000Y-113534000D01*
X152833686Y-113534000D01*
X152859493Y-113493844D01*
X152900000Y-113355889D01*
X152900000Y-113212111D01*
X152859493Y-113074156D01*
X152833686Y-113034000D01*
X153750000Y-113034000D01*
X153750000Y-112386172D01*
X153749999Y-112386155D01*
X153743598Y-112326627D01*
X153743596Y-112326620D01*
X153693354Y-112191913D01*
X153693350Y-112191906D01*
X153607190Y-112076812D01*
X153607187Y-112076809D01*
X153492093Y-111990649D01*
X153492086Y-111990645D01*
X153357379Y-111940403D01*
X153357372Y-111940401D01*
X153297844Y-111934000D01*
X152650000Y-111934000D01*
X152650000Y-112848498D01*
X152542315Y-112799320D01*
X152435763Y-112784000D01*
X152364237Y-112784000D01*
X152257685Y-112799320D01*
X152150000Y-112848498D01*
X152150000Y-111934000D01*
X151502155Y-111934000D01*
X151442627Y-111940401D01*
X151442620Y-111940403D01*
X151307913Y-111990645D01*
X151307906Y-111990649D01*
X151192812Y-112076809D01*
X151192809Y-112076812D01*
X151106649Y-112191906D01*
X151106645Y-112191913D01*
X151057578Y-112323470D01*
X151015707Y-112379404D01*
X150950242Y-112403821D01*
X150881969Y-112388969D01*
X150853715Y-112367819D01*
X150809366Y-112323470D01*
X150731401Y-112245505D01*
X150731397Y-112245502D01*
X150731396Y-112245501D01*
X150537834Y-112109967D01*
X150537830Y-112109965D01*
X150431512Y-112060388D01*
X150323663Y-112010097D01*
X150323659Y-112010096D01*
X150323655Y-112010094D01*
X150095413Y-111948938D01*
X150095403Y-111948936D01*
X149860001Y-111928341D01*
X149859999Y-111928341D01*
X149624596Y-111948936D01*
X149624586Y-111948938D01*
X149396344Y-112010094D01*
X149396335Y-112010098D01*
X149182171Y-112109964D01*
X149182169Y-112109965D01*
X148988597Y-112245505D01*
X148821505Y-112412597D01*
X148685965Y-112606169D01*
X148685964Y-112606171D01*
X148586098Y-112820335D01*
X148586094Y-112820344D01*
X148524938Y-113048586D01*
X148524936Y-113048596D01*
X148504341Y-113283999D01*
X148504341Y-113284000D01*
X148524936Y-113519403D01*
X148524938Y-113519413D01*
X148586094Y-113747655D01*
X148586096Y-113747659D01*
X148586097Y-113747663D01*
X148626796Y-113834941D01*
X148685965Y-113961830D01*
X148685967Y-113961834D01*
X148794281Y-114116521D01*
X148821505Y-114155401D01*
X148988599Y-114322495D01*
X149182170Y-114458035D01*
X149189238Y-114461330D01*
X149241676Y-114507501D01*
X149260828Y-114574695D01*
X149240613Y-114641576D01*
X149187448Y-114686911D01*
X149126024Y-114697240D01*
X149055059Y-114691031D01*
X149033774Y-114687278D01*
X148988693Y-114675199D01*
X148933105Y-114643105D01*
X148246893Y-113956893D01*
X148214799Y-113901304D01*
X148202721Y-113856226D01*
X148198968Y-113834941D01*
X148193538Y-113772881D01*
X148184335Y-113667696D01*
X148184100Y-113662292D01*
X148184100Y-93472000D01*
X149874538Y-93472000D01*
X149894337Y-93673031D01*
X149952978Y-93866345D01*
X150048198Y-94044488D01*
X150048202Y-94044494D01*
X150120328Y-94132381D01*
X150147640Y-94196691D01*
X150135849Y-94265558D01*
X150098786Y-94310311D01*
X150022452Y-94367455D01*
X149936206Y-94482664D01*
X149936202Y-94482671D01*
X149885908Y-94617517D01*
X149879501Y-94677116D01*
X149879501Y-94677123D01*
X149879500Y-94677135D01*
X149879500Y-95822870D01*
X149879501Y-95822876D01*
X149885908Y-95882483D01*
X149936202Y-96017328D01*
X149936206Y-96017335D01*
X150022452Y-96132544D01*
X150022455Y-96132547D01*
X150137664Y-96218793D01*
X150137671Y-96218797D01*
X150272517Y-96269091D01*
X150272516Y-96269091D01*
X150279444Y-96269835D01*
X150332127Y-96275500D01*
X151927872Y-96275499D01*
X151987483Y-96269091D01*
X152122331Y-96218796D01*
X152237546Y-96132546D01*
X152323796Y-96017331D01*
X152374091Y-95882483D01*
X152380500Y-95822873D01*
X152380499Y-94677128D01*
X152374091Y-94617517D01*
X152368515Y-94602568D01*
X152323797Y-94482671D01*
X152323793Y-94482664D01*
X152237547Y-94367455D01*
X152237544Y-94367452D01*
X152161214Y-94310311D01*
X152119343Y-94254377D01*
X152114359Y-94184686D01*
X152139672Y-94132380D01*
X152211797Y-94044495D01*
X152211801Y-94044488D01*
X152307021Y-93866345D01*
X152307021Y-93866344D01*
X152307023Y-93866341D01*
X152365662Y-93673033D01*
X152385462Y-93472001D01*
X154142532Y-93472001D01*
X154162364Y-93698686D01*
X154162366Y-93698697D01*
X154221258Y-93918488D01*
X154221261Y-93918497D01*
X154317431Y-94124732D01*
X154317432Y-94124734D01*
X154447954Y-94311141D01*
X154608858Y-94472045D01*
X154608861Y-94472047D01*
X154795266Y-94602568D01*
X155001504Y-94698739D01*
X155221308Y-94757635D01*
X155383230Y-94771801D01*
X155447998Y-94777468D01*
X155448000Y-94777468D01*
X155448002Y-94777468D01*
X155504673Y-94772509D01*
X155674692Y-94757635D01*
X155894496Y-94698739D01*
X156100734Y-94602568D01*
X156287139Y-94472047D01*
X156448047Y-94311139D01*
X156578568Y-94124734D01*
X156674739Y-93918496D01*
X156733635Y-93698692D01*
X156753468Y-93472001D01*
X161762532Y-93472001D01*
X161782364Y-93698686D01*
X161782366Y-93698697D01*
X161841258Y-93918488D01*
X161841261Y-93918497D01*
X161937431Y-94124732D01*
X161937432Y-94124734D01*
X162067954Y-94311141D01*
X162228858Y-94472045D01*
X162228861Y-94472047D01*
X162415266Y-94602568D01*
X162621504Y-94698739D01*
X162841308Y-94757635D01*
X163003230Y-94771801D01*
X163067998Y-94777468D01*
X163068000Y-94777468D01*
X163068002Y-94777468D01*
X163124672Y-94772509D01*
X163294692Y-94757635D01*
X163514496Y-94698739D01*
X163720734Y-94602568D01*
X163907139Y-94472047D01*
X164068047Y-94311139D01*
X164198568Y-94124734D01*
X164294739Y-93918496D01*
X164353635Y-93698692D01*
X164373468Y-93472000D01*
X164353635Y-93245308D01*
X164294739Y-93025504D01*
X164198568Y-92819266D01*
X164068047Y-92632861D01*
X164068045Y-92632858D01*
X163907141Y-92471954D01*
X163720734Y-92341432D01*
X163720732Y-92341431D01*
X163514497Y-92245261D01*
X163514488Y-92245258D01*
X163353063Y-92202005D01*
X166642859Y-92202005D01*
X166663385Y-92449729D01*
X166663387Y-92449738D01*
X166724412Y-92690717D01*
X166824266Y-92918364D01*
X166924564Y-93071882D01*
X167664923Y-92331523D01*
X167688507Y-92411844D01*
X167766239Y-92532798D01*
X167874900Y-92626952D01*
X168005685Y-92686680D01*
X168015466Y-92688086D01*
X167277942Y-93425609D01*
X167324768Y-93462055D01*
X167324770Y-93462056D01*
X167543385Y-93580364D01*
X167543396Y-93580369D01*
X167778506Y-93661083D01*
X168023707Y-93702000D01*
X168272293Y-93702000D01*
X168517493Y-93661083D01*
X168752603Y-93580369D01*
X168752614Y-93580364D01*
X168971228Y-93462057D01*
X168971231Y-93462055D01*
X169018056Y-93425609D01*
X168280533Y-92688086D01*
X168290315Y-92686680D01*
X168421100Y-92626952D01*
X168529761Y-92532798D01*
X168607493Y-92411844D01*
X168631077Y-92331523D01*
X169371434Y-93071882D01*
X169471731Y-92918369D01*
X169571587Y-92690717D01*
X169632612Y-92449738D01*
X169632614Y-92449729D01*
X169653141Y-92202005D01*
X170706357Y-92202005D01*
X170726890Y-92449812D01*
X170726892Y-92449824D01*
X170787936Y-92690881D01*
X170887826Y-92918606D01*
X171023833Y-93126782D01*
X171023836Y-93126785D01*
X171192256Y-93309738D01*
X171388491Y-93462474D01*
X171388493Y-93462475D01*
X171606332Y-93580364D01*
X171607190Y-93580828D01*
X171826141Y-93655994D01*
X171840964Y-93661083D01*
X171842386Y-93661571D01*
X172087665Y-93702500D01*
X172336335Y-93702500D01*
X172581614Y-93661571D01*
X172816810Y-93580828D01*
X173035509Y-93462474D01*
X173231744Y-93309738D01*
X173400164Y-93126785D01*
X173536173Y-92918607D01*
X173636063Y-92690881D01*
X173697108Y-92449821D01*
X173717643Y-92202000D01*
X173697108Y-91954179D01*
X173637127Y-91717320D01*
X173636063Y-91713118D01*
X173536173Y-91485393D01*
X173400166Y-91277217D01*
X173332482Y-91203693D01*
X173231744Y-91094262D01*
X173035509Y-90941526D01*
X173035507Y-90941525D01*
X173035506Y-90941524D01*
X172816811Y-90823172D01*
X172816802Y-90823169D01*
X172581616Y-90742429D01*
X172336335Y-90701500D01*
X172087665Y-90701500D01*
X171842383Y-90742429D01*
X171607197Y-90823169D01*
X171607188Y-90823172D01*
X171388493Y-90941524D01*
X171192257Y-91094261D01*
X171023833Y-91277217D01*
X170887826Y-91485393D01*
X170787936Y-91713118D01*
X170726892Y-91954175D01*
X170726890Y-91954187D01*
X170706357Y-92201994D01*
X170706357Y-92202005D01*
X169653141Y-92202005D01*
X169653141Y-92201994D01*
X169632614Y-91954270D01*
X169632612Y-91954261D01*
X169571587Y-91713282D01*
X169471731Y-91485630D01*
X169371434Y-91332116D01*
X168631076Y-92072474D01*
X168607493Y-91992156D01*
X168529761Y-91871202D01*
X168421100Y-91777048D01*
X168290315Y-91717320D01*
X168280534Y-91715913D01*
X169018057Y-90978390D01*
X169018056Y-90978389D01*
X168971229Y-90941943D01*
X168752614Y-90823635D01*
X168752603Y-90823630D01*
X168517493Y-90742916D01*
X168272293Y-90702000D01*
X168023707Y-90702000D01*
X167778506Y-90742916D01*
X167543396Y-90823630D01*
X167543390Y-90823632D01*
X167324761Y-90941949D01*
X167277942Y-90978388D01*
X167277942Y-90978390D01*
X168015466Y-91715913D01*
X168005685Y-91717320D01*
X167874900Y-91777048D01*
X167766239Y-91871202D01*
X167688507Y-91992156D01*
X167664923Y-92072475D01*
X166924564Y-91332116D01*
X166824267Y-91485632D01*
X166724412Y-91713282D01*
X166663387Y-91954261D01*
X166663385Y-91954270D01*
X166642859Y-92201994D01*
X166642859Y-92202005D01*
X163353063Y-92202005D01*
X163294697Y-92186366D01*
X163294693Y-92186365D01*
X163294692Y-92186365D01*
X163294691Y-92186364D01*
X163294686Y-92186364D01*
X163068002Y-92166532D01*
X163067998Y-92166532D01*
X162841313Y-92186364D01*
X162841302Y-92186366D01*
X162621511Y-92245258D01*
X162621502Y-92245261D01*
X162415267Y-92341431D01*
X162415265Y-92341432D01*
X162228858Y-92471954D01*
X162067954Y-92632858D01*
X161937432Y-92819265D01*
X161937431Y-92819267D01*
X161841261Y-93025502D01*
X161841258Y-93025511D01*
X161782366Y-93245302D01*
X161782364Y-93245313D01*
X161762532Y-93471998D01*
X161762532Y-93472001D01*
X156753468Y-93472001D01*
X156753468Y-93472000D01*
X156733635Y-93245308D01*
X156674739Y-93025504D01*
X156578568Y-92819266D01*
X156448047Y-92632861D01*
X156448045Y-92632858D01*
X156287141Y-92471954D01*
X156100734Y-92341432D01*
X156100732Y-92341431D01*
X155894497Y-92245261D01*
X155894488Y-92245258D01*
X155674697Y-92186366D01*
X155674693Y-92186365D01*
X155674692Y-92186365D01*
X155674691Y-92186364D01*
X155674686Y-92186364D01*
X155448002Y-92166532D01*
X155447998Y-92166532D01*
X155221313Y-92186364D01*
X155221302Y-92186366D01*
X155001511Y-92245258D01*
X155001502Y-92245261D01*
X154795267Y-92341431D01*
X154795265Y-92341432D01*
X154608858Y-92471954D01*
X154447954Y-92632858D01*
X154317432Y-92819265D01*
X154317431Y-92819267D01*
X154221261Y-93025502D01*
X154221258Y-93025511D01*
X154162366Y-93245302D01*
X154162364Y-93245313D01*
X154142532Y-93471998D01*
X154142532Y-93472001D01*
X152385462Y-93472001D01*
X152385462Y-93472000D01*
X152365662Y-93270967D01*
X152307023Y-93077659D01*
X152307021Y-93077656D01*
X152307021Y-93077654D01*
X152211801Y-92899511D01*
X152211799Y-92899509D01*
X152211798Y-92899506D01*
X152083647Y-92743353D01*
X152005053Y-92678853D01*
X151965719Y-92621108D01*
X151963848Y-92551264D01*
X152000035Y-92491495D01*
X152005054Y-92487146D01*
X152083647Y-92422647D01*
X152211798Y-92266494D01*
X152307023Y-92088341D01*
X152365662Y-91895033D01*
X152385462Y-91694000D01*
X152365662Y-91492967D01*
X152307023Y-91299659D01*
X152307021Y-91299656D01*
X152307021Y-91299654D01*
X152211801Y-91121511D01*
X152211799Y-91121509D01*
X152211798Y-91121506D01*
X152172824Y-91074016D01*
X152083647Y-90965352D01*
X151927495Y-90837203D01*
X151927488Y-90837198D01*
X151749345Y-90741978D01*
X151556031Y-90683337D01*
X151445900Y-90672490D01*
X151405380Y-90668500D01*
X150854620Y-90668500D01*
X150817433Y-90672162D01*
X150703968Y-90683337D01*
X150510654Y-90741978D01*
X150332511Y-90837198D01*
X150332504Y-90837203D01*
X150176352Y-90965352D01*
X150048203Y-91121504D01*
X150048198Y-91121511D01*
X149952978Y-91299654D01*
X149894337Y-91492968D01*
X149874538Y-91693999D01*
X149894337Y-91895031D01*
X149952978Y-92088345D01*
X150048198Y-92266488D01*
X150048203Y-92266495D01*
X150176352Y-92422647D01*
X150254946Y-92487147D01*
X150294280Y-92544892D01*
X150296151Y-92614737D01*
X150259964Y-92674505D01*
X150254946Y-92678853D01*
X150176352Y-92743352D01*
X150048203Y-92899504D01*
X150048198Y-92899511D01*
X149952978Y-93077654D01*
X149894337Y-93270968D01*
X149874538Y-93472000D01*
X148184100Y-93472000D01*
X148184100Y-91442706D01*
X148184336Y-91437300D01*
X148184336Y-91437299D01*
X148198968Y-91270053D01*
X148202721Y-91248774D01*
X148214800Y-91203692D01*
X148246890Y-91148109D01*
X148933109Y-90461890D01*
X148988690Y-90429800D01*
X149033777Y-90417719D01*
X149055051Y-90413968D01*
X149222304Y-90399335D01*
X149227707Y-90399100D01*
X149265396Y-90399100D01*
X173949604Y-90399100D01*
X173987293Y-90399100D01*
X173992695Y-90399335D01*
G37*
%TD.AperFunction*%
%TD*%
M02*
